<?xml version="1.0" standalone="no"?>
<!DOCTYPE svg PUBLIC "-//W3C//DTD SVG 20010904//EN"
 "http://www.w3.org/TR/2001/REC-SVG-20010904/DTD/svg10.dtd">
<svg version="1.0" xmlns="http://www.w3.org/2000/svg"
 width="768.000000pt" height="766.000000pt" viewBox="0 0 768.000000 766.000000"
 preserveAspectRatio="xMidYMid meet">

<g transform="translate(0.000000,766.000000) scale(0.100000,-0.100000)"
fill="#000000" stroke="none">
<path d="M3532 7623 l-43 -4 6 -52 c9 -76 285 -3097 285 -3118 0 -19 -17 -26
-73 -31 l-29 -3 -354 1240 c-194 682 -357 1248 -361 1257 -7 15 -19 13 -123
-21 -126 -42 -224 -80 -343 -135 -43 -20 -80 -36 -83 -36 -2 0 -63 117 -134
261 l-131 260 -77 -42 c-182 -99 -411 -244 -496 -312 l-29 -24 170 -224 c93
-123 172 -229 176 -235 4 -7 -23 -36 -66 -70 -39 -32 -135 -120 -213 -196
l-140 -137 -219 199 -220 199 -45 -51 c-114 -130 -289 -364 -358 -478 l-21
-35 202 -125 c111 -68 226 -139 255 -157 l52 -34 -30 -52 c-51 -86 -155 -296
-190 -384 -19 -46 -38 -83 -43 -83 -4 0 -130 47 -279 105 -149 58 -275 102
-279 98 -28 -29 -173 -533 -181 -628 l-3 -39 295 -56 c233 -44 295 -59 293
-70 -18 -119 -35 -295 -40 -417 l-6 -153 -310 0 -309 0 6 -137 c8 -149 30
-374 46 -463 5 -30 11 -67 12 -81 1 -18 7 -25 18 -23 8 2 137 26 285 54 149
27 280 52 291 55 20 4 23 -4 49 -113 73 -312 176 -565 381 -931 11 -19 15 -35
9 -37 -5 -3 -126 -77 -267 -165 l-258 -160 36 -57 c84 -132 250 -350 348 -459
l43 -47 232 213 232 212 112 -108 c62 -59 158 -146 214 -192 l103 -83 -20 -27
c-10 -14 -97 -129 -193 -256 -96 -126 -171 -232 -165 -234 5 -1 57 -37 116
-78 98 -69 220 -143 408 -250 l71 -40 143 288 144 287 38 -19 c69 -35 261
-112 376 -149 62 -21 115 -39 117 -42 3 -2 -33 -138 -80 -301 -47 -163 -85
-300 -85 -305 0 -21 441 -111 620 -128 l75 -6 28 303 c15 167 27 309 27 314 0
6 103 10 290 10 187 0 290 -4 290 -10 0 -5 12 -147 27 -314 l27 -303 75 6
c178 16 621 108 621 128 0 5 -38 142 -85 305 -47 163 -84 297 -82 298 1 1 61
21 132 45 105 34 232 85 392 156 8 4 62 -95 154 -278 l142 -285 71 40 c275
155 436 261 613 403 117 95 309 270 379 347 l51 57 -205 187 c-112 104 -216
197 -230 209 l-25 21 79 94 c98 117 156 191 223 292 50 75 53 78 74 64 25 -16
487 -301 503 -310 6 -3 11 -1 11 6 0 7 21 47 47 91 86 143 265 520 253 532 -2
2 -120 48 -262 104 -143 55 -270 104 -281 109 -21 9 -20 12 32 168 30 87 66
211 81 275 22 92 31 118 44 118 13 0 512 -91 569 -104 10 -2 17 4 17 15 1 11
9 65 17 121 19 123 33 268 42 440 l6 128 -303 2 -304 3 -6 165 c-4 91 -14 220
-24 288 -9 68 -15 125 -13 127 1 2 131 28 288 57 l285 54 -3 37 c-4 53 -66
298 -108 428 -76 236 -195 508 -313 714 -35 61 -66 113 -70 117 -3 4 -118 -62
-255 -147 l-248 -154 -50 77 c-71 107 -149 213 -232 311 l-70 84 62 56 c34 31
132 119 217 196 l154 140 -152 150 c-84 83 -200 190 -259 237 l-107 88 -173
-230 c-95 -126 -177 -228 -183 -227 -5 1 -59 36 -118 77 -93 64 -337 212 -369
222 -6 2 46 120 116 262 69 143 126 261 126 263 0 5 -136 67 -260 118 -133 55
-381 137 -389 129 -3 -3 -40 -126 -82 -272 l-76 -267 -29 2 c-16 1 -78 13
-139 27 -60 15 -179 36 -262 48 -152 22 -153 22 -153 47 0 14 11 143 25 285
13 143 22 262 19 265 -7 7 -590 10 -652 4z m283 -336 c18 -25 19 -86 4 -121
-16 -34 -57 -50 -93 -36 -28 10 -27 32 2 29 31 -3 41 1 51 19 9 16 6 18 -18
14 -50 -7 -82 67 -43 100 35 31 73 29 97 -5z m148 1 c24 -28 23 -98 -3 -131
-26 -32 -50 -40 -84 -27 -28 10 -26 32 2 29 32 -3 41 1 52 21 10 19 9 20 -15
14 -33 -8 -65 19 -65 55 1 65 69 89 113 39z m-303 -53 c0 -60 3 -75 15 -75 8
0 15 -7 15 -15 0 -12 -13 -15 -60 -15 -47 0 -60 3 -60 15 0 9 9 15 25 15 24 0
25 3 25 56 0 49 -2 55 -15 44 -15 -12 -45 -8 -45 7 0 13 53 41 78 42 21 1 22
-3 22 -74z m450 60 c0 -10 -11 -15 -35 -15 -28 0 -35 -4 -35 -20 0 -15 7 -20
24 -20 57 0 73 -67 25 -103 -24 -17 -31 -18 -63 -7 -28 9 -34 15 -27 24 6 7
24 11 39 8 21 -3 31 1 36 13 8 21 -12 48 -31 41 -28 -11 -43 5 -43 50 l0 44
55 0 c42 0 55 -3 55 -15z m813 -153 c3 -4 -6 -34 -19 -67 -21 -50 -23 -64 -13
-82 18 -33 9 -35 -47 -14 -52 20 -78 57 -31 46 21 -6 26 -1 40 37 21 54 21 59
1 51 -9 -3 -20 0 -25 8 -5 10 -3 16 9 21 24 9 80 10 85 0z m125 -48 c55 -39 4
-164 -68 -164 -35 0 -75 29 -61 43 8 8 14 8 23 -1 16 -16 43 -15 58 3 10 13 9
15 -9 15 -26 0 -55 42 -46 69 15 49 61 65 103 35z m136 -55 c16 -12 26 -30 26
-46 0 -40 -30 -93 -63 -110 -27 -14 -33 -14 -64 1 -18 9 -33 20 -33 25 0 15
18 23 25 11 9 -15 51 -12 65 5 10 13 9 15 -8 15 -50 0 -67 57 -30 97 27 28 48
29 82 2z m161 -59 c16 0 -1 -27 -42 -68 -27 -26 -52 -55 -58 -65 -13 -23 -46
-13 -38 11 3 9 26 38 51 63 l44 47 -31 7 c-33 7 -46 19 -36 35 3 6 26 2 56
-10 27 -11 52 -20 54 -20z m-3092 -62 c2 -7 2 -28 -1 -47 -4 -25 -2 -32 7 -27
6 4 23 0 36 -8 50 -33 20 -106 -42 -106 -30 0 -30 28 -1 32 26 3 37 36 17 49
-7 4 -21 3 -30 -2 -24 -12 -32 3 -24 43 l7 32 -26 -17 c-25 -17 -46 -16 -46 3
0 8 78 59 92 60 3 0 8 -6 11 -12z m-112 -87 c18 -15 22 -27 21 -70 -1 -48 0
-50 19 -41 20 11 39 6 39 -10 0 -4 -21 -20 -46 -35 -37 -22 -48 -25 -55 -14
-5 8 -7 19 -5 25 3 6 7 31 11 56 5 35 3 47 -10 58 -15 12 -19 11 -35 -10 -14
-18 -22 -22 -30 -14 -15 15 -2 42 29 59 34 18 35 18 62 -4z m-109 -81 c27 -21
58 -77 58 -104 0 -24 -37 -56 -63 -56 -24 0 -66 38 -86 77 -16 31 -14 63 6 85
21 23 54 23 85 -2z m-122 -85 c8 -10 11 -32 8 -64 l-5 -49 24 15 c18 12 27 13
35 5 14 -14 15 -12 -40 -46 -23 -15 -47 -24 -52 -21 -6 4 -7 34 -4 74 7 77 -6
100 -37 63 -9 -12 -22 -22 -28 -22 -17 0 -13 35 7 52 34 30 63 28 92 -7z
m2286 -45 c-4 -28 -9 -57 -12 -65 -4 -10 0 -15 11 -15 9 0 15 -5 13 -11 -4
-13 -7 -13 -58 -4 -41 7 -56 25 -21 25 19 0 23 6 35 63 6 25 4 28 -14 22 -28
-9 -26 13 3 25 45 18 50 14 43 -40z m126 13 c23 -21 23 -60 -2 -100 -20 -33
-47 -41 -84 -27 -28 11 -17 26 13 19 23 -5 32 -2 40 13 9 17 8 19 -8 15 -13
-3 -25 4 -36 21 -16 24 -16 28 -1 51 19 29 51 32 78 8z m123 -23 c13 -14 16
-29 12 -56 -10 -61 -50 -88 -101 -68 -24 9 -8 25 18 18 13 -3 27 0 34 9 10 12
7 15 -17 20 -35 7 -47 42 -25 74 18 28 55 30 79 3z m133 -28 c3 -9 -3 -11 -20
-7 -15 4 -29 1 -36 -8 -10 -12 -7 -15 17 -20 33 -7 44 -34 27 -69 -15 -29 -52
-35 -78 -11 -24 22 -20 83 8 114 20 22 75 23 82 1z m-1586 -54 c3 -51 4 -52
16 -25 11 26 12 27 29 10 21 -21 27 -73 8 -73 -7 0 -16 7 -19 15 -4 12 -10 14
-25 5 -11 -5 -24 -10 -30 -10 -12 0 -16 112 -4 123 15 16 22 4 25 -45z m2997
32 c9 0 26 -6 37 -14 18 -14 17 -17 -29 -64 -41 -41 -47 -53 -41 -75 3 -15 11
-27 18 -27 6 0 19 -9 28 -19 11 -13 24 -18 37 -14 26 7 26 7 -3 36 -29 29 -25
61 10 84 48 31 112 -15 98 -71 -7 -30 -55 -73 -91 -82 -33 -9 -71 10 -85 41
-6 14 -16 25 -23 25 -19 0 -88 77 -75 85 6 4 18 1 26 -6 12 -10 20 -5 48 27
31 36 32 40 15 46 -10 4 -19 15 -19 24 0 11 5 14 16 10 9 -3 23 -6 33 -6z
m-3084 -37 c17 -16 17 -57 0 -97 -7 -16 -6 -17 15 -6 15 8 25 9 32 2 7 -7 -2
-16 -28 -27 -55 -23 -68 -15 -49 31 26 64 15 97 -24 72 -30 -18 -40 1 -12 23
29 23 45 24 66 2z m-83 -74 c25 -46 20 -80 -15 -99 -27 -15 -29 -14 -58 18
-36 40 -40 93 -8 116 29 20 58 7 81 -35z m-132 -20 c11 -19 9 -44 -6 -84 -5
-13 -2 -15 21 -9 42 10 27 -17 -18 -32 -47 -16 -53 -6 -31 52 13 34 14 48 5
57 -9 9 -16 9 -31 -1 -25 -16 -30 -15 -30 3 0 35 73 47 90 14z m3545 -74 c29
-28 30 -36 10 -76 -18 -34 -70 -69 -103 -69 -23 0 -72 40 -72 60 0 16 30 12
36 -5 6 -14 45 -21 56 -9 3 3 -5 16 -18 29 -13 13 -24 29 -24 35 0 19 48 60
70 60 12 0 32 -11 45 -25z m-1031 7 c2 -4 -9 -29 -25 -56 -22 -35 -27 -51 -20
-60 20 -24 -1 -25 -40 -3 -41 23 -52 43 -19 34 14 -4 25 4 40 28 24 39 25 45
5 45 -8 0 -15 5 -15 10 0 12 67 14 74 2z m101 -66 c28 -42 -19 -116 -73 -116
-30 0 -71 33 -54 44 5 3 15 -1 22 -9 15 -18 32 -19 48 -3 9 9 6 14 -11 22 -28
15 -33 43 -11 67 24 26 60 24 79 -5z m1025 -26 c11 -6 24 -19 30 -30 24 -45
-47 -130 -108 -130 -23 0 -72 40 -72 60 0 16 30 12 36 -5 6 -14 45 -21 56 -9
3 3 -5 16 -18 29 -29 29 -30 35 -3 69 22 27 48 33 79 16z m-932 -26 c40 -27
18 -101 -37 -124 -26 -10 -35 -10 -56 4 -38 25 -34 48 4 24 10 -6 26 -8 36 -4
17 6 17 8 -3 22 -26 18 -29 56 -6 78 19 20 34 20 62 0z m114 -71 c24 -22 23
-54 -2 -60 -15 -4 -19 -11 -14 -25 14 -45 -49 -65 -87 -27 -25 25 -21 51 9 64
12 5 20 14 18 20 -6 19 14 45 36 45 12 0 30 -7 40 -17z m-4232 -93 c42 -31 56
-37 67 -28 10 8 17 8 25 0 12 -12 -39 -91 -59 -92 -16 0 -26 17 -13 25 19 12
10 30 -30 58 -38 27 -40 27 -40 8 0 -14 -6 -21 -20 -21 -19 0 -20 4 -14 38 12
65 13 65 84 12z m814 -6 c9 -8 19 -33 22 -55 6 -37 8 -39 24 -24 12 11 20 13
24 6 8 -12 -55 -72 -66 -65 -5 3 -8 27 -8 53 0 30 -5 53 -15 61 -16 14 -35 6
-35 -16 0 -8 -4 -14 -8 -14 -17 0 -21 13 -10 34 20 39 47 46 72 20z m-895 -80
c11 -14 23 -41 27 -59 l6 -34 23 27 c21 24 24 25 30 10 5 -12 -4 -31 -25 -58
-38 -48 -54 -42 -64 24 -4 24 -13 51 -20 61 -17 23 -46 13 -46 -15 0 -15 -5
-20 -17 -18 -22 5 -20 44 4 70 23 26 58 22 82 -8z m820 -3 c6 -10 12 -33 13
-50 3 -35 2 -35 28 -19 35 22 35 -3 0 -33 -19 -15 -38 -29 -42 -29 -5 0 -8 17
-8 38 0 56 -10 82 -31 82 -11 0 -19 -7 -19 -15 0 -8 -7 -15 -15 -15 -20 0 -19
19 2 42 21 23 60 23 72 -1z m-60 -96 c17 -20 31 -43 31 -52 0 -23 -30 -53 -53
-53 -26 0 -87 66 -87 94 0 57 63 63 109 11z m-839 0 c110 -57 83 -185 -28
-135 -24 11 -50 33 -62 52 -25 41 -25 39 1 72 23 30 47 33 89 11z m719 -59 c7
-8 15 -30 18 -49 5 -32 8 -34 24 -24 32 20 34 -3 2 -35 -37 -37 -53 -30 -53
22 0 21 -3 45 -6 54 -8 20 -33 21 -40 1 -6 -15 -34 -21 -34 -7 0 4 7 18 16 30
17 25 56 29 73 8z m-817 -63 c9 -10 21 -36 28 -57 12 -39 13 -39 29 -18 11 15
20 19 30 13 11 -7 7 -18 -19 -55 -19 -25 -37 -46 -41 -46 -5 0 -13 19 -20 43
-21 76 -31 97 -49 97 -11 0 -20 -10 -24 -26 -8 -29 -29 -28 -34 2 -4 26 33 64
62 64 13 0 30 -8 38 -17z m4998 -63 c13 -24 13 -26 -6 -44 -9 -10 -33 -16 -60
-16 l-44 0 15 -24 c25 -38 0 -40 -29 -2 -37 50 -34 56 28 53 68 -3 93 15 58
41 -13 10 -20 21 -16 25 9 9 42 -10 54 -33z m75 -103 c9 -26 6 -32 -28 -63
-44 -41 -80 -44 -102 -10 -14 20 -14 29 -4 47 21 40 51 59 89 56 28 -2 37 -7
45 -30z m71 -93 c16 -24 16 -27 -3 -52 -28 -38 -64 -56 -96 -49 -50 13 -44 75
11 110 39 24 69 21 88 -9z m65 -84 c52 -28 -8 -125 -74 -118 -59 6 -62 70 -5
107 37 23 51 25 79 11z m758 -106 c26 -33 27 -56 1 -79 -19 -17 -45 -17 -108
1 -21 6 -22 5 -12 -20 13 -36 13 -38 -6 -34 -15 3 -58 97 -49 107 3 2 32 -4
64 -14 33 -10 67 -15 75 -12 20 8 21 31 1 47 -15 12 -12 30 5 30 5 0 18 -12
29 -26z m-5522 -45 c29 -25 35 -49 18 -75 -18 -28 -44 -30 -85 -9 -58 30 -72
87 -26 104 23 9 70 -1 93 -20z m5573 -89 c43 -43 13 -100 -64 -121 -49 -13
-82 0 -96 37 -27 69 106 138 160 84z m-5649 -48 l17 -32 15 22 c8 13 18 20 22
16 9 -9 -24 -88 -36 -88 -5 0 -19 21 -31 48 -26 52 -60 66 -66 24 -4 -29 -22
-18 -22 13 0 13 10 31 22 39 28 20 55 5 79 -42z m-44 -71 c58 -36 52 -101 -10
-101 -50 0 -97 36 -97 76 0 46 52 58 107 25z m5748 -26 c33 -32 31 -58 -5 -89
-59 -49 -143 -44 -156 10 -9 36 4 55 56 82 56 28 75 28 105 -3z m-6404 -28
c45 -30 58 -67 35 -102 -22 -33 -41 -21 -27 17 8 21 6 29 -10 44 -18 16 -19
16 -19 -7 0 -38 -15 -52 -51 -51 -58 1 -89 63 -52 104 23 26 82 23 124 -5z
m578 -63 c12 -15 21 -33 21 -40 0 -22 18 -16 25 7 5 15 10 18 18 10 12 -12
-15 -81 -33 -81 -5 0 -20 21 -32 48 -26 54 -58 69 -58 28 0 -16 -6 -26 -15
-26 -20 0 -20 44 1 64 23 23 50 19 73 -10z m5873 -51 c15 -15 28 -30 28 -33 0
-4 -31 -19 -69 -34 -58 -23 -68 -30 -64 -46 11 -42 -24 -18 -44 30 -22 51 -13
81 13 45 13 -17 15 -17 60 0 33 12 43 20 35 28 -15 15 -14 37 1 37 7 0 25 -12
40 -27z m-6542 -33 c61 -19 66 -19 78 -3 8 12 15 14 23 6 14 -14 -13 -108 -32
-108 -9 0 -13 9 -12 23 3 23 -9 31 -70 46 -25 6 -28 4 -22 -13 6 -21 -11 -39
-25 -25 -13 13 -24 94 -14 94 5 0 38 -9 74 -20z m29 -127 c31 -24 40 -73 16
-97 -30 -30 -114 -17 -155 24 -26 26 -26 54 1 81 17 17 30 20 66 16 25 -3 57
-14 72 -24z m-88 -153 c43 -45 49 -48 49 -21 0 24 12 32 29 22 11 -7 10 -18
-4 -60 -9 -28 -21 -51 -25 -51 -5 0 -17 12 -27 26 -10 15 -31 41 -47 57 -26
29 -29 30 -41 14 -7 -10 -11 -27 -8 -37 6 -24 -22 -28 -31 -4 -11 29 -6 54 14
74 29 29 48 25 91 -20z m518 -269 c9 -6 23 -5 37 1 34 16 56 -6 52 -50 -4 -42
-29 -62 -57 -45 -10 6 -28 9 -40 6 -28 -7 -51 13 -51 46 0 42 27 62 59 42z
m5619 -17 c27 -57 -36 -87 -92 -43 l-26 20 0 -30 c0 -36 -15 -41 -24 -8 -9 36
-7 77 5 77 6 0 24 -11 41 -25 33 -28 78 -34 78 -11 0 8 -5 18 -10 21 -11 7 -4
25 9 25 4 0 13 -12 19 -26z m12 -126 c14 -26 13 -29 -6 -48 -47 -47 -144 -30
-144 25 0 35 36 56 90 53 36 -2 47 -8 60 -30z m-5552 -20 c-3 -42 -28 -68 -28
-29 0 18 -6 21 -44 21 -39 0 -44 -2 -39 -20 8 -29 -12 -25 -25 5 -22 49 -18
53 53 47 45 -3 65 -1 65 7 0 6 5 11 11 11 6 0 9 -17 7 -42z m-30 -84 c30 -21
29 -59 -3 -80 -37 -24 -104 -9 -124 28 -14 24 -14 28 3 47 23 26 91 28 124 5z
m5584 -11 c36 -32 13 -74 -48 -87 -70 -15 -123 46 -74 86 28 23 97 24 122 1z
m-5621 -139 c13 -15 14 -15 19 5 8 37 25 19 22 -24 -2 -21 -5 -41 -8 -44 -2
-3 -21 12 -42 32 -44 43 -75 49 -70 15 4 -34 -15 -37 -27 -4 -8 24 -6 31 14
47 20 17 26 17 50 4 15 -7 34 -21 42 -31z m5637 24 c7 -7 12 -21 12 -33 0 -47
-42 -58 -96 -24 l-34 21 0 -26 c0 -14 -4 -26 -10 -26 -5 0 -10 13 -10 29 0 16
-3 36 -6 45 -9 24 17 20 56 -9 19 -14 43 -25 53 -25 16 0 19 5 14 30 -7 32 1
38 21 18z m503 -183 c53 -49 61 -52 79 -30 10 12 10 18 -1 31 -10 13 -10 17 2
25 35 22 54 -65 19 -96 -25 -23 -59 -14 -105 26 l-35 31 0 -31 c0 -22 -5 -31
-16 -31 -12 0 -15 10 -13 53 4 83 5 83 70 22z m-6773 5 c29 -11 63 -20 77 -20
18 0 25 -5 25 -20 0 -26 -21 -26 -95 0 l-58 20 7 -40 c5 -32 3 -40 -9 -40 -18
0 -22 9 -28 73 -5 56 0 57 81 27z m116 -147 c6 -45 4 -53 -10 -53 -9 0 -18 9
-21 21 -5 19 -11 20 -52 14 -55 -8 -57 -10 -42 -29 9 -11 9 -16 0 -22 -15 -9
-59 43 -59 69 0 13 8 17 38 17 65 0 114 12 108 26 -5 14 15 26 25 15 4 -3 9
-30 13 -58z m6747 8 c24 -30 24 -42 -3 -76 -19 -25 -26 -27 -76 -23 -45 4 -60
10 -79 32 -16 19 -22 35 -17 49 11 38 34 49 98 45 46 -4 63 -9 77 -27z m-6757
-112 c60 -47 18 -112 -74 -113 -61 -1 -92 24 -88 68 6 58 109 87 162 45z
m6736 -34 c24 -22 26 -62 3 -87 -12 -13 -30 -18 -68 -18 -90 0 -135 60 -84
111 18 18 30 21 75 17 33 -3 62 -12 74 -23z m-6702 -158 c2 -31 -1 -57 -6 -57
-4 0 -26 13 -49 30 -22 16 -51 31 -64 32 -22 3 -24 0 -22 -34 3 -43 -9 -48
-31 -16 -22 30 -20 61 4 83 22 20 58 15 101 -16 35 -25 36 -24 31 12 -4 26 -2
30 14 27 16 -3 20 -14 22 -61z m6557 2 c0 -44 30 -53 45 -13 l11 27 29 -28 30
-29 0 32 c0 26 4 32 21 32 19 0 21 -4 15 -37 -3 -21 -6 -46 -6 -55 0 -25 -23
-22 -50 7 -23 24 -23 24 -37 5 -17 -24 -56 -26 -77 -4 -25 25 -18 110 8 101 6
-2 11 -19 11 -38z m-568 -51 c32 -48 70 -60 66 -20 -2 14 3 22 12 22 10 0 15
-10 15 -28 0 -62 -53 -70 -99 -14 -27 32 -30 34 -31 15 0 -23 -15 -39 -24 -25
-7 11 15 92 25 92 4 0 21 -19 36 -42z m45 -118 c22 -27 23 -44 2 -64 -31 -32
-125 -9 -139 34 -3 10 -1 29 5 41 11 19 18 21 63 16 37 -3 56 -11 69 -27z
m-54 -110 c39 -24 43 -62 9 -85 -24 -15 -59 -11 -106 14 -23 13 -29 59 -9 79
18 18 69 14 106 -8z m-5323 -24 c29 -44 -13 -86 -85 -86 -33 0 -60 23 -60 51
0 25 16 25 23 -1 3 -13 14 -20 28 -20 18 0 20 3 11 12 -7 7 -12 19 -12 28 0
44 69 56 95 16z m45 -116 c14 -44 7 -64 -13 -36 -11 16 -15 16 -51 1 -31 -13
-36 -18 -25 -31 18 -22 4 -28 -25 -9 -39 26 -32 41 27 63 36 14 51 25 49 36
-6 34 26 14 38 -24z m5231 9 c21 -17 39 -37 39 -45 0 -20 -10 -17 -41 12 -30
29 -61 24 -35 -5 18 -19 12 -33 -10 -24 -8 3 -14 0 -14 -6 0 -6 -4 -11 -10
-11 -5 0 -10 7 -10 15 0 8 -7 15 -15 15 -8 0 -15 7 -15 15 0 8 9 15 20 15 13
0 22 9 26 25 8 32 18 32 65 -6z m-5199 -106 c45 -41 -8 -107 -81 -101 -63 5
-69 72 -9 101 42 21 67 21 90 0z m57 -137 c8 -20 11 -39 8 -42 -3 -3 -28 3
-56 13 -40 14 -53 15 -63 5 -10 -10 -10 -17 0 -33 19 -30 4 -38 -19 -10 -23
29 -24 45 -2 66 16 16 30 16 92 -1 21 -6 22 -5 12 14 -14 27 -14 35 1 30 7 -3
19 -21 27 -42z m5590 -113 c29 -74 71 -96 71 -37 0 36 34 28 38 -8 4 -31 -27
-68 -56 -68 -21 0 -53 32 -75 75 l-15 30 -13 -28 c-13 -30 -27 -35 -35 -13 -8
22 34 98 53 94 8 -2 23 -22 32 -45z m1 -123 c48 -34 52 -86 8 -113 -46 -30
-167 46 -153 95 4 13 14 29 24 36 22 18 83 9 121 -18z m-787 -77 c3 -10 8 -31
12 -48 9 -43 24 -58 41 -44 8 6 14 18 14 25 0 8 5 14 10 14 6 0 10 -10 10 -22
0 -24 -27 -58 -46 -58 -19 0 -54 49 -54 76 0 27 -15 32 -24 9 -5 -14 -36 -22
-36 -9 0 10 52 74 61 74 4 0 10 -8 12 -17z m690 -44 c63 -33 84 -83 50 -121
-27 -30 -92 -17 -145 30 -21 17 -24 72 -6 90 15 15 72 16 101 1z m-725 -69
c42 -26 58 -60 43 -89 -14 -26 -57 -28 -91 -4 -51 35 -63 69 -34 97 21 21 42
20 82 -4z m598 -72 c-21 -12 -21 -44 0 -52 19 -7 44 10 44 30 0 20 27 17 66
-7 l33 -20 -21 -45 c-31 -63 -48 -53 -36 20 4 26 -19 32 -27 7 -13 -42 -81
-35 -106 10 -21 40 33 121 55 82 6 -11 4 -19 -8 -25z m-675 -31 c19 -12 38
-35 44 -51 8 -24 6 -31 -14 -47 -16 -13 -31 -17 -45 -13 -55 18 -94 70 -76
104 19 35 46 37 91 7z m-91 -92 c33 -17 60 -51 60 -76 0 -22 -36 -66 -46 -56
-4 4 -2 18 5 31 18 32 4 55 -16 27 -17 -25 -40 -27 -65 -4 -25 22 -23 59 4 77
27 19 23 19 58 1z m-4886 -36 c14 -17 26 -37 26 -45 0 -24 -30 -15 -40 12 -11
28 -36 29 -54 2 -8 -13 -6 -21 7 -36 9 -10 17 -22 17 -25 0 -8 -60 -47 -72
-47 -4 0 -19 16 -34 35 -19 25 -24 39 -17 46 7 7 17 3 30 -14 14 -19 23 -23
36 -16 15 9 15 12 -1 39 -16 28 -16 30 7 54 33 35 63 33 95 -5z m773 -80 c-3
-10 3 -25 14 -35 10 -9 19 -20 19 -24 0 -14 -99 -53 -117 -45 -15 6 -9 12 32
31 34 16 44 25 34 29 -9 3 -22 5 -30 3 -13 -3 -14 2 -10 35 1 14 42 35 54 29
5 -2 7 -12 4 -23z m-694 -27 c32 -44 30 -65 -4 -44 -17 11 -26 9 -61 -17 -33
-24 -38 -32 -25 -37 10 -3 17 -15 17 -25 0 -19 -1 -19 -39 1 -22 11 -42 24
-45 29 -4 5 21 31 54 56 45 35 58 50 51 59 -12 14 -3 28 12 23 5 -1 23 -22 40
-45z m795 -45 c31 -32 34 -60 4 -35 -12 10 -20 6 -44 -22 -23 -28 -25 -36 -13
-38 8 -2 15 -10 15 -18 0 -11 -7 -13 -27 -8 -55 13 -57 24 -14 68 31 31 39 46
35 64 -9 31 7 27 44 -11z m-728 -47 c56 -30 44 -95 -25 -135 -51 -30 -69 -31
-95 -5 -41 41 -19 96 55 134 36 19 40 19 65 6z m826 -45 c20 -30 12 -57 -27
-90 -77 -64 -139 11 -68 83 38 39 72 41 95 7z m83 -75 c39 -33 34 -50 -15 -50
-63 0 -102 -40 -54 -55 22 -7 27 -25 7 -25 -28 0 -58 32 -55 58 2 23 11 30 52
42 42 14 46 17 32 29 -17 14 -22 31 -8 31 4 -1 22 -14 41 -30z m-806 -14 c43
-56 40 -61 -36 -61 -77 0 -102 -17 -67 -47 21 -17 27 -38 11 -38 -40 0 -79 57
-62 89 13 24 32 31 88 31 l45 0 -16 25 c-20 30 -20 35 -2 35 7 0 25 -15 39
-34z m3713 -338 c-16 -77 -17 -96 -8 -102 6 -3 17 1 26 10 23 22 42 7 20 -17
-19 -22 -54 -25 -72 -7 -15 15 -16 63 -2 88 10 18 8 19 -20 14 -43 -9 -38 11
8 29 52 22 55 21 48 -15z m-2349 10 c37 -13 43 -33 14 -43 -54 -17 -93 -75
-52 -75 23 0 36 -16 21 -25 -18 -11 -59 4 -70 25 -14 27 1 55 43 76 31 17 32
17 9 27 -23 11 -30 27 -10 27 6 0 27 -5 45 -12z m3373 -64 c4 -54 9 -70 22
-72 9 -2 19 5 23 17 8 27 35 27 35 1 0 -28 -35 -60 -64 -60 -35 0 -56 35 -56
94 l0 49 -23 -22 c-20 -18 -26 -19 -35 -8 -9 10 -2 20 30 45 23 18 47 31 53
29 5 -2 12 -35 15 -73z m-3243 1 c-2 -5 -12 -10 -22 -10 -12 0 -22 -13 -31
-37 -12 -35 -12 -38 7 -38 30 0 22 -18 -12 -25 -46 -10 -53 4 -29 66 14 34 18
55 11 57 -6 2 -11 10 -11 17 0 11 8 11 45 -3 25 -9 44 -21 42 -27z m2113 15
c22 -22 40 -61 40 -86 0 -16 -35 -54 -51 -54 -6 0 -24 13 -40 29 -48 49 -37
129 19 131 6 0 21 -9 32 -20z m-2016 -46 c22 -22 20 -55 -7 -95 -57 -85 -131
-10 -77 79 22 36 58 43 84 16z m1907 -14 c43 -59 29 -120 -27 -120 -46 0 -85
105 -52 138 19 19 59 10 79 -18z m1154 -15 c40 -41 52 -76 37 -110 -24 -52
-87 -39 -133 26 -29 40 -31 64 -8 92 28 37 61 34 104 -8z m-2925 -25 c0 -4
-20 -20 -45 -34 -48 -29 -63 -66 -26 -66 25 0 36 -16 16 -24 -23 -9 -63 10
-70 34 -8 24 7 45 50 72 29 18 29 18 8 24 -13 4 -23 12 -23 20 0 10 9 10 45
-3 25 -8 45 -19 45 -23z m1645 14 c10 -11 14 -25 11 -40 -4 -13 -2 -24 3 -24
5 0 13 -9 16 -21 9 -26 -20 -59 -51 -59 -24 0 -50 33 -39 50 4 6 -3 19 -16 28
-26 22 -20 54 14 70 31 15 43 14 62 -4z m1146 -71 c29 -25 59 -77 59 -103 0
-19 -40 -50 -66 -50 -34 0 -90 58 -99 102 -6 27 -3 35 19 55 35 30 47 29 87
-4z m-3914 -15 c21 -20 31 -48 17 -48 -3 0 -17 9 -32 20 -22 17 -28 19 -39 7
-14 -14 -8 -47 8 -47 22 0 6 -22 -23 -32 l-31 -11 28 -23 c45 -36 8 -43 -44
-8 -47 30 -48 45 -5 59 16 5 30 10 32 11 1 1 -3 13 -9 28 -25 55 50 89 98 44z
m93 -59 c49 -30 59 -56 16 -45 -17 4 -27 -4 -48 -37 -26 -40 -26 -42 -8 -45
32 -5 24 -32 -9 -32 -38 0 -61 9 -61 24 0 6 16 36 35 66 21 35 30 59 24 65 -9
9 -13 35 -4 35 3 0 27 -14 55 -31z m1668 19 c15 -15 16 -92 2 -119 -7 -12 -21
-19 -40 -19 -19 0 -33 7 -40 19 -14 27 -13 104 2 119 15 15 61 15 76 0z m122
2 c0 -5 -7 -10 -15 -10 -11 0 -15 -12 -15 -45 0 -34 3 -43 14 -39 25 10 26
-13 1 -30 -40 -26 -45 -20 -45 49 0 51 -3 65 -15 65 -8 0 -15 5 -15 10 0 6 20
10 45 10 25 0 45 -4 45 -10z m120 -6 c8 -8 13 -35 13 -59 0 -24 -5 -51 -13
-59 -18 -23 -67 -20 -80 3 -14 27 -13 104 2 119 17 17 63 15 78 -4z m130 5 c0
-6 -14 -27 -31 -46 -37 -43 -35 -69 5 -65 19 2 27 -1 24 -10 -6 -17 -56 -22
-74 -7 -20 16 -17 52 6 82 26 33 25 37 -5 37 -14 0 -25 5 -25 10 0 6 23 10 50
10 30 0 50 -4 50 -11z m1633 -41 c8 -18 18 -50 22 -70 4 -21 9 -38 12 -38 3 0
16 9 31 20 18 15 28 18 36 10 8 -8 0 -21 -29 -46 -22 -18 -45 -34 -52 -34 -12
0 -33 51 -33 79 0 9 -8 33 -19 53 -13 26 -15 40 -8 47 17 17 24 13 40 -21z
m-3526 -74 c18 -28 12 -64 -18 -106 -30 -42 -55 -52 -90 -38 -48 20 -51 79 -8
134 39 49 87 53 116 10z m107 -64 c55 -36 51 -53 -14 -64 -69 -11 -100 -62
-44 -70 28 -4 31 -36 4 -36 -48 0 -87 43 -75 81 4 12 28 31 57 44 47 22 49 24
29 34 -20 11 -30 41 -13 41 4 0 30 -14 56 -30z m786 -312 c0 -15 -5 -18 -19
-13 -20 6 -23 1 -36 -63 -6 -31 -5 -33 13 -28 13 4 22 1 26 -9 6 -16 -28 -35
-64 -35 -32 0 -32 7 -5 126 3 16 -1 23 -15 27 -12 3 -18 11 -15 19 5 12 16 13
60 5 44 -8 55 -14 55 -29z m1660 20 c0 -7 -12 -31 -25 -53 -39 -63 -32 -108
12 -80 21 14 24 14 30 -1 15 -39 -62 -59 -97 -24 -25 25 -25 34 0 88 l19 42
-29 0 c-39 0 -40 27 -2 33 59 9 92 7 92 -5z m-1547 -24 c25 -8 23 -38 -3 -31
-20 5 -24 -1 -34 -64 -6 -32 -4 -36 15 -35 31 1 35 -20 5 -28 -13 -3 -30 -8
-38 -11 -31 -11 -37 8 -24 78 12 63 12 69 -6 78 -30 16 -10 32 31 24 20 -3 44
-8 54 -11z m1396 -15 c28 -31 38 -102 17 -133 -45 -70 -126 -16 -126 85 0 64
67 93 109 48z m-1254 -24 c29 -28 31 -60 10 -112 -18 -42 -30 -53 -62 -53 -53
0 -78 67 -53 137 21 56 65 68 105 28z m1079 14 c26 -12 56 -72 56 -112 0 -39
-27 -67 -65 -67 -40 0 -62 26 -72 83 -10 62 5 91 54 106 1 1 13 -4 27 -10z
m-910 -39 c4 -4 -4 -19 -20 -32 -57 -48 -75 -69 -72 -86 2 -11 13 -17 32 -17
38 0 45 -22 10 -31 -40 -10 -78 14 -82 52 -2 25 4 37 32 62 43 37 44 42 11 42
-18 0 -25 5 -25 19 0 17 5 17 53 9 28 -5 56 -13 61 -18z m791 5 c0 -5 -13 -12
-30 -15 -22 -4 -31 -11 -33 -28 -3 -21 -1 -22 16 -13 25 13 49 5 62 -20 25
-46 -2 -99 -50 -99 -70 0 -102 133 -42 178 19 14 77 12 77 -3z"/>
<path d="M3749 7266 c-14 -31 -1 -53 25 -43 20 8 21 41 1 57 -12 10 -17 7 -26
-14z"/>
<path d="M3894 7265 c-8 -21 3 -45 20 -45 20 0 29 16 21 40 -7 23 -33 27 -41
5z"/>
<path d="M4990 7054 c-14 -35 -13 -36 13 -32 16 2 23 11 25 31 4 36 -25 37
-38 1z"/>
<path d="M5130 7009 c-7 -11 -9 -27 -6 -35 9 -23 35 -16 42 10 11 44 -16 63
-36 25z"/>
<path d="M1973 6723 c-10 -25 28 -87 55 -91 28 -4 29 19 2 63 -24 39 -48 51
-57 28z"/>
<path d="M4277 6623 c-10 -9 -8 -53 2 -53 5 0 14 7 21 15 20 24 -2 59 -23 38z"/>
<path d="M4397 6604 c-4 -4 -7 -18 -7 -31 0 -18 5 -24 18 -21 10 2 17 12 17
27 0 24 -15 37 -28 25z"/>
<path d="M4504 6515 c-8 -21 3 -48 19 -43 19 7 22 58 2 58 -8 0 -18 -7 -21
-15z"/>
<path d="M6061 6422 c-15 -29 7 -47 31 -25 10 9 18 22 18 30 0 20 -38 16 -49
-5z"/>
<path d="M2753 6434 c9 -54 40 -83 53 -50 8 21 -25 86 -43 86 -12 0 -14 -8
-10 -36z"/>
<path d="M6180 6330 c-24 -24 -14 -48 15 -37 20 8 30 36 17 49 -7 7 -17 3 -32
-12z"/>
<path d="M5250 6280 c-17 -32 5 -53 26 -25 8 10 13 24 11 29 -6 19 -26 17 -37
-4z"/>
<path d="M6287 6232 c-22 -24 -21 -42 2 -42 24 0 45 25 37 45 -7 20 -19 19
-39 -3z"/>
<path d="M5357 6223 c-4 -3 -7 -15 -7 -25 0 -28 34 -19 38 10 3 21 -16 31 -31
15z"/>
<path d="M5472 6158 c-14 -14 -4 -38 14 -31 15 6 19 29 6 37 -5 3 -14 0 -20
-6z"/>
<path d="M5425 6100 c-4 -6 -1 -17 5 -26 15 -18 42 0 33 22 -6 16 -29 19 -38
4z"/>
<path d="M1883 5895 c-9 -24 52 -84 68 -68 14 14 -9 56 -41 73 -16 9 -22 8
-27 -5z"/>
<path d="M1054 5858 c-8 -13 58 -78 80 -78 39 0 28 41 -19 70 -37 23 -51 25
-61 8z"/>
<path d="M6019 5597 c-37 -25 -51 -57 -24 -57 23 0 75 38 75 55 0 25 -17 25
-51 2z"/>
<path d="M6086 5489 c-30 -24 -34 -49 -7 -49 20 0 71 43 71 60 0 17 -36 11
-64 -11z"/>
<path d="M6166 5387 c-21 -17 -27 -29 -23 -41 7 -17 9 -17 35 -1 33 21 53 45
46 56 -9 15 -28 10 -58 -14z"/>
<path d="M1375 5270 c-9 -14 2 -28 37 -46 49 -26 81 1 36 30 -34 21 -65 28
-73 16z"/>
<path d="M6943 5150 c-63 -38 -30 -63 42 -31 28 12 45 26 43 33 -7 21 -51 20
-85 -2z"/>
<path d="M1265 5051 c-8 -14 44 -51 71 -51 34 0 30 26 -6 45 -33 17 -56 19
-65 6z"/>
<path d="M7010 5013 c-41 -21 -53 -53 -20 -53 36 0 91 31 88 49 -5 23 -28 24
-68 4z"/>
<path d="M585 4990 c-4 -7 -3 -16 3 -22 14 -14 57 -6 57 12 0 18 -50 26 -60
10z"/>
<path d="M510 4711 c0 -35 107 -56 118 -23 4 14 -56 42 -93 42 -18 0 -25 -5
-25 -19z"/>
<path d="M1024 4289 c-10 -17 13 -36 27 -22 12 12 4 33 -11 33 -5 0 -12 -5
-16 -11z"/>
<path d="M1090 4280 c-9 -16 -8 -22 5 -26 21 -8 39 10 32 30 -9 22 -24 20 -37
-4z"/>
<path d="M6581 4171 c-8 -5 -11 -16 -7 -26 5 -14 13 -16 44 -10 42 8 57 18 48
34 -9 13 -65 14 -85 2z"/>
<path d="M1005 4050 c-10 -16 2 -27 35 -33 35 -8 60 0 60 18 0 24 -82 36 -95
15z"/>
<path d="M6593 4043 c-7 -2 -13 -11 -13 -19 0 -23 94 -15 98 9 3 14 -4 17 -35
16 -21 0 -44 -3 -50 -6z"/>
<path d="M7164 3608 c-11 -17 26 -38 68 -38 41 0 63 24 37 41 -20 13 -97 11
-105 -3z"/>
<path d="M441 3487 c-38 -19 -30 -32 22 -35 55 -4 84 12 66 34 -14 17 -56 18
-88 1z"/>
<path d="M7153 3459 c-21 -21 5 -39 58 -39 80 0 78 38 -3 47 -27 3 -48 0 -55
-8z"/>
<path d="M6500 3145 c0 -17 39 -35 76 -35 29 0 32 25 5 40 -30 16 -81 13 -81
-5z"/>
<path d="M6465 3030 c-11 -18 22 -40 61 -40 38 0 50 12 30 29 -22 19 -82 25
-91 11z"/>
<path d="M1170 3000 c0 -22 20 -26 38 -8 19 19 14 28 -13 28 -18 0 -25 -5 -25
-20z"/>
<path d="M1232 2780 c-39 -24 -33 -45 11 -36 36 7 57 23 57 42 0 20 -30 17
-68 -6z"/>
<path d="M6850 2415 c0 -31 99 -71 114 -47 6 11 -4 25 -34 45 -31 22 -80 23
-80 2z"/>
<path d="M6792 2291 c-21 -12 -3 -37 38 -56 53 -24 93 -7 57 24 -25 20 -83 40
-95 32z"/>
<path d="M6070 2227 c0 -18 40 -54 64 -59 30 -5 30 19 0 47 -29 27 -64 33 -64
12z"/>
<path d="M5994 2128 c-9 -14 52 -71 69 -65 25 8 18 37 -15 57 -38 23 -44 24
-54 8z"/>
<path d="M5915 2030 c-8 -13 13 -40 30 -40 22 0 26 29 5 40 -23 13 -27 13 -35
0z"/>
<path d="M1173 1770 c-54 -33 -65 -82 -15 -66 27 9 75 63 68 75 -10 15 -16 14
-53 -9z"/>
<path d="M1981 1744 c-42 -53 -15 -75 32 -26 15 15 27 33 27 40 0 22 -38 12
-59 -14z"/>
<path d="M4890 1272 c0 -39 34 -82 51 -65 9 10 9 20 -2 50 -19 48 -49 57 -49
15z"/>
<path d="M2865 1230 c-8 -16 -15 -38 -15 -50 0 -33 30 -23 46 16 25 60 -2 90
-31 34z"/>
<path d="M4770 1230 c0 -12 7 -34 15 -50 29 -56 56 -26 31 34 -16 39 -46 49
-46 16z"/>
<path d="M5905 1219 c-11 -16 43 -89 65 -89 28 0 26 32 -6 69 -26 32 -48 39
-59 20z"/>
<path d="M4645 1200 c-4 -7 -3 -16 3 -22 14 -14 45 -2 40 15 -6 16 -34 21 -43
7z"/>
<path d="M4673 1134 c-7 -19 11 -39 26 -30 16 10 13 33 -4 40 -9 3 -18 -1 -22
-10z"/>
<path d="M5785 1130 c-17 -27 55 -114 76 -93 14 14 4 44 -26 77 -26 28 -40 32
-50 16z"/>
<path d="M3647 1084 c-10 -11 -9 -92 2 -98 16 -10 32 22 29 60 -3 36 -16 52
-31 38z"/>
<path d="M3884 1077 c-11 -29 0 -92 16 -92 11 0 15 12 15 49 0 49 -19 74 -31
43z"/>
<path d="M2108 963 c-37 -43 -50 -93 -23 -93 20 0 69 76 61 95 -7 20 -19 19
-38 -2z"/>
<path d="M4514 565 c-7 -17 2 -74 15 -94 5 -8 16 -11 26 -7 14 5 16 14 11 48
-10 60 -39 89 -52 53z"/>
<path d="M3265 527 c-18 -43 -19 -83 -3 -93 29 -18 61 88 34 114 -14 14 -17
12 -31 -21z"/>
<path d="M4365 539 c-12 -18 5 -100 22 -106 30 -12 37 28 17 100 -6 19 -29 23
-39 6z"/>
<path d="M4231 456 c-9 -11 -10 -20 -1 -36 13 -25 34 -22 38 7 4 28 -21 48
-37 29z"/>
</g>
</svg>
