<?xml version="1.0" encoding="UTF-8"?>
<svg id="Livello_1" data-name="Livello 1" xmlns="http://www.w3.org/2000/svg" version="1.1" viewBox="0 0 704.5 1000">
  <defs>
    <style>
      .cls-1 {
        fill: #fff;
      }

      .cls-1, .cls-2 {
        stroke-width: 0px;
      }

      .cls-2 {
        fill: #ef7876;
      }
    </style>
  </defs>
  <path class="cls-2" d="M691.5,397.2c-4.1,23.4-10.9,46.7-20.2,70-2.3,5.8-4.7,11.5-7.1,17.3-15.4,37-32.5,73.1-51,108.5-6.3,11.8-12.7,23.4-19.2,35.1-18.3,32.8-37.4,65-57.1,96.8-10.6,17-21.4,34-32.3,50.8-.2.2-.3.5-.5.7-44.4,68.1-152.1,215.3-152.1,215.3,0,0-108.1-147.8-152.6-216.1,0,0,0,0,0,0-11.2-17.2-22.2-34.6-33.1-52-19.5-31.4-38.3-63.2-56.3-95.5-6.5-11.6-12.9-23.3-19.2-35.1-18.4-35.3-35.4-71.3-50.8-108.2,0,0,0-.2,0-.2-2.4-5.8-4.8-11.6-7.1-17.4-9.3-23.3-16.1-46.6-20.2-70-4.5-25.5-5.8-51-3.8-76.6,2.2-28.3,8.4-56.7,18.8-85.1C78.2,96.6,205.4,9.1,349.6,8.3c1.7,0,3.3,0,5,0,144.2.8,271.4,88.3,322,227.1,10.4,28.5,16.6,56.9,18.8,85.2,2,25.6.7,51.1-3.8,76.6Z"/>
  <polygon class="cls-1" points="352.3 144.6 424.7 281.8 577.6 308.3 469.5 419.5 491.5 573.1 352.3 504.7 213.1 573.1 235.2 419.5 127.1 308.3 279.9 281.8 352.3 144.6"/>
</svg>