<?xml version="1.0" encoding="UTF-8"?>
<svg id="Livello_2" data-name="Livello 2" xmlns="http://www.w3.org/2000/svg" version="1.1" xmlns:xlink="http://www.w3.org/1999/xlink" viewBox="0 0 198.5 231">
  <defs>
    <style>
      .cls-1 {
        fill: none;
      }

      .cls-1, .cls-2, .cls-3, .cls-4, .cls-5, .cls-6, .cls-7 {
        stroke-width: 0px;
      }

      .cls-2 {
        fill: #ef7978;
      }

      .cls-3 {
        fill: #f7be27;
      }

      .cls-8 {
        clip-path: url(#clippath);
      }

      .cls-4 {
        fill: #19b7ca;
      }

      .cls-5 {
        fill: #fff;
      }

      .cls-6 {
        fill: #f5a147;
      }

      .cls-7 {
        fill: #63b262;
      }
    </style>
    <clipPath id="clippath">
      <path class="cls-1" d="M177.9,91.9c-1,5.4-2.5,10.8-4.7,16.2-.5,1.3-1.1,2.7-1.6,4-3.6,8.6-7.5,16.9-11.8,25.2-1.5,2.7-2.9,5.4-4.5,8.1-4.2,7.6-8.7,15.1-13.2,22.4-2.5,3.9-5,7.9-7.5,11.8,0,0,0,.1-.1.2-10.3,15.8-35.3,49.9-35.3,49.9,0,0-25.1-34.3-35.4-50.1-2.6-4-5.1-8-7.7-12.1-4.5-7.3-8.9-14.7-13.1-22.1l-4.5-8.1c-4.3-8.2-8.2-16.5-11.8-25.1-.6-1.4-1.1-2.7-1.6-4.1-2.2-5.4-3.7-10.8-4.7-16.2-1-5.9-1.3-11.8-.9-17.8.5-6.6,1.9-13.1,4.4-19.7C35.7,22.2,65.2,1.9,98.7,1.8h1.2c33.4.2,62.9,20.5,74.7,52.7,2.4,6.6,3.8,13.2,4.4,19.8.5,5.9.2,11.8-.9,17.8l-.2-.2Z"/>
    </clipPath>
  </defs>
  <g class="cls-8">
    <g>
      <g>
        <rect class="cls-3" x="-37.5" y=".6" width="191.4" height="94.1" transform="translate(-16.7 55.1) rotate(-45)"/>
        <rect class="cls-4" x="31.8" y="73.2" width="208.1" height="107" transform="translate(-49.8 133.2) rotate(-45)"/>
        <rect class="cls-7" x="97.2" y="82.2" width="75.1" height="128.9" transform="translate(-64.2 138.2) rotate(-45)"/>
        <rect class="cls-2" x="-10.2" y="78.2" width="208.9" height="14.7" transform="translate(-32.9 91.7) rotate(-45)"/>
        <rect class="cls-6" x="136.7" y="44.8" width="15.4" height="101" transform="translate(-25.1 130) rotate(-45)"/>
      </g>
      <path class="cls-5" d="M109.6,104.4v35.1h-19v-35L58.4,40.4h20.7l14.6,30.6,6.7,15,6.7-15.5,15.2-30.2h19.9l-32.5,64Z"/>
    </g>
  </g>
</svg>