<?xml version="1.0" standalone="no"?>
<svg xmlns="http://www.w3.org/2000/svg" width="500" height="500"><defs><clipPath id="clip-path-dot-color"><rect x="28" y="124" width="12" height="12" transform="rotate(0,34,130)"/><rect x="28" y="136" width="12" height="12" transform="rotate(0,34,142)"/><rect x="28" y="148" width="12" height="12" transform="rotate(0,34,154)"/><rect x="28" y="172" width="12" height="12" transform="rotate(0,34,178)"/><rect x="28" y="184" width="12" height="12" transform="rotate(0,34,190)"/><rect x="28" y="196" width="12" height="12" transform="rotate(0,34,202)"/><rect x="28" y="244" width="12" height="12" transform="rotate(0,34,250)"/><rect x="28" y="256" width="12" height="12" transform="rotate(0,34,262)"/><rect x="28" y="316" width="12" height="12" transform="rotate(0,34,322)"/><rect x="28" y="340" width="12" height="12" transform="rotate(0,34,346)"/><rect x="28" y="352" width="12" height="12" transform="rotate(0,34,358)"/><rect x="40" y="136" width="12" height="12" transform="rotate(0,46,142)"/><rect x="40" y="160" width="12" height="12" transform="rotate(0,46,166)"/><rect x="40" y="196" width="12" height="12" transform="rotate(0,46,202)"/><rect x="40" y="292" width="12" height="12" transform="rotate(0,46,298)"/><rect x="40" y="304" width="12" height="12" transform="rotate(0,46,310)"/><rect x="40" y="316" width="12" height="12" transform="rotate(0,46,322)"/><rect x="40" y="328" width="12" height="12" transform="rotate(0,46,334)"/><rect x="40" y="352" width="12" height="12" transform="rotate(0,46,358)"/><rect x="40" y="364" width="12" height="12" transform="rotate(0,46,370)"/><rect x="52" y="124" width="12" height="12" transform="rotate(0,58,130)"/><rect x="52" y="172" width="12" height="12" transform="rotate(0,58,178)"/><rect x="52" y="184" width="12" height="12" transform="rotate(0,58,190)"/><rect x="52" y="196" width="12" height="12" transform="rotate(0,58,202)"/><rect x="52" y="232" width="12" height="12" transform="rotate(0,58,238)"/><rect x="52" y="304" width="12" height="12" transform="rotate(0,58,310)"/><rect x="52" y="316" width="12" height="12" transform="rotate(0,58,322)"/><rect x="64" y="124" width="12" height="12" transform="rotate(0,70,130)"/><rect x="64" y="136" width="12" height="12" transform="rotate(0,70,142)"/><rect x="64" y="172" width="12" height="12" transform="rotate(0,70,178)"/><rect x="64" y="184" width="12" height="12" transform="rotate(0,70,190)"/><rect x="64" y="196" width="12" height="12" transform="rotate(0,70,202)"/><rect x="64" y="220" width="12" height="12" transform="rotate(0,70,226)"/><rect x="64" y="232" width="12" height="12" transform="rotate(0,70,238)"/><rect x="64" y="256" width="12" height="12" transform="rotate(0,70,262)"/><rect x="64" y="292" width="12" height="12" transform="rotate(0,70,298)"/><rect x="64" y="304" width="12" height="12" transform="rotate(0,70,310)"/><rect x="64" y="328" width="12" height="12" transform="rotate(0,70,334)"/><rect x="64" y="340" width="12" height="12" transform="rotate(0,70,346)"/><rect x="76" y="136" width="12" height="12" transform="rotate(0,82,142)"/><rect x="76" y="160" width="12" height="12" transform="rotate(0,82,166)"/><rect x="76" y="196" width="12" height="12" transform="rotate(0,82,202)"/><rect x="76" y="208" width="12" height="12" transform="rotate(0,82,214)"/><rect x="76" y="244" width="12" height="12" transform="rotate(0,82,250)"/><rect x="76" y="268" width="12" height="12" transform="rotate(0,82,274)"/><rect x="76" y="304" width="12" height="12" transform="rotate(0,82,310)"/><rect x="76" y="328" width="12" height="12" transform="rotate(0,82,334)"/><rect x="76" y="340" width="12" height="12" transform="rotate(0,82,346)"/><rect x="76" y="352" width="12" height="12" transform="rotate(0,82,358)"/><rect x="88" y="124" width="12" height="12" transform="rotate(0,94,130)"/><rect x="88" y="160" width="12" height="12" transform="rotate(0,94,166)"/><rect x="88" y="172" width="12" height="12" transform="rotate(0,94,178)"/><rect x="88" y="184" width="12" height="12" transform="rotate(0,94,190)"/><rect x="88" y="196" width="12" height="12" transform="rotate(0,94,202)"/><rect x="88" y="208" width="12" height="12" transform="rotate(0,94,214)"/><rect x="88" y="220" width="12" height="12" transform="rotate(0,94,226)"/><rect x="88" y="244" width="12" height="12" transform="rotate(0,94,250)"/><rect x="88" y="256" width="12" height="12" transform="rotate(0,94,262)"/><rect x="88" y="280" width="12" height="12" transform="rotate(0,94,286)"/><rect x="88" y="292" width="12" height="12" transform="rotate(0,94,298)"/><rect x="88" y="316" width="12" height="12" transform="rotate(0,94,322)"/><rect x="88" y="328" width="12" height="12" transform="rotate(0,94,334)"/><rect x="88" y="340" width="12" height="12" transform="rotate(0,94,346)"/><rect x="88" y="352" width="12" height="12" transform="rotate(0,94,358)"/><rect x="88" y="364" width="12" height="12" transform="rotate(0,94,370)"/><rect x="100" y="124" width="12" height="12" transform="rotate(0,106,130)"/><rect x="100" y="148" width="12" height="12" transform="rotate(0,106,154)"/><rect x="100" y="172" width="12" height="12" transform="rotate(0,106,178)"/><rect x="100" y="196" width="12" height="12" transform="rotate(0,106,202)"/><rect x="100" y="220" width="12" height="12" transform="rotate(0,106,226)"/><rect x="100" y="244" width="12" height="12" transform="rotate(0,106,250)"/><rect x="100" y="268" width="12" height="12" transform="rotate(0,106,274)"/><rect x="100" y="292" width="12" height="12" transform="rotate(0,106,298)"/><rect x="100" y="316" width="12" height="12" transform="rotate(0,106,322)"/><rect x="100" y="340" width="12" height="12" transform="rotate(0,106,346)"/><rect x="100" y="364" width="12" height="12" transform="rotate(0,106,370)"/><rect x="112" y="124" width="12" height="12" transform="rotate(0,118,130)"/><rect x="112" y="148" width="12" height="12" transform="rotate(0,118,154)"/><rect x="112" y="172" width="12" height="12" transform="rotate(0,118,178)"/><rect x="112" y="208" width="12" height="12" transform="rotate(0,118,214)"/><rect x="112" y="232" width="12" height="12" transform="rotate(0,118,238)"/><rect x="112" y="280" width="12" height="12" transform="rotate(0,118,286)"/><rect x="112" y="292" width="12" height="12" transform="rotate(0,118,298)"/><rect x="112" y="340" width="12" height="12" transform="rotate(0,118,346)"/><rect x="124" y="40" width="12" height="12" transform="rotate(0,130,46)"/><rect x="124" y="64" width="12" height="12" transform="rotate(0,130,70)"/><rect x="124" y="88" width="12" height="12" transform="rotate(0,130,94)"/><rect x="124" y="100" width="12" height="12" transform="rotate(0,130,106)"/><rect x="124" y="112" width="12" height="12" transform="rotate(0,130,118)"/><rect x="124" y="124" width="12" height="12" transform="rotate(0,130,130)"/><rect x="124" y="136" width="12" height="12" transform="rotate(0,130,142)"/><rect x="124" y="148" width="12" height="12" transform="rotate(0,130,154)"/><rect x="124" y="172" width="12" height="12" transform="rotate(0,130,178)"/><rect x="124" y="184" width="12" height="12" transform="rotate(0,130,190)"/><rect x="124" y="196" width="12" height="12" transform="rotate(0,130,202)"/><rect x="124" y="220" width="12" height="12" transform="rotate(0,130,226)"/><rect x="124" y="232" width="12" height="12" transform="rotate(0,130,238)"/><rect x="124" y="244" width="12" height="12" transform="rotate(0,130,250)"/><rect x="124" y="256" width="12" height="12" transform="rotate(0,130,262)"/><rect x="124" y="280" width="12" height="12" transform="rotate(0,130,286)"/><rect x="124" y="304" width="12" height="12" transform="rotate(0,130,310)"/><rect x="124" y="316" width="12" height="12" transform="rotate(0,130,322)"/><rect x="124" y="352" width="12" height="12" transform="rotate(0,130,358)"/><rect x="124" y="364" width="12" height="12" transform="rotate(0,130,370)"/><rect x="124" y="376" width="12" height="12" transform="rotate(0,130,382)"/><rect x="124" y="388" width="12" height="12" transform="rotate(0,130,394)"/><rect x="124" y="400" width="12" height="12" transform="rotate(0,130,406)"/><rect x="124" y="424" width="12" height="12" transform="rotate(0,130,430)"/><rect x="124" y="436" width="12" height="12" transform="rotate(0,130,442)"/><rect x="124" y="460" width="12" height="12" transform="rotate(0,130,466)"/><rect x="136" y="52" width="12" height="12" transform="rotate(0,142,58)"/><rect x="136" y="64" width="12" height="12" transform="rotate(0,142,70)"/><rect x="136" y="88" width="12" height="12" transform="rotate(0,142,94)"/><rect x="136" y="112" width="12" height="12" transform="rotate(0,142,118)"/><rect x="136" y="124" width="12" height="12" transform="rotate(0,142,130)"/><rect x="136" y="244" width="12" height="12" transform="rotate(0,142,250)"/><rect x="136" y="256" width="12" height="12" transform="rotate(0,142,262)"/><rect x="136" y="268" width="12" height="12" transform="rotate(0,142,274)"/><rect x="136" y="316" width="12" height="12" transform="rotate(0,142,322)"/><rect x="136" y="340" width="12" height="12" transform="rotate(0,142,346)"/><rect x="136" y="352" width="12" height="12" transform="rotate(0,142,358)"/><rect x="136" y="364" width="12" height="12" transform="rotate(0,142,370)"/><rect x="136" y="400" width="12" height="12" transform="rotate(0,142,406)"/><rect x="136" y="436" width="12" height="12" transform="rotate(0,142,442)"/><rect x="136" y="448" width="12" height="12" transform="rotate(0,142,454)"/><rect x="136" y="460" width="12" height="12" transform="rotate(0,142,466)"/><rect x="148" y="52" width="12" height="12" transform="rotate(0,154,58)"/><rect x="148" y="64" width="12" height="12" transform="rotate(0,154,70)"/><rect x="148" y="76" width="12" height="12" transform="rotate(0,154,82)"/><rect x="148" y="100" width="12" height="12" transform="rotate(0,154,106)"/><rect x="148" y="136" width="12" height="12" transform="rotate(0,154,142)"/><rect x="148" y="148" width="12" height="12" transform="rotate(0,154,154)"/><rect x="148" y="160" width="12" height="12" transform="rotate(0,154,166)"/><rect x="148" y="172" width="12" height="12" transform="rotate(0,154,178)"/><rect x="148" y="184" width="12" height="12" transform="rotate(0,154,190)"/><rect x="148" y="208" width="12" height="12" transform="rotate(0,154,214)"/><rect x="148" y="220" width="12" height="12" transform="rotate(0,154,226)"/><rect x="148" y="232" width="12" height="12" transform="rotate(0,154,238)"/><rect x="148" y="256" width="12" height="12" transform="rotate(0,154,262)"/><rect x="148" y="268" width="12" height="12" transform="rotate(0,154,274)"/><rect x="148" y="280" width="12" height="12" transform="rotate(0,154,286)"/><rect x="148" y="292" width="12" height="12" transform="rotate(0,154,298)"/><rect x="148" y="316" width="12" height="12" transform="rotate(0,154,322)"/><rect x="148" y="352" width="12" height="12" transform="rotate(0,154,358)"/><rect x="148" y="388" width="12" height="12" transform="rotate(0,154,394)"/><rect x="148" y="412" width="12" height="12" transform="rotate(0,154,418)"/><rect x="148" y="424" width="12" height="12" transform="rotate(0,154,430)"/><rect x="148" y="448" width="12" height="12" transform="rotate(0,154,454)"/><rect x="148" y="460" width="12" height="12" transform="rotate(0,154,466)"/><rect x="160" y="28" width="12" height="12" transform="rotate(0,166,34)"/><rect x="160" y="52" width="12" height="12" transform="rotate(0,166,58)"/><rect x="160" y="112" width="12" height="12" transform="rotate(0,166,118)"/><rect x="160" y="124" width="12" height="12" transform="rotate(0,166,130)"/><rect x="160" y="136" width="12" height="12" transform="rotate(0,166,142)"/><rect x="160" y="148" width="12" height="12" transform="rotate(0,166,154)"/><rect x="160" y="160" width="12" height="12" transform="rotate(0,166,166)"/><rect x="160" y="196" width="12" height="12" transform="rotate(0,166,202)"/><rect x="160" y="208" width="12" height="12" transform="rotate(0,166,214)"/><rect x="160" y="220" width="12" height="12" transform="rotate(0,166,226)"/><rect x="160" y="244" width="12" height="12" transform="rotate(0,166,250)"/><rect x="160" y="280" width="12" height="12" transform="rotate(0,166,286)"/><rect x="160" y="292" width="12" height="12" transform="rotate(0,166,298)"/><rect x="160" y="304" width="12" height="12" transform="rotate(0,166,310)"/><rect x="160" y="316" width="12" height="12" transform="rotate(0,166,322)"/><rect x="160" y="328" width="12" height="12" transform="rotate(0,166,334)"/><rect x="160" y="364" width="12" height="12" transform="rotate(0,166,370)"/><rect x="160" y="400" width="12" height="12" transform="rotate(0,166,406)"/><rect x="160" y="412" width="12" height="12" transform="rotate(0,166,418)"/><rect x="160" y="448" width="12" height="12" transform="rotate(0,166,454)"/><rect x="160" y="460" width="12" height="12" transform="rotate(0,166,466)"/><rect x="172" y="52" width="12" height="12" transform="rotate(0,178,58)"/><rect x="172" y="88" width="12" height="12" transform="rotate(0,178,94)"/><rect x="172" y="100" width="12" height="12" transform="rotate(0,178,106)"/><rect x="172" y="112" width="12" height="12" transform="rotate(0,178,118)"/><rect x="172" y="136" width="12" height="12" transform="rotate(0,178,142)"/><rect x="172" y="160" width="12" height="12" transform="rotate(0,178,166)"/><rect x="172" y="184" width="12" height="12" transform="rotate(0,178,190)"/><rect x="172" y="208" width="12" height="12" transform="rotate(0,178,214)"/><rect x="172" y="220" width="12" height="12" transform="rotate(0,178,226)"/><rect x="172" y="232" width="12" height="12" transform="rotate(0,178,238)"/><rect x="172" y="268" width="12" height="12" transform="rotate(0,178,274)"/><rect x="172" y="280" width="12" height="12" transform="rotate(0,178,286)"/><rect x="172" y="292" width="12" height="12" transform="rotate(0,178,298)"/><rect x="172" y="304" width="12" height="12" transform="rotate(0,178,310)"/><rect x="172" y="328" width="12" height="12" transform="rotate(0,178,334)"/><rect x="172" y="352" width="12" height="12" transform="rotate(0,178,358)"/><rect x="172" y="376" width="12" height="12" transform="rotate(0,178,382)"/><rect x="172" y="388" width="12" height="12" transform="rotate(0,178,394)"/><rect x="172" y="448" width="12" height="12" transform="rotate(0,178,454)"/><rect x="184" y="88" width="12" height="12" transform="rotate(0,190,94)"/><rect x="184" y="124" width="12" height="12" transform="rotate(0,190,130)"/><rect x="184" y="136" width="12" height="12" transform="rotate(0,190,142)"/><rect x="184" y="160" width="12" height="12" transform="rotate(0,190,166)"/><rect x="184" y="172" width="12" height="12" transform="rotate(0,190,178)"/><rect x="184" y="184" width="12" height="12" transform="rotate(0,190,190)"/><rect x="184" y="244" width="12" height="12" transform="rotate(0,190,250)"/><rect x="184" y="292" width="12" height="12" transform="rotate(0,190,298)"/><rect x="184" y="316" width="12" height="12" transform="rotate(0,190,322)"/><rect x="184" y="340" width="12" height="12" transform="rotate(0,190,346)"/><rect x="184" y="364" width="12" height="12" transform="rotate(0,190,370)"/><rect x="184" y="388" width="12" height="12" transform="rotate(0,190,394)"/><rect x="184" y="400" width="12" height="12" transform="rotate(0,190,406)"/><rect x="184" y="424" width="12" height="12" transform="rotate(0,190,430)"/><rect x="184" y="460" width="12" height="12" transform="rotate(0,190,466)"/><rect x="196" y="28" width="12" height="12" transform="rotate(0,202,34)"/><rect x="196" y="52" width="12" height="12" transform="rotate(0,202,58)"/><rect x="196" y="76" width="12" height="12" transform="rotate(0,202,82)"/><rect x="196" y="100" width="12" height="12" transform="rotate(0,202,106)"/><rect x="196" y="112" width="12" height="12" transform="rotate(0,202,118)"/><rect x="196" y="124" width="12" height="12" transform="rotate(0,202,130)"/><rect x="196" y="148" width="12" height="12" transform="rotate(0,202,154)"/><rect x="196" y="160" width="12" height="12" transform="rotate(0,202,166)"/><rect x="196" y="172" width="12" height="12" transform="rotate(0,202,178)"/><rect x="196" y="196" width="12" height="12" transform="rotate(0,202,202)"/><rect x="196" y="244" width="12" height="12" transform="rotate(0,202,250)"/><rect x="196" y="256" width="12" height="12" transform="rotate(0,202,262)"/><rect x="196" y="268" width="12" height="12" transform="rotate(0,202,274)"/><rect x="196" y="280" width="12" height="12" transform="rotate(0,202,286)"/><rect x="196" y="304" width="12" height="12" transform="rotate(0,202,310)"/><rect x="196" y="328" width="12" height="12" transform="rotate(0,202,334)"/><rect x="196" y="340" width="12" height="12" transform="rotate(0,202,346)"/><rect x="196" y="376" width="12" height="12" transform="rotate(0,202,382)"/><rect x="196" y="400" width="12" height="12" transform="rotate(0,202,406)"/><rect x="196" y="436" width="12" height="12" transform="rotate(0,202,442)"/><rect x="196" y="460" width="12" height="12" transform="rotate(0,202,466)"/><rect x="208" y="52" width="12" height="12" transform="rotate(0,214,58)"/><rect x="208" y="64" width="12" height="12" transform="rotate(0,214,70)"/><rect x="208" y="112" width="12" height="12" transform="rotate(0,214,118)"/><rect x="208" y="124" width="12" height="12" transform="rotate(0,214,130)"/><rect x="208" y="136" width="12" height="12" transform="rotate(0,214,142)"/><rect x="208" y="148" width="12" height="12" transform="rotate(0,214,154)"/><rect x="208" y="184" width="12" height="12" transform="rotate(0,214,190)"/><rect x="208" y="196" width="12" height="12" transform="rotate(0,214,202)"/><rect x="208" y="208" width="12" height="12" transform="rotate(0,214,214)"/><rect x="208" y="220" width="12" height="12" transform="rotate(0,214,226)"/><rect x="208" y="232" width="12" height="12" transform="rotate(0,214,238)"/><rect x="208" y="244" width="12" height="12" transform="rotate(0,214,250)"/><rect x="208" y="256" width="12" height="12" transform="rotate(0,214,262)"/><rect x="208" y="268" width="12" height="12" transform="rotate(0,214,274)"/><rect x="208" y="304" width="12" height="12" transform="rotate(0,214,310)"/><rect x="208" y="328" width="12" height="12" transform="rotate(0,214,334)"/><rect x="208" y="352" width="12" height="12" transform="rotate(0,214,358)"/><rect x="208" y="412" width="12" height="12" transform="rotate(0,214,418)"/><rect x="220" y="28" width="12" height="12" transform="rotate(0,226,34)"/><rect x="220" y="52" width="12" height="12" transform="rotate(0,226,58)"/><rect x="220" y="64" width="12" height="12" transform="rotate(0,226,70)"/><rect x="220" y="100" width="12" height="12" transform="rotate(0,226,106)"/><rect x="220" y="112" width="12" height="12" transform="rotate(0,226,118)"/><rect x="220" y="124" width="12" height="12" transform="rotate(0,226,130)"/><rect x="220" y="244" width="12" height="12" transform="rotate(0,226,250)"/><rect x="220" y="292" width="12" height="12" transform="rotate(0,226,298)"/><rect x="220" y="316" width="12" height="12" transform="rotate(0,226,322)"/><rect x="220" y="340" width="12" height="12" transform="rotate(0,226,346)"/><rect x="220" y="388" width="12" height="12" transform="rotate(0,226,394)"/><rect x="220" y="400" width="12" height="12" transform="rotate(0,226,406)"/><rect x="220" y="424" width="12" height="12" transform="rotate(0,226,430)"/><rect x="220" y="436" width="12" height="12" transform="rotate(0,226,442)"/><rect x="220" y="448" width="12" height="12" transform="rotate(0,226,454)"/><rect x="220" y="460" width="12" height="12" transform="rotate(0,226,466)"/><rect x="232" y="28" width="12" height="12" transform="rotate(0,238,34)"/><rect x="232" y="88" width="12" height="12" transform="rotate(0,238,94)"/><rect x="232" y="112" width="12" height="12" transform="rotate(0,238,118)"/><rect x="232" y="184" width="12" height="12" transform="rotate(0,238,190)"/><rect x="232" y="220" width="12" height="12" transform="rotate(0,238,226)"/><rect x="232" y="280" width="12" height="12" transform="rotate(0,238,286)"/><rect x="232" y="316" width="12" height="12" transform="rotate(0,238,322)"/><rect x="232" y="364" width="12" height="12" transform="rotate(0,238,370)"/><rect x="232" y="388" width="12" height="12" transform="rotate(0,238,394)"/><rect x="232" y="412" width="12" height="12" transform="rotate(0,238,418)"/><rect x="232" y="424" width="12" height="12" transform="rotate(0,238,430)"/><rect x="232" y="460" width="12" height="12" transform="rotate(0,238,466)"/><rect x="244" y="40" width="12" height="12" transform="rotate(0,250,46)"/><rect x="244" y="64" width="12" height="12" transform="rotate(0,250,70)"/><rect x="244" y="76" width="12" height="12" transform="rotate(0,250,82)"/><rect x="244" y="88" width="12" height="12" transform="rotate(0,250,94)"/><rect x="244" y="100" width="12" height="12" transform="rotate(0,250,106)"/><rect x="244" y="148" width="12" height="12" transform="rotate(0,250,154)"/><rect x="244" y="160" width="12" height="12" transform="rotate(0,250,166)"/><rect x="244" y="172" width="12" height="12" transform="rotate(0,250,178)"/><rect x="244" y="184" width="12" height="12" transform="rotate(0,250,190)"/><rect x="244" y="232" width="12" height="12" transform="rotate(0,250,238)"/><rect x="244" y="244" width="12" height="12" transform="rotate(0,250,250)"/><rect x="244" y="256" width="12" height="12" transform="rotate(0,250,262)"/><rect x="244" y="280" width="12" height="12" transform="rotate(0,250,286)"/><rect x="244" y="292" width="12" height="12" transform="rotate(0,250,298)"/><rect x="244" y="304" width="12" height="12" transform="rotate(0,250,310)"/><rect x="244" y="316" width="12" height="12" transform="rotate(0,250,322)"/><rect x="244" y="328" width="12" height="12" transform="rotate(0,250,334)"/><rect x="244" y="376" width="12" height="12" transform="rotate(0,250,382)"/><rect x="244" y="412" width="12" height="12" transform="rotate(0,250,418)"/><rect x="244" y="448" width="12" height="12" transform="rotate(0,250,454)"/><rect x="244" y="460" width="12" height="12" transform="rotate(0,250,466)"/><rect x="256" y="52" width="12" height="12" transform="rotate(0,262,58)"/><rect x="256" y="64" width="12" height="12" transform="rotate(0,262,70)"/><rect x="256" y="88" width="12" height="12" transform="rotate(0,262,94)"/><rect x="256" y="112" width="12" height="12" transform="rotate(0,262,118)"/><rect x="256" y="136" width="12" height="12" transform="rotate(0,262,142)"/><rect x="256" y="148" width="12" height="12" transform="rotate(0,262,154)"/><rect x="256" y="172" width="12" height="12" transform="rotate(0,262,178)"/><rect x="256" y="196" width="12" height="12" transform="rotate(0,262,202)"/><rect x="256" y="208" width="12" height="12" transform="rotate(0,262,214)"/><rect x="256" y="232" width="12" height="12" transform="rotate(0,262,238)"/><rect x="256" y="244" width="12" height="12" transform="rotate(0,262,250)"/><rect x="256" y="256" width="12" height="12" transform="rotate(0,262,262)"/><rect x="256" y="280" width="12" height="12" transform="rotate(0,262,286)"/><rect x="256" y="316" width="12" height="12" transform="rotate(0,262,322)"/><rect x="256" y="364" width="12" height="12" transform="rotate(0,262,370)"/><rect x="256" y="376" width="12" height="12" transform="rotate(0,262,382)"/><rect x="256" y="400" width="12" height="12" transform="rotate(0,262,406)"/><rect x="256" y="436" width="12" height="12" transform="rotate(0,262,442)"/><rect x="256" y="460" width="12" height="12" transform="rotate(0,262,466)"/><rect x="268" y="28" width="12" height="12" transform="rotate(0,274,34)"/><rect x="268" y="40" width="12" height="12" transform="rotate(0,274,46)"/><rect x="268" y="52" width="12" height="12" transform="rotate(0,274,58)"/><rect x="268" y="64" width="12" height="12" transform="rotate(0,274,70)"/><rect x="268" y="76" width="12" height="12" transform="rotate(0,274,82)"/><rect x="268" y="88" width="12" height="12" transform="rotate(0,274,94)"/><rect x="268" y="100" width="12" height="12" transform="rotate(0,274,106)"/><rect x="268" y="112" width="12" height="12" transform="rotate(0,274,118)"/><rect x="268" y="148" width="12" height="12" transform="rotate(0,274,154)"/><rect x="268" y="184" width="12" height="12" transform="rotate(0,274,190)"/><rect x="268" y="196" width="12" height="12" transform="rotate(0,274,202)"/><rect x="268" y="208" width="12" height="12" transform="rotate(0,274,214)"/><rect x="268" y="232" width="12" height="12" transform="rotate(0,274,238)"/><rect x="268" y="244" width="12" height="12" transform="rotate(0,274,250)"/><rect x="268" y="256" width="12" height="12" transform="rotate(0,274,262)"/><rect x="268" y="268" width="12" height="12" transform="rotate(0,274,274)"/><rect x="268" y="280" width="12" height="12" transform="rotate(0,274,286)"/><rect x="268" y="328" width="12" height="12" transform="rotate(0,274,334)"/><rect x="268" y="340" width="12" height="12" transform="rotate(0,274,346)"/><rect x="268" y="364" width="12" height="12" transform="rotate(0,274,370)"/><rect x="268" y="376" width="12" height="12" transform="rotate(0,274,382)"/><rect x="268" y="388" width="12" height="12" transform="rotate(0,274,394)"/><rect x="268" y="400" width="12" height="12" transform="rotate(0,274,406)"/><rect x="268" y="412" width="12" height="12" transform="rotate(0,274,418)"/><rect x="280" y="28" width="12" height="12" transform="rotate(0,286,34)"/><rect x="280" y="112" width="12" height="12" transform="rotate(0,286,118)"/><rect x="280" y="124" width="12" height="12" transform="rotate(0,286,130)"/><rect x="280" y="136" width="12" height="12" transform="rotate(0,286,142)"/><rect x="280" y="172" width="12" height="12" transform="rotate(0,286,178)"/><rect x="280" y="184" width="12" height="12" transform="rotate(0,286,190)"/><rect x="280" y="196" width="12" height="12" transform="rotate(0,286,202)"/><rect x="280" y="208" width="12" height="12" transform="rotate(0,286,214)"/><rect x="280" y="220" width="12" height="12" transform="rotate(0,286,226)"/><rect x="280" y="232" width="12" height="12" transform="rotate(0,286,238)"/><rect x="280" y="244" width="12" height="12" transform="rotate(0,286,250)"/><rect x="280" y="268" width="12" height="12" transform="rotate(0,286,274)"/><rect x="280" y="280" width="12" height="12" transform="rotate(0,286,286)"/><rect x="280" y="316" width="12" height="12" transform="rotate(0,286,322)"/><rect x="280" y="376" width="12" height="12" transform="rotate(0,286,382)"/><rect x="280" y="388" width="12" height="12" transform="rotate(0,286,394)"/><rect x="280" y="424" width="12" height="12" transform="rotate(0,286,430)"/><rect x="280" y="436" width="12" height="12" transform="rotate(0,286,442)"/><rect x="280" y="448" width="12" height="12" transform="rotate(0,286,454)"/><rect x="280" y="460" width="12" height="12" transform="rotate(0,286,466)"/><rect x="292" y="52" width="12" height="12" transform="rotate(0,298,58)"/><rect x="292" y="88" width="12" height="12" transform="rotate(0,298,94)"/><rect x="292" y="100" width="12" height="12" transform="rotate(0,298,106)"/><rect x="292" y="112" width="12" height="12" transform="rotate(0,298,118)"/><rect x="292" y="136" width="12" height="12" transform="rotate(0,298,142)"/><rect x="292" y="148" width="12" height="12" transform="rotate(0,298,154)"/><rect x="292" y="160" width="12" height="12" transform="rotate(0,298,166)"/><rect x="292" y="184" width="12" height="12" transform="rotate(0,298,190)"/><rect x="292" y="220" width="12" height="12" transform="rotate(0,298,226)"/><rect x="292" y="232" width="12" height="12" transform="rotate(0,298,238)"/><rect x="292" y="244" width="12" height="12" transform="rotate(0,298,250)"/><rect x="292" y="268" width="12" height="12" transform="rotate(0,298,274)"/><rect x="292" y="292" width="12" height="12" transform="rotate(0,298,298)"/><rect x="292" y="316" width="12" height="12" transform="rotate(0,298,322)"/><rect x="292" y="376" width="12" height="12" transform="rotate(0,298,382)"/><rect x="292" y="400" width="12" height="12" transform="rotate(0,298,406)"/><rect x="292" y="412" width="12" height="12" transform="rotate(0,298,418)"/><rect x="292" y="448" width="12" height="12" transform="rotate(0,298,454)"/><rect x="292" y="460" width="12" height="12" transform="rotate(0,298,466)"/><rect x="304" y="28" width="12" height="12" transform="rotate(0,310,34)"/><rect x="304" y="40" width="12" height="12" transform="rotate(0,310,46)"/><rect x="304" y="52" width="12" height="12" transform="rotate(0,310,58)"/><rect x="304" y="124" width="12" height="12" transform="rotate(0,310,130)"/><rect x="304" y="160" width="12" height="12" transform="rotate(0,310,166)"/><rect x="304" y="184" width="12" height="12" transform="rotate(0,310,190)"/><rect x="304" y="196" width="12" height="12" transform="rotate(0,310,202)"/><rect x="304" y="232" width="12" height="12" transform="rotate(0,310,238)"/><rect x="304" y="244" width="12" height="12" transform="rotate(0,310,250)"/><rect x="304" y="256" width="12" height="12" transform="rotate(0,310,262)"/><rect x="304" y="268" width="12" height="12" transform="rotate(0,310,274)"/><rect x="304" y="280" width="12" height="12" transform="rotate(0,310,286)"/><rect x="304" y="292" width="12" height="12" transform="rotate(0,310,298)"/><rect x="304" y="304" width="12" height="12" transform="rotate(0,310,310)"/><rect x="304" y="316" width="12" height="12" transform="rotate(0,310,322)"/><rect x="304" y="340" width="12" height="12" transform="rotate(0,310,346)"/><rect x="304" y="388" width="12" height="12" transform="rotate(0,310,394)"/><rect x="304" y="412" width="12" height="12" transform="rotate(0,310,418)"/><rect x="316" y="28" width="12" height="12" transform="rotate(0,322,34)"/><rect x="316" y="52" width="12" height="12" transform="rotate(0,322,58)"/><rect x="316" y="64" width="12" height="12" transform="rotate(0,322,70)"/><rect x="316" y="76" width="12" height="12" transform="rotate(0,322,82)"/><rect x="316" y="100" width="12" height="12" transform="rotate(0,322,106)"/><rect x="316" y="112" width="12" height="12" transform="rotate(0,322,118)"/><rect x="316" y="148" width="12" height="12" transform="rotate(0,322,154)"/><rect x="316" y="160" width="12" height="12" transform="rotate(0,322,166)"/><rect x="316" y="172" width="12" height="12" transform="rotate(0,322,178)"/><rect x="316" y="196" width="12" height="12" transform="rotate(0,322,202)"/><rect x="316" y="208" width="12" height="12" transform="rotate(0,322,214)"/><rect x="316" y="232" width="12" height="12" transform="rotate(0,322,238)"/><rect x="316" y="244" width="12" height="12" transform="rotate(0,322,250)"/><rect x="316" y="280" width="12" height="12" transform="rotate(0,322,286)"/><rect x="316" y="304" width="12" height="12" transform="rotate(0,322,310)"/><rect x="316" y="316" width="12" height="12" transform="rotate(0,322,322)"/><rect x="316" y="352" width="12" height="12" transform="rotate(0,322,358)"/><rect x="316" y="376" width="12" height="12" transform="rotate(0,322,382)"/><rect x="316" y="412" width="12" height="12" transform="rotate(0,322,418)"/><rect x="316" y="424" width="12" height="12" transform="rotate(0,322,430)"/><rect x="316" y="448" width="12" height="12" transform="rotate(0,322,454)"/><rect x="316" y="460" width="12" height="12" transform="rotate(0,322,466)"/><rect x="328" y="52" width="12" height="12" transform="rotate(0,334,58)"/><rect x="328" y="76" width="12" height="12" transform="rotate(0,334,82)"/><rect x="328" y="88" width="12" height="12" transform="rotate(0,334,94)"/><rect x="328" y="112" width="12" height="12" transform="rotate(0,334,118)"/><rect x="328" y="136" width="12" height="12" transform="rotate(0,334,142)"/><rect x="328" y="160" width="12" height="12" transform="rotate(0,334,166)"/><rect x="328" y="220" width="12" height="12" transform="rotate(0,334,226)"/><rect x="328" y="244" width="12" height="12" transform="rotate(0,334,250)"/><rect x="328" y="256" width="12" height="12" transform="rotate(0,334,262)"/><rect x="328" y="268" width="12" height="12" transform="rotate(0,334,274)"/><rect x="328" y="352" width="12" height="12" transform="rotate(0,334,358)"/><rect x="328" y="364" width="12" height="12" transform="rotate(0,334,370)"/><rect x="328" y="376" width="12" height="12" transform="rotate(0,334,382)"/><rect x="328" y="400" width="12" height="12" transform="rotate(0,334,406)"/><rect x="328" y="412" width="12" height="12" transform="rotate(0,334,418)"/><rect x="328" y="448" width="12" height="12" transform="rotate(0,334,454)"/><rect x="328" y="460" width="12" height="12" transform="rotate(0,334,466)"/><rect x="340" y="28" width="12" height="12" transform="rotate(0,346,34)"/><rect x="340" y="64" width="12" height="12" transform="rotate(0,346,70)"/><rect x="340" y="76" width="12" height="12" transform="rotate(0,346,82)"/><rect x="340" y="88" width="12" height="12" transform="rotate(0,346,94)"/><rect x="340" y="100" width="12" height="12" transform="rotate(0,346,106)"/><rect x="340" y="124" width="12" height="12" transform="rotate(0,346,130)"/><rect x="340" y="136" width="12" height="12" transform="rotate(0,346,142)"/><rect x="340" y="184" width="12" height="12" transform="rotate(0,346,190)"/><rect x="340" y="196" width="12" height="12" transform="rotate(0,346,202)"/><rect x="340" y="244" width="12" height="12" transform="rotate(0,346,250)"/><rect x="340" y="280" width="12" height="12" transform="rotate(0,346,286)"/><rect x="340" y="304" width="12" height="12" transform="rotate(0,346,310)"/><rect x="340" y="316" width="12" height="12" transform="rotate(0,346,322)"/><rect x="340" y="328" width="12" height="12" transform="rotate(0,346,334)"/><rect x="340" y="376" width="12" height="12" transform="rotate(0,346,382)"/><rect x="340" y="388" width="12" height="12" transform="rotate(0,346,394)"/><rect x="340" y="412" width="12" height="12" transform="rotate(0,346,418)"/><rect x="340" y="436" width="12" height="12" transform="rotate(0,346,442)"/><rect x="340" y="448" width="12" height="12" transform="rotate(0,346,454)"/><rect x="340" y="460" width="12" height="12" transform="rotate(0,346,466)"/><rect x="352" y="40" width="12" height="12" transform="rotate(0,358,46)"/><rect x="352" y="52" width="12" height="12" transform="rotate(0,358,58)"/><rect x="352" y="64" width="12" height="12" transform="rotate(0,358,70)"/><rect x="352" y="124" width="12" height="12" transform="rotate(0,358,130)"/><rect x="352" y="136" width="12" height="12" transform="rotate(0,358,142)"/><rect x="352" y="148" width="12" height="12" transform="rotate(0,358,154)"/><rect x="352" y="160" width="12" height="12" transform="rotate(0,358,166)"/><rect x="352" y="208" width="12" height="12" transform="rotate(0,358,214)"/><rect x="352" y="220" width="12" height="12" transform="rotate(0,358,226)"/><rect x="352" y="232" width="12" height="12" transform="rotate(0,358,238)"/><rect x="352" y="244" width="12" height="12" transform="rotate(0,358,250)"/><rect x="352" y="256" width="12" height="12" transform="rotate(0,358,262)"/><rect x="352" y="280" width="12" height="12" transform="rotate(0,358,286)"/><rect x="352" y="304" width="12" height="12" transform="rotate(0,358,310)"/><rect x="352" y="316" width="12" height="12" transform="rotate(0,358,322)"/><rect x="352" y="328" width="12" height="12" transform="rotate(0,358,334)"/><rect x="352" y="340" width="12" height="12" transform="rotate(0,358,346)"/><rect x="352" y="352" width="12" height="12" transform="rotate(0,358,358)"/><rect x="352" y="388" width="12" height="12" transform="rotate(0,358,394)"/><rect x="352" y="412" width="12" height="12" transform="rotate(0,358,418)"/><rect x="352" y="424" width="12" height="12" transform="rotate(0,358,430)"/><rect x="352" y="448" width="12" height="12" transform="rotate(0,358,454)"/><rect x="352" y="460" width="12" height="12" transform="rotate(0,358,466)"/><rect x="364" y="28" width="12" height="12" transform="rotate(0,370,34)"/><rect x="364" y="40" width="12" height="12" transform="rotate(0,370,46)"/><rect x="364" y="76" width="12" height="12" transform="rotate(0,370,82)"/><rect x="364" y="100" width="12" height="12" transform="rotate(0,370,106)"/><rect x="364" y="112" width="12" height="12" transform="rotate(0,370,118)"/><rect x="364" y="124" width="12" height="12" transform="rotate(0,370,130)"/><rect x="364" y="136" width="12" height="12" transform="rotate(0,370,142)"/><rect x="364" y="148" width="12" height="12" transform="rotate(0,370,154)"/><rect x="364" y="196" width="12" height="12" transform="rotate(0,370,202)"/><rect x="364" y="244" width="12" height="12" transform="rotate(0,370,250)"/><rect x="364" y="280" width="12" height="12" transform="rotate(0,370,286)"/><rect x="364" y="292" width="12" height="12" transform="rotate(0,370,298)"/><rect x="364" y="316" width="12" height="12" transform="rotate(0,370,322)"/><rect x="364" y="364" width="12" height="12" transform="rotate(0,370,370)"/><rect x="364" y="376" width="12" height="12" transform="rotate(0,370,382)"/><rect x="364" y="388" width="12" height="12" transform="rotate(0,370,394)"/><rect x="364" y="400" width="12" height="12" transform="rotate(0,370,406)"/><rect x="364" y="412" width="12" height="12" transform="rotate(0,370,418)"/><rect x="364" y="448" width="12" height="12" transform="rotate(0,370,454)"/><rect x="364" y="460" width="12" height="12" transform="rotate(0,370,466)"/><rect x="376" y="124" width="12" height="12" transform="rotate(0,382,130)"/><rect x="376" y="148" width="12" height="12" transform="rotate(0,382,154)"/><rect x="376" y="208" width="12" height="12" transform="rotate(0,382,214)"/><rect x="376" y="256" width="12" height="12" transform="rotate(0,382,262)"/><rect x="376" y="280" width="12" height="12" transform="rotate(0,382,286)"/><rect x="376" y="304" width="12" height="12" transform="rotate(0,382,310)"/><rect x="376" y="316" width="12" height="12" transform="rotate(0,382,322)"/><rect x="376" y="328" width="12" height="12" transform="rotate(0,382,334)"/><rect x="376" y="340" width="12" height="12" transform="rotate(0,382,346)"/><rect x="376" y="364" width="12" height="12" transform="rotate(0,382,370)"/><rect x="376" y="412" width="12" height="12" transform="rotate(0,382,418)"/><rect x="376" y="460" width="12" height="12" transform="rotate(0,382,466)"/><rect x="388" y="124" width="12" height="12" transform="rotate(0,394,130)"/><rect x="388" y="136" width="12" height="12" transform="rotate(0,394,142)"/><rect x="388" y="172" width="12" height="12" transform="rotate(0,394,178)"/><rect x="388" y="184" width="12" height="12" transform="rotate(0,394,190)"/><rect x="388" y="196" width="12" height="12" transform="rotate(0,394,202)"/><rect x="388" y="208" width="12" height="12" transform="rotate(0,394,214)"/><rect x="388" y="244" width="12" height="12" transform="rotate(0,394,250)"/><rect x="388" y="256" width="12" height="12" transform="rotate(0,394,262)"/><rect x="388" y="292" width="12" height="12" transform="rotate(0,394,298)"/><rect x="388" y="352" width="12" height="12" transform="rotate(0,394,358)"/><rect x="388" y="364" width="12" height="12" transform="rotate(0,394,370)"/><rect x="388" y="388" width="12" height="12" transform="rotate(0,394,394)"/><rect x="388" y="412" width="12" height="12" transform="rotate(0,394,418)"/><rect x="388" y="436" width="12" height="12" transform="rotate(0,394,442)"/><rect x="388" y="448" width="12" height="12" transform="rotate(0,394,454)"/><rect x="388" y="460" width="12" height="12" transform="rotate(0,394,466)"/><rect x="400" y="124" width="12" height="12" transform="rotate(0,406,130)"/><rect x="400" y="136" width="12" height="12" transform="rotate(0,406,142)"/><rect x="400" y="160" width="12" height="12" transform="rotate(0,406,166)"/><rect x="400" y="172" width="12" height="12" transform="rotate(0,406,178)"/><rect x="400" y="196" width="12" height="12" transform="rotate(0,406,202)"/><rect x="400" y="220" width="12" height="12" transform="rotate(0,406,226)"/><rect x="400" y="232" width="12" height="12" transform="rotate(0,406,238)"/><rect x="400" y="268" width="12" height="12" transform="rotate(0,406,274)"/><rect x="400" y="280" width="12" height="12" transform="rotate(0,406,286)"/><rect x="400" y="304" width="12" height="12" transform="rotate(0,406,310)"/><rect x="400" y="316" width="12" height="12" transform="rotate(0,406,322)"/><rect x="400" y="352" width="12" height="12" transform="rotate(0,406,358)"/><rect x="400" y="364" width="12" height="12" transform="rotate(0,406,370)"/><rect x="400" y="412" width="12" height="12" transform="rotate(0,406,418)"/><rect x="400" y="436" width="12" height="12" transform="rotate(0,406,442)"/><rect x="400" y="448" width="12" height="12" transform="rotate(0,406,454)"/><rect x="412" y="136" width="12" height="12" transform="rotate(0,418,142)"/><rect x="412" y="160" width="12" height="12" transform="rotate(0,418,166)"/><rect x="412" y="172" width="12" height="12" transform="rotate(0,418,178)"/><rect x="412" y="184" width="12" height="12" transform="rotate(0,418,190)"/><rect x="412" y="256" width="12" height="12" transform="rotate(0,418,262)"/><rect x="412" y="292" width="12" height="12" transform="rotate(0,418,298)"/><rect x="412" y="328" width="12" height="12" transform="rotate(0,418,334)"/><rect x="412" y="340" width="12" height="12" transform="rotate(0,418,346)"/><rect x="412" y="364" width="12" height="12" transform="rotate(0,418,370)"/><rect x="412" y="376" width="12" height="12" transform="rotate(0,418,382)"/><rect x="412" y="388" width="12" height="12" transform="rotate(0,418,394)"/><rect x="412" y="400" width="12" height="12" transform="rotate(0,418,406)"/><rect x="412" y="412" width="12" height="12" transform="rotate(0,418,418)"/><rect x="412" y="424" width="12" height="12" transform="rotate(0,418,430)"/><rect x="412" y="448" width="12" height="12" transform="rotate(0,418,454)"/><rect x="424" y="124" width="12" height="12" transform="rotate(0,430,130)"/><rect x="424" y="136" width="12" height="12" transform="rotate(0,430,142)"/><rect x="424" y="148" width="12" height="12" transform="rotate(0,430,154)"/><rect x="424" y="184" width="12" height="12" transform="rotate(0,430,190)"/><rect x="424" y="196" width="12" height="12" transform="rotate(0,430,202)"/><rect x="424" y="208" width="12" height="12" transform="rotate(0,430,214)"/><rect x="424" y="232" width="12" height="12" transform="rotate(0,430,238)"/><rect x="424" y="244" width="12" height="12" transform="rotate(0,430,250)"/><rect x="424" y="256" width="12" height="12" transform="rotate(0,430,262)"/><rect x="424" y="268" width="12" height="12" transform="rotate(0,430,274)"/><rect x="424" y="292" width="12" height="12" transform="rotate(0,430,298)"/><rect x="424" y="304" width="12" height="12" transform="rotate(0,430,310)"/><rect x="424" y="364" width="12" height="12" transform="rotate(0,430,370)"/><rect x="424" y="376" width="12" height="12" transform="rotate(0,430,382)"/><rect x="424" y="400" width="12" height="12" transform="rotate(0,430,406)"/><rect x="424" y="412" width="12" height="12" transform="rotate(0,430,418)"/><rect x="424" y="424" width="12" height="12" transform="rotate(0,430,430)"/><rect x="424" y="448" width="12" height="12" transform="rotate(0,430,454)"/><rect x="424" y="460" width="12" height="12" transform="rotate(0,430,466)"/><rect x="436" y="160" width="12" height="12" transform="rotate(0,442,166)"/><rect x="436" y="184" width="12" height="12" transform="rotate(0,442,190)"/><rect x="436" y="220" width="12" height="12" transform="rotate(0,442,226)"/><rect x="436" y="244" width="12" height="12" transform="rotate(0,442,250)"/><rect x="436" y="268" width="12" height="12" transform="rotate(0,442,274)"/><rect x="436" y="352" width="12" height="12" transform="rotate(0,442,358)"/><rect x="436" y="364" width="12" height="12" transform="rotate(0,442,370)"/><rect x="436" y="376" width="12" height="12" transform="rotate(0,442,382)"/><rect x="436" y="412" width="12" height="12" transform="rotate(0,442,418)"/><rect x="436" y="424" width="12" height="12" transform="rotate(0,442,430)"/><rect x="436" y="460" width="12" height="12" transform="rotate(0,442,466)"/><rect x="448" y="124" width="12" height="12" transform="rotate(0,454,130)"/><rect x="448" y="148" width="12" height="12" transform="rotate(0,454,154)"/><rect x="448" y="160" width="12" height="12" transform="rotate(0,454,166)"/><rect x="448" y="184" width="12" height="12" transform="rotate(0,454,190)"/><rect x="448" y="196" width="12" height="12" transform="rotate(0,454,202)"/><rect x="448" y="244" width="12" height="12" transform="rotate(0,454,250)"/><rect x="448" y="280" width="12" height="12" transform="rotate(0,454,286)"/><rect x="448" y="328" width="12" height="12" transform="rotate(0,454,334)"/><rect x="448" y="352" width="12" height="12" transform="rotate(0,454,358)"/><rect x="448" y="364" width="12" height="12" transform="rotate(0,454,370)"/><rect x="448" y="376" width="12" height="12" transform="rotate(0,454,382)"/><rect x="448" y="388" width="12" height="12" transform="rotate(0,454,394)"/><rect x="448" y="400" width="12" height="12" transform="rotate(0,454,406)"/><rect x="448" y="412" width="12" height="12" transform="rotate(0,454,418)"/><rect x="460" y="136" width="12" height="12" transform="rotate(0,466,142)"/><rect x="460" y="196" width="12" height="12" transform="rotate(0,466,202)"/><rect x="460" y="244" width="12" height="12" transform="rotate(0,466,250)"/><rect x="460" y="256" width="12" height="12" transform="rotate(0,466,262)"/><rect x="460" y="280" width="12" height="12" transform="rotate(0,466,286)"/><rect x="460" y="316" width="12" height="12" transform="rotate(0,466,322)"/><rect x="460" y="328" width="12" height="12" transform="rotate(0,466,334)"/><rect x="460" y="352" width="12" height="12" transform="rotate(0,466,358)"/><rect x="460" y="364" width="12" height="12" transform="rotate(0,466,370)"/><rect x="460" y="400" width="12" height="12" transform="rotate(0,466,406)"/><rect x="460" y="412" width="12" height="12" transform="rotate(0,466,418)"/><rect x="460" y="424" width="12" height="12" transform="rotate(0,466,430)"/><rect x="460" y="448" width="12" height="12" transform="rotate(0,466,454)"/><rect x="460" y="460" width="12" height="12" transform="rotate(0,466,466)"/><path clip-rule="evenodd" d="M 28 28v 84h 84v -84zM 40 40h 60v 60h -60z" transform="rotate(0,70,70)"/><rect x="52" y="52" width="36" height="36" transform="rotate(0,70,70)"/><path clip-rule="evenodd" d="M 388 28v 84h 84v -84zM 400 40h 60v 60h -60z" transform="rotate(90,430,70)"/><rect x="412" y="52" width="36" height="36" transform="rotate(90,430,70)"/><path clip-rule="evenodd" d="M 28 388v 84h 84v -84zM 40 400h 60v 60h -60z" transform="rotate(-90,70,430)"/><rect x="52" y="412" width="36" height="36" transform="rotate(-90,70,430)"/></clipPath></defs><rect x="0" y="0" height="500" width="500" clip-path="url('#clip-path-background-color')" fill="#fff"/><rect x="0" y="0" height="500" width="500" clip-path="url('#clip-path-dot-color')" fill="#000000"/></svg>