<?xml version="1.0" encoding="UTF-8"?>
<svg id="Livello_2" data-name="Livello 2" xmlns="http://www.w3.org/2000/svg" version="1.1" viewBox="0 0 198.5 231">
  <defs>
    <style>
      .cls-1 {
        fill: #ef7978;
      }

      .cls-1, .cls-2, .cls-3, .cls-4, .cls-5 {
        stroke-width: 0px;
      }

      .cls-2 {
        fill: #f7be27;
      }

      .cls-3 {
        fill: #19b7ca;
      }

      .cls-4 {
        fill: #f5a147;
      }

      .cls-5 {
        fill: #63b262;
      }
    </style>
  </defs>
  <polygon class="cls-2" points="172.6 0 116.3 56.3 105.4 67.2 0 172.6 0 0 172.6 0"/>
  <polygon class="cls-3" points="198.5 0 198.5 231 0 231 0 186.8 56.1 130.7 81.7 105.2 112.5 74.3 121 65.8 186.8 0 198.5 0"/>
  <polygon class="cls-5" points="198.5 157.3 198.5 231 166 231 62.6 127.7 114.3 76 115.8 74.5 176.2 134.9 198.5 157.3"/>
  <polygon class="cls-1" points="190.2 0 120.8 69.4 114.2 76 56.1 134 0 190.2 0 169.4 83.3 86 103.8 65.6 169.4 0 190.2 0"/>
  <polygon class="cls-4" points="198.5 138.6 198.5 160.3 103.2 65 114.1 54.1 198.5 138.6"/>
</svg>