<?xml version="1.0" standalone="no"?>
<svg xmlns="http://www.w3.org/2000/svg" width="500" height="500"><defs><clipPath id="clip-path-dot-color"><rect x="28" y="124" width="12" height="12" transform="rotate(0,34,130)"/><rect x="28" y="136" width="12" height="12" transform="rotate(0,34,142)"/><rect x="28" y="148" width="12" height="12" transform="rotate(0,34,154)"/><rect x="28" y="160" width="12" height="12" transform="rotate(0,34,166)"/><rect x="28" y="172" width="12" height="12" transform="rotate(0,34,178)"/><rect x="28" y="184" width="12" height="12" transform="rotate(0,34,190)"/><rect x="28" y="196" width="12" height="12" transform="rotate(0,34,202)"/><rect x="28" y="268" width="12" height="12" transform="rotate(0,34,274)"/><rect x="28" y="292" width="12" height="12" transform="rotate(0,34,298)"/><rect x="28" y="340" width="12" height="12" transform="rotate(0,34,346)"/><rect x="28" y="352" width="12" height="12" transform="rotate(0,34,358)"/><rect x="40" y="136" width="12" height="12" transform="rotate(0,46,142)"/><rect x="40" y="160" width="12" height="12" transform="rotate(0,46,166)"/><rect x="40" y="172" width="12" height="12" transform="rotate(0,46,178)"/><rect x="40" y="196" width="12" height="12" transform="rotate(0,46,202)"/><rect x="40" y="232" width="12" height="12" transform="rotate(0,46,238)"/><rect x="40" y="244" width="12" height="12" transform="rotate(0,46,250)"/><rect x="40" y="292" width="12" height="12" transform="rotate(0,46,298)"/><rect x="40" y="352" width="12" height="12" transform="rotate(0,46,358)"/><rect x="40" y="364" width="12" height="12" transform="rotate(0,46,370)"/><rect x="52" y="124" width="12" height="12" transform="rotate(0,58,130)"/><rect x="52" y="136" width="12" height="12" transform="rotate(0,58,142)"/><rect x="52" y="160" width="12" height="12" transform="rotate(0,58,166)"/><rect x="52" y="184" width="12" height="12" transform="rotate(0,58,190)"/><rect x="52" y="244" width="12" height="12" transform="rotate(0,58,250)"/><rect x="52" y="268" width="12" height="12" transform="rotate(0,58,274)"/><rect x="64" y="124" width="12" height="12" transform="rotate(0,70,130)"/><rect x="64" y="172" width="12" height="12" transform="rotate(0,70,178)"/><rect x="64" y="244" width="12" height="12" transform="rotate(0,70,250)"/><rect x="64" y="292" width="12" height="12" transform="rotate(0,70,298)"/><rect x="64" y="328" width="12" height="12" transform="rotate(0,70,334)"/><rect x="64" y="340" width="12" height="12" transform="rotate(0,70,346)"/><rect x="76" y="136" width="12" height="12" transform="rotate(0,82,142)"/><rect x="76" y="148" width="12" height="12" transform="rotate(0,82,154)"/><rect x="76" y="172" width="12" height="12" transform="rotate(0,82,178)"/><rect x="76" y="184" width="12" height="12" transform="rotate(0,82,190)"/><rect x="76" y="196" width="12" height="12" transform="rotate(0,82,202)"/><rect x="76" y="208" width="12" height="12" transform="rotate(0,82,214)"/><rect x="76" y="220" width="12" height="12" transform="rotate(0,82,226)"/><rect x="76" y="304" width="12" height="12" transform="rotate(0,82,310)"/><rect x="76" y="352" width="12" height="12" transform="rotate(0,82,358)"/><rect x="88" y="124" width="12" height="12" transform="rotate(0,94,130)"/><rect x="88" y="184" width="12" height="12" transform="rotate(0,94,190)"/><rect x="88" y="220" width="12" height="12" transform="rotate(0,94,226)"/><rect x="88" y="244" width="12" height="12" transform="rotate(0,94,250)"/><rect x="88" y="268" width="12" height="12" transform="rotate(0,94,274)"/><rect x="88" y="280" width="12" height="12" transform="rotate(0,94,286)"/><rect x="88" y="292" width="12" height="12" transform="rotate(0,94,298)"/><rect x="88" y="352" width="12" height="12" transform="rotate(0,94,358)"/><rect x="88" y="364" width="12" height="12" transform="rotate(0,94,370)"/><rect x="100" y="124" width="12" height="12" transform="rotate(0,106,130)"/><rect x="100" y="148" width="12" height="12" transform="rotate(0,106,154)"/><rect x="100" y="172" width="12" height="12" transform="rotate(0,106,178)"/><rect x="100" y="196" width="12" height="12" transform="rotate(0,106,202)"/><rect x="100" y="220" width="12" height="12" transform="rotate(0,106,226)"/><rect x="100" y="244" width="12" height="12" transform="rotate(0,106,250)"/><rect x="100" y="268" width="12" height="12" transform="rotate(0,106,274)"/><rect x="100" y="292" width="12" height="12" transform="rotate(0,106,298)"/><rect x="100" y="316" width="12" height="12" transform="rotate(0,106,322)"/><rect x="100" y="340" width="12" height="12" transform="rotate(0,106,346)"/><rect x="100" y="364" width="12" height="12" transform="rotate(0,106,370)"/><rect x="112" y="124" width="12" height="12" transform="rotate(0,118,130)"/><rect x="112" y="148" width="12" height="12" transform="rotate(0,118,154)"/><rect x="112" y="160" width="12" height="12" transform="rotate(0,118,166)"/><rect x="112" y="172" width="12" height="12" transform="rotate(0,118,178)"/><rect x="112" y="184" width="12" height="12" transform="rotate(0,118,190)"/><rect x="112" y="232" width="12" height="12" transform="rotate(0,118,238)"/><rect x="112" y="256" width="12" height="12" transform="rotate(0,118,262)"/><rect x="112" y="268" width="12" height="12" transform="rotate(0,118,274)"/><rect x="112" y="280" width="12" height="12" transform="rotate(0,118,286)"/><rect x="112" y="292" width="12" height="12" transform="rotate(0,118,298)"/><rect x="112" y="316" width="12" height="12" transform="rotate(0,118,322)"/><rect x="112" y="328" width="12" height="12" transform="rotate(0,118,334)"/><rect x="124" y="40" width="12" height="12" transform="rotate(0,130,46)"/><rect x="124" y="64" width="12" height="12" transform="rotate(0,130,70)"/><rect x="124" y="88" width="12" height="12" transform="rotate(0,130,94)"/><rect x="124" y="100" width="12" height="12" transform="rotate(0,130,106)"/><rect x="124" y="112" width="12" height="12" transform="rotate(0,130,118)"/><rect x="124" y="124" width="12" height="12" transform="rotate(0,130,130)"/><rect x="124" y="136" width="12" height="12" transform="rotate(0,130,142)"/><rect x="124" y="148" width="12" height="12" transform="rotate(0,130,154)"/><rect x="124" y="172" width="12" height="12" transform="rotate(0,130,178)"/><rect x="124" y="184" width="12" height="12" transform="rotate(0,130,190)"/><rect x="124" y="220" width="12" height="12" transform="rotate(0,130,226)"/><rect x="124" y="232" width="12" height="12" transform="rotate(0,130,238)"/><rect x="124" y="244" width="12" height="12" transform="rotate(0,130,250)"/><rect x="124" y="256" width="12" height="12" transform="rotate(0,130,262)"/><rect x="124" y="280" width="12" height="12" transform="rotate(0,130,286)"/><rect x="124" y="304" width="12" height="12" transform="rotate(0,130,310)"/><rect x="124" y="316" width="12" height="12" transform="rotate(0,130,322)"/><rect x="124" y="340" width="12" height="12" transform="rotate(0,130,346)"/><rect x="124" y="352" width="12" height="12" transform="rotate(0,130,358)"/><rect x="124" y="376" width="12" height="12" transform="rotate(0,130,382)"/><rect x="124" y="388" width="12" height="12" transform="rotate(0,130,394)"/><rect x="124" y="400" width="12" height="12" transform="rotate(0,130,406)"/><rect x="124" y="424" width="12" height="12" transform="rotate(0,130,430)"/><rect x="124" y="436" width="12" height="12" transform="rotate(0,130,442)"/><rect x="124" y="460" width="12" height="12" transform="rotate(0,130,466)"/><rect x="136" y="28" width="12" height="12" transform="rotate(0,142,34)"/><rect x="136" y="52" width="12" height="12" transform="rotate(0,142,58)"/><rect x="136" y="88" width="12" height="12" transform="rotate(0,142,94)"/><rect x="136" y="112" width="12" height="12" transform="rotate(0,142,118)"/><rect x="136" y="124" width="12" height="12" transform="rotate(0,142,130)"/><rect x="136" y="136" width="12" height="12" transform="rotate(0,142,142)"/><rect x="136" y="196" width="12" height="12" transform="rotate(0,142,202)"/><rect x="136" y="208" width="12" height="12" transform="rotate(0,142,214)"/><rect x="136" y="232" width="12" height="12" transform="rotate(0,142,238)"/><rect x="136" y="244" width="12" height="12" transform="rotate(0,142,250)"/><rect x="136" y="256" width="12" height="12" transform="rotate(0,142,262)"/><rect x="136" y="268" width="12" height="12" transform="rotate(0,142,274)"/><rect x="136" y="280" width="12" height="12" transform="rotate(0,142,286)"/><rect x="136" y="316" width="12" height="12" transform="rotate(0,142,322)"/><rect x="136" y="352" width="12" height="12" transform="rotate(0,142,358)"/><rect x="136" y="376" width="12" height="12" transform="rotate(0,142,382)"/><rect x="136" y="388" width="12" height="12" transform="rotate(0,142,394)"/><rect x="136" y="436" width="12" height="12" transform="rotate(0,142,442)"/><rect x="136" y="448" width="12" height="12" transform="rotate(0,142,454)"/><rect x="136" y="460" width="12" height="12" transform="rotate(0,142,466)"/><rect x="148" y="40" width="12" height="12" transform="rotate(0,154,46)"/><rect x="148" y="64" width="12" height="12" transform="rotate(0,154,70)"/><rect x="148" y="76" width="12" height="12" transform="rotate(0,154,82)"/><rect x="148" y="88" width="12" height="12" transform="rotate(0,154,94)"/><rect x="148" y="100" width="12" height="12" transform="rotate(0,154,106)"/><rect x="148" y="148" width="12" height="12" transform="rotate(0,154,154)"/><rect x="148" y="160" width="12" height="12" transform="rotate(0,154,166)"/><rect x="148" y="172" width="12" height="12" transform="rotate(0,154,178)"/><rect x="148" y="232" width="12" height="12" transform="rotate(0,154,238)"/><rect x="148" y="244" width="12" height="12" transform="rotate(0,154,250)"/><rect x="148" y="256" width="12" height="12" transform="rotate(0,154,262)"/><rect x="148" y="268" width="12" height="12" transform="rotate(0,154,274)"/><rect x="148" y="280" width="12" height="12" transform="rotate(0,154,286)"/><rect x="148" y="292" width="12" height="12" transform="rotate(0,154,298)"/><rect x="148" y="316" width="12" height="12" transform="rotate(0,154,322)"/><rect x="148" y="364" width="12" height="12" transform="rotate(0,154,370)"/><rect x="148" y="388" width="12" height="12" transform="rotate(0,154,394)"/><rect x="148" y="412" width="12" height="12" transform="rotate(0,154,418)"/><rect x="148" y="436" width="12" height="12" transform="rotate(0,154,442)"/><rect x="148" y="448" width="12" height="12" transform="rotate(0,154,454)"/><rect x="148" y="460" width="12" height="12" transform="rotate(0,154,466)"/><rect x="160" y="28" width="12" height="12" transform="rotate(0,166,34)"/><rect x="160" y="40" width="12" height="12" transform="rotate(0,166,46)"/><rect x="160" y="76" width="12" height="12" transform="rotate(0,166,82)"/><rect x="160" y="88" width="12" height="12" transform="rotate(0,166,94)"/><rect x="160" y="112" width="12" height="12" transform="rotate(0,166,118)"/><rect x="160" y="124" width="12" height="12" transform="rotate(0,166,130)"/><rect x="160" y="148" width="12" height="12" transform="rotate(0,166,154)"/><rect x="160" y="160" width="12" height="12" transform="rotate(0,166,166)"/><rect x="160" y="232" width="12" height="12" transform="rotate(0,166,238)"/><rect x="160" y="280" width="12" height="12" transform="rotate(0,166,286)"/><rect x="160" y="304" width="12" height="12" transform="rotate(0,166,310)"/><rect x="160" y="316" width="12" height="12" transform="rotate(0,166,322)"/><rect x="160" y="328" width="12" height="12" transform="rotate(0,166,334)"/><rect x="160" y="352" width="12" height="12" transform="rotate(0,166,358)"/><rect x="160" y="448" width="12" height="12" transform="rotate(0,166,454)"/><rect x="160" y="460" width="12" height="12" transform="rotate(0,166,466)"/><rect x="172" y="28" width="12" height="12" transform="rotate(0,178,34)"/><rect x="172" y="40" width="12" height="12" transform="rotate(0,178,46)"/><rect x="172" y="76" width="12" height="12" transform="rotate(0,178,82)"/><rect x="172" y="88" width="12" height="12" transform="rotate(0,178,94)"/><rect x="172" y="100" width="12" height="12" transform="rotate(0,178,106)"/><rect x="172" y="112" width="12" height="12" transform="rotate(0,178,118)"/><rect x="172" y="124" width="12" height="12" transform="rotate(0,178,130)"/><rect x="172" y="148" width="12" height="12" transform="rotate(0,178,154)"/><rect x="172" y="160" width="12" height="12" transform="rotate(0,178,166)"/><rect x="172" y="172" width="12" height="12" transform="rotate(0,178,178)"/><rect x="172" y="184" width="12" height="12" transform="rotate(0,178,190)"/><rect x="172" y="196" width="12" height="12" transform="rotate(0,178,202)"/><rect x="172" y="208" width="12" height="12" transform="rotate(0,178,214)"/><rect x="172" y="220" width="12" height="12" transform="rotate(0,178,226)"/><rect x="172" y="232" width="12" height="12" transform="rotate(0,178,238)"/><rect x="172" y="280" width="12" height="12" transform="rotate(0,178,286)"/><rect x="172" y="304" width="12" height="12" transform="rotate(0,178,310)"/><rect x="172" y="328" width="12" height="12" transform="rotate(0,178,334)"/><rect x="172" y="376" width="12" height="12" transform="rotate(0,178,382)"/><rect x="172" y="388" width="12" height="12" transform="rotate(0,178,394)"/><rect x="172" y="448" width="12" height="12" transform="rotate(0,178,454)"/><rect x="184" y="40" width="12" height="12" transform="rotate(0,190,46)"/><rect x="184" y="76" width="12" height="12" transform="rotate(0,190,82)"/><rect x="184" y="124" width="12" height="12" transform="rotate(0,190,130)"/><rect x="184" y="136" width="12" height="12" transform="rotate(0,190,142)"/><rect x="184" y="148" width="12" height="12" transform="rotate(0,190,154)"/><rect x="184" y="160" width="12" height="12" transform="rotate(0,190,166)"/><rect x="184" y="184" width="12" height="12" transform="rotate(0,190,190)"/><rect x="184" y="196" width="12" height="12" transform="rotate(0,190,202)"/><rect x="184" y="268" width="12" height="12" transform="rotate(0,190,274)"/><rect x="184" y="280" width="12" height="12" transform="rotate(0,190,286)"/><rect x="184" y="292" width="12" height="12" transform="rotate(0,190,298)"/><rect x="184" y="316" width="12" height="12" transform="rotate(0,190,322)"/><rect x="184" y="340" width="12" height="12" transform="rotate(0,190,346)"/><rect x="184" y="364" width="12" height="12" transform="rotate(0,190,370)"/><rect x="184" y="388" width="12" height="12" transform="rotate(0,190,394)"/><rect x="184" y="400" width="12" height="12" transform="rotate(0,190,406)"/><rect x="184" y="424" width="12" height="12" transform="rotate(0,190,430)"/><rect x="184" y="460" width="12" height="12" transform="rotate(0,190,466)"/><rect x="196" y="28" width="12" height="12" transform="rotate(0,202,34)"/><rect x="196" y="76" width="12" height="12" transform="rotate(0,202,82)"/><rect x="196" y="88" width="12" height="12" transform="rotate(0,202,94)"/><rect x="196" y="100" width="12" height="12" transform="rotate(0,202,106)"/><rect x="196" y="136" width="12" height="12" transform="rotate(0,202,142)"/><rect x="196" y="172" width="12" height="12" transform="rotate(0,202,178)"/><rect x="196" y="196" width="12" height="12" transform="rotate(0,202,202)"/><rect x="196" y="208" width="12" height="12" transform="rotate(0,202,214)"/><rect x="196" y="220" width="12" height="12" transform="rotate(0,202,226)"/><rect x="196" y="232" width="12" height="12" transform="rotate(0,202,238)"/><rect x="196" y="268" width="12" height="12" transform="rotate(0,202,274)"/><rect x="196" y="292" width="12" height="12" transform="rotate(0,202,298)"/><rect x="196" y="304" width="12" height="12" transform="rotate(0,202,310)"/><rect x="196" y="328" width="12" height="12" transform="rotate(0,202,334)"/><rect x="196" y="340" width="12" height="12" transform="rotate(0,202,346)"/><rect x="196" y="364" width="12" height="12" transform="rotate(0,202,370)"/><rect x="196" y="376" width="12" height="12" transform="rotate(0,202,382)"/><rect x="196" y="400" width="12" height="12" transform="rotate(0,202,406)"/><rect x="196" y="436" width="12" height="12" transform="rotate(0,202,442)"/><rect x="196" y="460" width="12" height="12" transform="rotate(0,202,466)"/><rect x="208" y="76" width="12" height="12" transform="rotate(0,214,82)"/><rect x="208" y="88" width="12" height="12" transform="rotate(0,214,94)"/><rect x="208" y="112" width="12" height="12" transform="rotate(0,214,118)"/><rect x="208" y="136" width="12" height="12" transform="rotate(0,214,142)"/><rect x="208" y="148" width="12" height="12" transform="rotate(0,214,154)"/><rect x="208" y="160" width="12" height="12" transform="rotate(0,214,166)"/><rect x="208" y="172" width="12" height="12" transform="rotate(0,214,178)"/><rect x="208" y="184" width="12" height="12" transform="rotate(0,214,190)"/><rect x="208" y="196" width="12" height="12" transform="rotate(0,214,202)"/><rect x="208" y="280" width="12" height="12" transform="rotate(0,214,286)"/><rect x="208" y="292" width="12" height="12" transform="rotate(0,214,298)"/><rect x="208" y="304" width="12" height="12" transform="rotate(0,214,310)"/><rect x="208" y="328" width="12" height="12" transform="rotate(0,214,334)"/><rect x="208" y="412" width="12" height="12" transform="rotate(0,214,418)"/><rect x="220" y="28" width="12" height="12" transform="rotate(0,226,34)"/><rect x="220" y="64" width="12" height="12" transform="rotate(0,226,70)"/><rect x="220" y="100" width="12" height="12" transform="rotate(0,226,106)"/><rect x="220" y="112" width="12" height="12" transform="rotate(0,226,118)"/><rect x="220" y="124" width="12" height="12" transform="rotate(0,226,130)"/><rect x="220" y="136" width="12" height="12" transform="rotate(0,226,142)"/><rect x="220" y="172" width="12" height="12" transform="rotate(0,226,178)"/><rect x="220" y="208" width="12" height="12" transform="rotate(0,226,214)"/><rect x="220" y="244" width="12" height="12" transform="rotate(0,226,250)"/><rect x="220" y="256" width="12" height="12" transform="rotate(0,226,262)"/><rect x="220" y="340" width="12" height="12" transform="rotate(0,226,346)"/><rect x="220" y="388" width="12" height="12" transform="rotate(0,226,394)"/><rect x="220" y="400" width="12" height="12" transform="rotate(0,226,406)"/><rect x="220" y="424" width="12" height="12" transform="rotate(0,226,430)"/><rect x="220" y="436" width="12" height="12" transform="rotate(0,226,442)"/><rect x="220" y="448" width="12" height="12" transform="rotate(0,226,454)"/><rect x="220" y="460" width="12" height="12" transform="rotate(0,226,466)"/><rect x="232" y="76" width="12" height="12" transform="rotate(0,238,82)"/><rect x="232" y="88" width="12" height="12" transform="rotate(0,238,94)"/><rect x="232" y="112" width="12" height="12" transform="rotate(0,238,118)"/><rect x="232" y="160" width="12" height="12" transform="rotate(0,238,166)"/><rect x="232" y="172" width="12" height="12" transform="rotate(0,238,178)"/><rect x="232" y="184" width="12" height="12" transform="rotate(0,238,190)"/><rect x="232" y="220" width="12" height="12" transform="rotate(0,238,226)"/><rect x="232" y="280" width="12" height="12" transform="rotate(0,238,286)"/><rect x="232" y="292" width="12" height="12" transform="rotate(0,238,298)"/><rect x="232" y="328" width="12" height="12" transform="rotate(0,238,334)"/><rect x="232" y="364" width="12" height="12" transform="rotate(0,238,370)"/><rect x="232" y="388" width="12" height="12" transform="rotate(0,238,394)"/><rect x="232" y="412" width="12" height="12" transform="rotate(0,238,418)"/><rect x="232" y="424" width="12" height="12" transform="rotate(0,238,430)"/><rect x="232" y="460" width="12" height="12" transform="rotate(0,238,466)"/><rect x="244" y="28" width="12" height="12" transform="rotate(0,250,34)"/><rect x="244" y="40" width="12" height="12" transform="rotate(0,250,46)"/><rect x="244" y="64" width="12" height="12" transform="rotate(0,250,70)"/><rect x="244" y="100" width="12" height="12" transform="rotate(0,250,106)"/><rect x="244" y="112" width="12" height="12" transform="rotate(0,250,118)"/><rect x="244" y="124" width="12" height="12" transform="rotate(0,250,130)"/><rect x="244" y="148" width="12" height="12" transform="rotate(0,250,154)"/><rect x="244" y="196" width="12" height="12" transform="rotate(0,250,202)"/><rect x="244" y="232" width="12" height="12" transform="rotate(0,250,238)"/><rect x="244" y="280" width="12" height="12" transform="rotate(0,250,286)"/><rect x="244" y="292" width="12" height="12" transform="rotate(0,250,298)"/><rect x="244" y="328" width="12" height="12" transform="rotate(0,250,334)"/><rect x="244" y="340" width="12" height="12" transform="rotate(0,250,346)"/><rect x="244" y="376" width="12" height="12" transform="rotate(0,250,382)"/><rect x="244" y="412" width="12" height="12" transform="rotate(0,250,418)"/><rect x="244" y="448" width="12" height="12" transform="rotate(0,250,454)"/><rect x="244" y="460" width="12" height="12" transform="rotate(0,250,466)"/><rect x="256" y="40" width="12" height="12" transform="rotate(0,262,46)"/><rect x="256" y="52" width="12" height="12" transform="rotate(0,262,58)"/><rect x="256" y="64" width="12" height="12" transform="rotate(0,262,70)"/><rect x="256" y="76" width="12" height="12" transform="rotate(0,262,82)"/><rect x="256" y="88" width="12" height="12" transform="rotate(0,262,94)"/><rect x="256" y="112" width="12" height="12" transform="rotate(0,262,118)"/><rect x="256" y="124" width="12" height="12" transform="rotate(0,262,130)"/><rect x="256" y="172" width="12" height="12" transform="rotate(0,262,178)"/><rect x="256" y="184" width="12" height="12" transform="rotate(0,262,190)"/><rect x="256" y="196" width="12" height="12" transform="rotate(0,262,202)"/><rect x="256" y="208" width="12" height="12" transform="rotate(0,262,214)"/><rect x="256" y="232" width="12" height="12" transform="rotate(0,262,238)"/><rect x="256" y="244" width="12" height="12" transform="rotate(0,262,250)"/><rect x="256" y="256" width="12" height="12" transform="rotate(0,262,262)"/><rect x="256" y="280" width="12" height="12" transform="rotate(0,262,286)"/><rect x="256" y="304" width="12" height="12" transform="rotate(0,262,310)"/><rect x="256" y="340" width="12" height="12" transform="rotate(0,262,346)"/><rect x="256" y="364" width="12" height="12" transform="rotate(0,262,370)"/><rect x="256" y="376" width="12" height="12" transform="rotate(0,262,382)"/><rect x="256" y="400" width="12" height="12" transform="rotate(0,262,406)"/><rect x="256" y="436" width="12" height="12" transform="rotate(0,262,442)"/><rect x="256" y="448" width="12" height="12" transform="rotate(0,262,454)"/><rect x="256" y="460" width="12" height="12" transform="rotate(0,262,466)"/><rect x="268" y="28" width="12" height="12" transform="rotate(0,274,34)"/><rect x="268" y="52" width="12" height="12" transform="rotate(0,274,58)"/><rect x="268" y="76" width="12" height="12" transform="rotate(0,274,82)"/><rect x="268" y="100" width="12" height="12" transform="rotate(0,274,106)"/><rect x="268" y="136" width="12" height="12" transform="rotate(0,274,142)"/><rect x="268" y="160" width="12" height="12" transform="rotate(0,274,166)"/><rect x="268" y="208" width="12" height="12" transform="rotate(0,274,214)"/><rect x="268" y="220" width="12" height="12" transform="rotate(0,274,226)"/><rect x="268" y="232" width="12" height="12" transform="rotate(0,274,238)"/><rect x="268" y="256" width="12" height="12" transform="rotate(0,274,262)"/><rect x="268" y="280" width="12" height="12" transform="rotate(0,274,286)"/><rect x="268" y="304" width="12" height="12" transform="rotate(0,274,310)"/><rect x="268" y="316" width="12" height="12" transform="rotate(0,274,322)"/><rect x="268" y="328" width="12" height="12" transform="rotate(0,274,334)"/><rect x="268" y="340" width="12" height="12" transform="rotate(0,274,346)"/><rect x="268" y="364" width="12" height="12" transform="rotate(0,274,370)"/><rect x="268" y="376" width="12" height="12" transform="rotate(0,274,382)"/><rect x="268" y="388" width="12" height="12" transform="rotate(0,274,394)"/><rect x="268" y="400" width="12" height="12" transform="rotate(0,274,406)"/><rect x="268" y="412" width="12" height="12" transform="rotate(0,274,418)"/><rect x="268" y="448" width="12" height="12" transform="rotate(0,274,454)"/><rect x="268" y="460" width="12" height="12" transform="rotate(0,274,466)"/><rect x="280" y="28" width="12" height="12" transform="rotate(0,286,34)"/><rect x="280" y="40" width="12" height="12" transform="rotate(0,286,46)"/><rect x="280" y="88" width="12" height="12" transform="rotate(0,286,94)"/><rect x="280" y="124" width="12" height="12" transform="rotate(0,286,130)"/><rect x="280" y="136" width="12" height="12" transform="rotate(0,286,142)"/><rect x="280" y="148" width="12" height="12" transform="rotate(0,286,154)"/><rect x="280" y="184" width="12" height="12" transform="rotate(0,286,190)"/><rect x="280" y="196" width="12" height="12" transform="rotate(0,286,202)"/><rect x="280" y="232" width="12" height="12" transform="rotate(0,286,238)"/><rect x="280" y="244" width="12" height="12" transform="rotate(0,286,250)"/><rect x="280" y="280" width="12" height="12" transform="rotate(0,286,286)"/><rect x="280" y="316" width="12" height="12" transform="rotate(0,286,322)"/><rect x="280" y="328" width="12" height="12" transform="rotate(0,286,334)"/><rect x="280" y="340" width="12" height="12" transform="rotate(0,286,346)"/><rect x="280" y="376" width="12" height="12" transform="rotate(0,286,382)"/><rect x="280" y="388" width="12" height="12" transform="rotate(0,286,394)"/><rect x="280" y="424" width="12" height="12" transform="rotate(0,286,430)"/><rect x="280" y="436" width="12" height="12" transform="rotate(0,286,442)"/><rect x="280" y="448" width="12" height="12" transform="rotate(0,286,454)"/><rect x="280" y="460" width="12" height="12" transform="rotate(0,286,466)"/><rect x="292" y="40" width="12" height="12" transform="rotate(0,298,46)"/><rect x="292" y="52" width="12" height="12" transform="rotate(0,298,58)"/><rect x="292" y="64" width="12" height="12" transform="rotate(0,298,70)"/><rect x="292" y="88" width="12" height="12" transform="rotate(0,298,94)"/><rect x="292" y="100" width="12" height="12" transform="rotate(0,298,106)"/><rect x="292" y="136" width="12" height="12" transform="rotate(0,298,142)"/><rect x="292" y="148" width="12" height="12" transform="rotate(0,298,154)"/><rect x="292" y="160" width="12" height="12" transform="rotate(0,298,166)"/><rect x="292" y="172" width="12" height="12" transform="rotate(0,298,178)"/><rect x="292" y="208" width="12" height="12" transform="rotate(0,298,214)"/><rect x="292" y="220" width="12" height="12" transform="rotate(0,298,226)"/><rect x="292" y="232" width="12" height="12" transform="rotate(0,298,238)"/><rect x="292" y="244" width="12" height="12" transform="rotate(0,298,250)"/><rect x="292" y="256" width="12" height="12" transform="rotate(0,298,262)"/><rect x="292" y="268" width="12" height="12" transform="rotate(0,298,274)"/><rect x="292" y="292" width="12" height="12" transform="rotate(0,298,298)"/><rect x="292" y="328" width="12" height="12" transform="rotate(0,298,334)"/><rect x="292" y="340" width="12" height="12" transform="rotate(0,298,346)"/><rect x="292" y="376" width="12" height="12" transform="rotate(0,298,382)"/><rect x="292" y="400" width="12" height="12" transform="rotate(0,298,406)"/><rect x="292" y="412" width="12" height="12" transform="rotate(0,298,418)"/><rect x="292" y="460" width="12" height="12" transform="rotate(0,298,466)"/><rect x="304" y="52" width="12" height="12" transform="rotate(0,310,58)"/><rect x="304" y="64" width="12" height="12" transform="rotate(0,310,70)"/><rect x="304" y="112" width="12" height="12" transform="rotate(0,310,118)"/><rect x="304" y="124" width="12" height="12" transform="rotate(0,310,130)"/><rect x="304" y="196" width="12" height="12" transform="rotate(0,310,202)"/><rect x="304" y="208" width="12" height="12" transform="rotate(0,310,214)"/><rect x="304" y="220" width="12" height="12" transform="rotate(0,310,226)"/><rect x="304" y="232" width="12" height="12" transform="rotate(0,310,238)"/><rect x="304" y="244" width="12" height="12" transform="rotate(0,310,250)"/><rect x="304" y="256" width="12" height="12" transform="rotate(0,310,262)"/><rect x="304" y="280" width="12" height="12" transform="rotate(0,310,286)"/><rect x="304" y="292" width="12" height="12" transform="rotate(0,310,298)"/><rect x="304" y="328" width="12" height="12" transform="rotate(0,310,334)"/><rect x="304" y="412" width="12" height="12" transform="rotate(0,310,418)"/><rect x="304" y="448" width="12" height="12" transform="rotate(0,310,454)"/><rect x="316" y="28" width="12" height="12" transform="rotate(0,322,34)"/><rect x="316" y="40" width="12" height="12" transform="rotate(0,322,46)"/><rect x="316" y="76" width="12" height="12" transform="rotate(0,322,82)"/><rect x="316" y="100" width="12" height="12" transform="rotate(0,322,106)"/><rect x="316" y="148" width="12" height="12" transform="rotate(0,322,154)"/><rect x="316" y="172" width="12" height="12" transform="rotate(0,322,178)"/><rect x="316" y="184" width="12" height="12" transform="rotate(0,322,190)"/><rect x="316" y="196" width="12" height="12" transform="rotate(0,322,202)"/><rect x="316" y="232" width="12" height="12" transform="rotate(0,322,238)"/><rect x="316" y="244" width="12" height="12" transform="rotate(0,322,250)"/><rect x="316" y="280" width="12" height="12" transform="rotate(0,322,286)"/><rect x="316" y="304" width="12" height="12" transform="rotate(0,322,310)"/><rect x="316" y="316" width="12" height="12" transform="rotate(0,322,322)"/><rect x="316" y="340" width="12" height="12" transform="rotate(0,322,346)"/><rect x="316" y="352" width="12" height="12" transform="rotate(0,322,358)"/><rect x="316" y="364" width="12" height="12" transform="rotate(0,322,370)"/><rect x="316" y="388" width="12" height="12" transform="rotate(0,322,394)"/><rect x="316" y="424" width="12" height="12" transform="rotate(0,322,430)"/><rect x="328" y="52" width="12" height="12" transform="rotate(0,334,58)"/><rect x="328" y="88" width="12" height="12" transform="rotate(0,334,94)"/><rect x="328" y="112" width="12" height="12" transform="rotate(0,334,118)"/><rect x="328" y="160" width="12" height="12" transform="rotate(0,334,166)"/><rect x="328" y="196" width="12" height="12" transform="rotate(0,334,202)"/><rect x="328" y="220" width="12" height="12" transform="rotate(0,334,226)"/><rect x="328" y="232" width="12" height="12" transform="rotate(0,334,238)"/><rect x="328" y="244" width="12" height="12" transform="rotate(0,334,250)"/><rect x="328" y="256" width="12" height="12" transform="rotate(0,334,262)"/><rect x="328" y="268" width="12" height="12" transform="rotate(0,334,274)"/><rect x="328" y="280" width="12" height="12" transform="rotate(0,334,286)"/><rect x="328" y="340" width="12" height="12" transform="rotate(0,334,346)"/><rect x="328" y="352" width="12" height="12" transform="rotate(0,334,358)"/><rect x="328" y="376" width="12" height="12" transform="rotate(0,334,382)"/><rect x="328" y="400" width="12" height="12" transform="rotate(0,334,406)"/><rect x="328" y="424" width="12" height="12" transform="rotate(0,334,430)"/><rect x="328" y="448" width="12" height="12" transform="rotate(0,334,454)"/><rect x="328" y="460" width="12" height="12" transform="rotate(0,334,466)"/><rect x="340" y="28" width="12" height="12" transform="rotate(0,346,34)"/><rect x="340" y="76" width="12" height="12" transform="rotate(0,346,82)"/><rect x="340" y="88" width="12" height="12" transform="rotate(0,346,94)"/><rect x="340" y="100" width="12" height="12" transform="rotate(0,346,106)"/><rect x="340" y="124" width="12" height="12" transform="rotate(0,346,130)"/><rect x="340" y="136" width="12" height="12" transform="rotate(0,346,142)"/><rect x="340" y="184" width="12" height="12" transform="rotate(0,346,190)"/><rect x="340" y="196" width="12" height="12" transform="rotate(0,346,202)"/><rect x="340" y="220" width="12" height="12" transform="rotate(0,346,226)"/><rect x="340" y="304" width="12" height="12" transform="rotate(0,346,310)"/><rect x="340" y="316" width="12" height="12" transform="rotate(0,346,322)"/><rect x="340" y="328" width="12" height="12" transform="rotate(0,346,334)"/><rect x="340" y="352" width="12" height="12" transform="rotate(0,346,358)"/><rect x="340" y="364" width="12" height="12" transform="rotate(0,346,370)"/><rect x="340" y="376" width="12" height="12" transform="rotate(0,346,382)"/><rect x="340" y="388" width="12" height="12" transform="rotate(0,346,394)"/><rect x="340" y="436" width="12" height="12" transform="rotate(0,346,442)"/><rect x="340" y="448" width="12" height="12" transform="rotate(0,346,454)"/><rect x="340" y="460" width="12" height="12" transform="rotate(0,346,466)"/><rect x="352" y="40" width="12" height="12" transform="rotate(0,358,46)"/><rect x="352" y="124" width="12" height="12" transform="rotate(0,358,130)"/><rect x="352" y="160" width="12" height="12" transform="rotate(0,358,166)"/><rect x="352" y="184" width="12" height="12" transform="rotate(0,358,190)"/><rect x="352" y="256" width="12" height="12" transform="rotate(0,358,262)"/><rect x="352" y="280" width="12" height="12" transform="rotate(0,358,286)"/><rect x="352" y="292" width="12" height="12" transform="rotate(0,358,298)"/><rect x="352" y="304" width="12" height="12" transform="rotate(0,358,310)"/><rect x="352" y="316" width="12" height="12" transform="rotate(0,358,322)"/><rect x="352" y="328" width="12" height="12" transform="rotate(0,358,334)"/><rect x="352" y="340" width="12" height="12" transform="rotate(0,358,346)"/><rect x="352" y="364" width="12" height="12" transform="rotate(0,358,370)"/><rect x="352" y="388" width="12" height="12" transform="rotate(0,358,394)"/><rect x="352" y="448" width="12" height="12" transform="rotate(0,358,454)"/><rect x="352" y="460" width="12" height="12" transform="rotate(0,358,466)"/><rect x="364" y="28" width="12" height="12" transform="rotate(0,370,34)"/><rect x="364" y="40" width="12" height="12" transform="rotate(0,370,46)"/><rect x="364" y="64" width="12" height="12" transform="rotate(0,370,70)"/><rect x="364" y="100" width="12" height="12" transform="rotate(0,370,106)"/><rect x="364" y="112" width="12" height="12" transform="rotate(0,370,118)"/><rect x="364" y="172" width="12" height="12" transform="rotate(0,370,178)"/><rect x="364" y="196" width="12" height="12" transform="rotate(0,370,202)"/><rect x="364" y="232" width="12" height="12" transform="rotate(0,370,238)"/><rect x="364" y="268" width="12" height="12" transform="rotate(0,370,274)"/><rect x="364" y="280" width="12" height="12" transform="rotate(0,370,286)"/><rect x="364" y="292" width="12" height="12" transform="rotate(0,370,298)"/><rect x="364" y="316" width="12" height="12" transform="rotate(0,370,322)"/><rect x="364" y="352" width="12" height="12" transform="rotate(0,370,358)"/><rect x="364" y="364" width="12" height="12" transform="rotate(0,370,370)"/><rect x="364" y="376" width="12" height="12" transform="rotate(0,370,382)"/><rect x="364" y="388" width="12" height="12" transform="rotate(0,370,394)"/><rect x="364" y="400" width="12" height="12" transform="rotate(0,370,406)"/><rect x="364" y="412" width="12" height="12" transform="rotate(0,370,418)"/><rect x="364" y="424" width="12" height="12" transform="rotate(0,370,430)"/><rect x="364" y="436" width="12" height="12" transform="rotate(0,370,442)"/><rect x="364" y="448" width="12" height="12" transform="rotate(0,370,454)"/><rect x="364" y="460" width="12" height="12" transform="rotate(0,370,466)"/><rect x="376" y="124" width="12" height="12" transform="rotate(0,382,130)"/><rect x="376" y="148" width="12" height="12" transform="rotate(0,382,154)"/><rect x="376" y="208" width="12" height="12" transform="rotate(0,382,214)"/><rect x="376" y="232" width="12" height="12" transform="rotate(0,382,238)"/><rect x="376" y="244" width="12" height="12" transform="rotate(0,382,250)"/><rect x="376" y="256" width="12" height="12" transform="rotate(0,382,262)"/><rect x="376" y="292" width="12" height="12" transform="rotate(0,382,298)"/><rect x="376" y="304" width="12" height="12" transform="rotate(0,382,310)"/><rect x="376" y="316" width="12" height="12" transform="rotate(0,382,322)"/><rect x="376" y="328" width="12" height="12" transform="rotate(0,382,334)"/><rect x="376" y="340" width="12" height="12" transform="rotate(0,382,346)"/><rect x="376" y="364" width="12" height="12" transform="rotate(0,382,370)"/><rect x="376" y="412" width="12" height="12" transform="rotate(0,382,418)"/><rect x="376" y="460" width="12" height="12" transform="rotate(0,382,466)"/><rect x="388" y="124" width="12" height="12" transform="rotate(0,394,130)"/><rect x="388" y="136" width="12" height="12" transform="rotate(0,394,142)"/><rect x="388" y="160" width="12" height="12" transform="rotate(0,394,166)"/><rect x="388" y="172" width="12" height="12" transform="rotate(0,394,178)"/><rect x="388" y="184" width="12" height="12" transform="rotate(0,394,190)"/><rect x="388" y="196" width="12" height="12" transform="rotate(0,394,202)"/><rect x="388" y="208" width="12" height="12" transform="rotate(0,394,214)"/><rect x="388" y="232" width="12" height="12" transform="rotate(0,394,238)"/><rect x="388" y="244" width="12" height="12" transform="rotate(0,394,250)"/><rect x="388" y="280" width="12" height="12" transform="rotate(0,394,286)"/><rect x="388" y="352" width="12" height="12" transform="rotate(0,394,358)"/><rect x="388" y="364" width="12" height="12" transform="rotate(0,394,370)"/><rect x="388" y="388" width="12" height="12" transform="rotate(0,394,394)"/><rect x="388" y="412" width="12" height="12" transform="rotate(0,394,418)"/><rect x="388" y="436" width="12" height="12" transform="rotate(0,394,442)"/><rect x="388" y="448" width="12" height="12" transform="rotate(0,394,454)"/><rect x="388" y="460" width="12" height="12" transform="rotate(0,394,466)"/><rect x="400" y="124" width="12" height="12" transform="rotate(0,406,130)"/><rect x="400" y="148" width="12" height="12" transform="rotate(0,406,154)"/><rect x="400" y="196" width="12" height="12" transform="rotate(0,406,202)"/><rect x="400" y="292" width="12" height="12" transform="rotate(0,406,298)"/><rect x="400" y="304" width="12" height="12" transform="rotate(0,406,310)"/><rect x="400" y="316" width="12" height="12" transform="rotate(0,406,322)"/><rect x="400" y="352" width="12" height="12" transform="rotate(0,406,358)"/><rect x="400" y="364" width="12" height="12" transform="rotate(0,406,370)"/><rect x="400" y="412" width="12" height="12" transform="rotate(0,406,418)"/><rect x="400" y="436" width="12" height="12" transform="rotate(0,406,442)"/><rect x="400" y="448" width="12" height="12" transform="rotate(0,406,454)"/><rect x="412" y="184" width="12" height="12" transform="rotate(0,418,190)"/><rect x="412" y="208" width="12" height="12" transform="rotate(0,418,214)"/><rect x="412" y="244" width="12" height="12" transform="rotate(0,418,250)"/><rect x="412" y="268" width="12" height="12" transform="rotate(0,418,274)"/><rect x="412" y="316" width="12" height="12" transform="rotate(0,418,322)"/><rect x="412" y="328" width="12" height="12" transform="rotate(0,418,334)"/><rect x="412" y="340" width="12" height="12" transform="rotate(0,418,346)"/><rect x="412" y="364" width="12" height="12" transform="rotate(0,418,370)"/><rect x="412" y="376" width="12" height="12" transform="rotate(0,418,382)"/><rect x="412" y="388" width="12" height="12" transform="rotate(0,418,394)"/><rect x="412" y="400" width="12" height="12" transform="rotate(0,418,406)"/><rect x="412" y="412" width="12" height="12" transform="rotate(0,418,418)"/><rect x="412" y="424" width="12" height="12" transform="rotate(0,418,430)"/><rect x="412" y="448" width="12" height="12" transform="rotate(0,418,454)"/><rect x="424" y="124" width="12" height="12" transform="rotate(0,430,130)"/><rect x="424" y="136" width="12" height="12" transform="rotate(0,430,142)"/><rect x="424" y="148" width="12" height="12" transform="rotate(0,430,154)"/><rect x="424" y="184" width="12" height="12" transform="rotate(0,430,190)"/><rect x="424" y="196" width="12" height="12" transform="rotate(0,430,202)"/><rect x="424" y="208" width="12" height="12" transform="rotate(0,430,214)"/><rect x="424" y="232" width="12" height="12" transform="rotate(0,430,238)"/><rect x="424" y="244" width="12" height="12" transform="rotate(0,430,250)"/><rect x="424" y="256" width="12" height="12" transform="rotate(0,430,262)"/><rect x="424" y="280" width="12" height="12" transform="rotate(0,430,286)"/><rect x="424" y="304" width="12" height="12" transform="rotate(0,430,310)"/><rect x="424" y="316" width="12" height="12" transform="rotate(0,430,322)"/><rect x="424" y="328" width="12" height="12" transform="rotate(0,430,334)"/><rect x="424" y="364" width="12" height="12" transform="rotate(0,430,370)"/><rect x="424" y="376" width="12" height="12" transform="rotate(0,430,382)"/><rect x="424" y="400" width="12" height="12" transform="rotate(0,430,406)"/><rect x="424" y="412" width="12" height="12" transform="rotate(0,430,418)"/><rect x="424" y="424" width="12" height="12" transform="rotate(0,430,430)"/><rect x="424" y="460" width="12" height="12" transform="rotate(0,430,466)"/><rect x="436" y="136" width="12" height="12" transform="rotate(0,442,142)"/><rect x="436" y="148" width="12" height="12" transform="rotate(0,442,154)"/><rect x="436" y="160" width="12" height="12" transform="rotate(0,442,166)"/><rect x="436" y="196" width="12" height="12" transform="rotate(0,442,202)"/><rect x="436" y="220" width="12" height="12" transform="rotate(0,442,226)"/><rect x="436" y="232" width="12" height="12" transform="rotate(0,442,238)"/><rect x="436" y="256" width="12" height="12" transform="rotate(0,442,262)"/><rect x="436" y="280" width="12" height="12" transform="rotate(0,442,286)"/><rect x="436" y="304" width="12" height="12" transform="rotate(0,442,310)"/><rect x="436" y="316" width="12" height="12" transform="rotate(0,442,322)"/><rect x="436" y="328" width="12" height="12" transform="rotate(0,442,334)"/><rect x="436" y="340" width="12" height="12" transform="rotate(0,442,346)"/><rect x="436" y="352" width="12" height="12" transform="rotate(0,442,358)"/><rect x="436" y="364" width="12" height="12" transform="rotate(0,442,370)"/><rect x="436" y="376" width="12" height="12" transform="rotate(0,442,382)"/><rect x="436" y="412" width="12" height="12" transform="rotate(0,442,418)"/><rect x="436" y="424" width="12" height="12" transform="rotate(0,442,430)"/><rect x="436" y="460" width="12" height="12" transform="rotate(0,442,466)"/><rect x="448" y="124" width="12" height="12" transform="rotate(0,454,130)"/><rect x="448" y="160" width="12" height="12" transform="rotate(0,454,166)"/><rect x="448" y="184" width="12" height="12" transform="rotate(0,454,190)"/><rect x="448" y="244" width="12" height="12" transform="rotate(0,454,250)"/><rect x="448" y="256" width="12" height="12" transform="rotate(0,454,262)"/><rect x="448" y="268" width="12" height="12" transform="rotate(0,454,274)"/><rect x="448" y="280" width="12" height="12" transform="rotate(0,454,286)"/><rect x="448" y="304" width="12" height="12" transform="rotate(0,454,310)"/><rect x="448" y="316" width="12" height="12" transform="rotate(0,454,322)"/><rect x="448" y="328" width="12" height="12" transform="rotate(0,454,334)"/><rect x="448" y="340" width="12" height="12" transform="rotate(0,454,346)"/><rect x="448" y="352" width="12" height="12" transform="rotate(0,454,358)"/><rect x="448" y="364" width="12" height="12" transform="rotate(0,454,370)"/><rect x="448" y="376" width="12" height="12" transform="rotate(0,454,382)"/><rect x="448" y="388" width="12" height="12" transform="rotate(0,454,394)"/><rect x="448" y="400" width="12" height="12" transform="rotate(0,454,406)"/><rect x="448" y="412" width="12" height="12" transform="rotate(0,454,418)"/><rect x="460" y="148" width="12" height="12" transform="rotate(0,466,154)"/><rect x="460" y="184" width="12" height="12" transform="rotate(0,466,190)"/><rect x="460" y="268" width="12" height="12" transform="rotate(0,466,274)"/><rect x="460" y="280" width="12" height="12" transform="rotate(0,466,286)"/><rect x="460" y="304" width="12" height="12" transform="rotate(0,466,310)"/><rect x="460" y="316" width="12" height="12" transform="rotate(0,466,322)"/><rect x="460" y="328" width="12" height="12" transform="rotate(0,466,334)"/><rect x="460" y="352" width="12" height="12" transform="rotate(0,466,358)"/><rect x="460" y="364" width="12" height="12" transform="rotate(0,466,370)"/><rect x="460" y="400" width="12" height="12" transform="rotate(0,466,406)"/><rect x="460" y="412" width="12" height="12" transform="rotate(0,466,418)"/><rect x="460" y="424" width="12" height="12" transform="rotate(0,466,430)"/><rect x="460" y="448" width="12" height="12" transform="rotate(0,466,454)"/><rect x="460" y="460" width="12" height="12" transform="rotate(0,466,466)"/><path clip-rule="evenodd" d="M 28 28v 84h 84v -84zM 40 40h 60v 60h -60z" transform="rotate(0,70,70)"/><rect x="52" y="52" width="36" height="36" transform="rotate(0,70,70)"/><path clip-rule="evenodd" d="M 388 28v 84h 84v -84zM 400 40h 60v 60h -60z" transform="rotate(90,430,70)"/><rect x="412" y="52" width="36" height="36" transform="rotate(90,430,70)"/><path clip-rule="evenodd" d="M 28 388v 84h 84v -84zM 40 400h 60v 60h -60z" transform="rotate(-90,70,430)"/><rect x="52" y="412" width="36" height="36" transform="rotate(-90,70,430)"/></clipPath></defs><rect x="0" y="0" height="500" width="500" clip-path="url('#clip-path-background-color')" fill="#fff"/><rect x="0" y="0" height="500" width="500" clip-path="url('#clip-path-dot-color')" fill="#000000"/></svg>