<?xml version="1.0" encoding="UTF-8"?>
<svg xmlns="http://www.w3.org/2000/svg" version="1.1" xmlns:xlink="http://www.w3.org/1999/xlink" viewBox="0 0 3907.6 2706.1">
  <defs>
    <style>
      .cls-1 {
        clip-path: url(#clippath-2);
      }

      .cls-2 {
        isolation: isolate;
      }

      .cls-3, .cls-4, .cls-5, .cls-6, .cls-7, .cls-8, .cls-9 {
        fill: none;
      }

      .cls-3, .cls-6 {
        stroke: #e30613;
        stroke-linecap: square;
      }

      .cls-3, .cls-6, .cls-7, .cls-8 {
        stroke-linejoin: round;
        stroke-width: 1px;
      }

      .cls-3, .cls-10, .cls-9 {
        display: none;
      }

      .cls-4, .cls-11, .cls-12, .cls-13 {
        stroke-width: 0px;
      }

      .cls-5, .cls-9 {
        stroke: #fff;
        stroke-linecap: round;
        stroke-miterlimit: 10;
        stroke-width: 22px;
      }

      .cls-14 {
        clip-path: url(#clippath-1);
      }

      .cls-11 {
        fill: #1a1a1a;
        opacity: .5;
      }

      .cls-15 {
        clip-path: url(#clippath);
      }

      .cls-16 {
        clip-path: url(#clippath-3);
      }

      .cls-17 {
        mix-blend-mode: color-dodge;
        opacity: .6;
      }

      .cls-12 {
        fill: #fff;
      }

      .cls-13, .cls-18 {
        fill: #56a446;
      }

      .cls-7 {
        stroke: #009640;
      }

      .cls-8 {
        stroke: #e6007e;
      }

      .cls-18 {
        font-size: 234px;
      }
    </style>
    <clipPath id="clippath">
      <rect class="cls-4" x="683.3" y="-1488" width="2466.2" height="7259.9"/>
    </clipPath>
    <clipPath id="clippath-1">
      <rect class="cls-4" x="683.3" y="-1488" width="2466.2" height="7259.9"/>
    </clipPath>
    <clipPath id="clippath-2">
      <rect class="cls-4" x="3169.5" y="-3029.7" width="345.8" height="8801.6"/>
    </clipPath>
    <clipPath id="clippath-3">
      <rect class="cls-4" x="3169.5" y="-3029.7" width="345.8" height="8801.6"/>
    </clipPath>
  </defs>
  <g class="cls-2">
    <g id="Livello_1" data-name="Livello 1">
      <g class="cls-10">
        <g class="cls-15">
          <g class="cls-14">
            <path class="cls-7" d="M3107.9,3848.2c-21.4,198.1-60.2,395.7-115.5,587.2-47.5,164.9-115.5,323.6-202.1,471.6h0c-79.7,135.1-179.4,256.4-296.5,360.6l-.2.2c-133.7,116.4-283.8,211.1-446.3,281.6-152.5,66.6-312.5,117.6-475.4,151.8-141.5,30-286.4,50.6-430.8,61.1-83.1,6.2-167.6,9.5-251.1,9.5s-41.3-.2-61.8-.6c-27.7-.4-81.6-2.9-83.8-3l-26.7-1.2-26.9-1479.1-7.1-1570.3v-376.6c0,0,0-1196.9,0-1196.9-1.3-235.8,11.1-474.3,36.9-708.7,21.3-198.1,60.2-395.7,115.5-587.2,47.5-164.9,115.5-323.6,202.1-471.7h0c79.7-135.1,179.4-256.4,296.5-360.6l.2-.2c133.6-116.3,283.8-211.1,446.3-281.6,152.5-66.6,312.5-117.6,475.4-151.7,141.5-30.1,286.5-50.6,430.8-61.1,83.1-6.3,167.6-9.4,251.1-9.4s41.3.2,61.8.6c40.2.6,118.4,5.3,121.8,5.5l26.6,1.6.9,3757.3-.4,414.2-4.3,448.4c1.3,235.8-11.1,474.2-36.8,708.6Z"/>
            <path class="cls-6" d="M3059.7,3140c1.2,232.6-11,467.8-36.3,698.9h0c-20.8,193.4-58.8,386.1-112.7,572.9-45.5,158.1-110.7,310.2-193.7,452.2-75.1,127.3-169.2,241.7-279.6,340-127,110.5-269.7,200.5-424.1,267.5h-.1c-147.2,64.4-301.6,113.6-458.9,146.5h-.1c-137.8,29.2-278.9,49.3-419.4,59.6h-.1c-81.1,6.1-247.9,9.2-249.4,9.2l-24.6-1400.1-7.1-1569.3v-376.2c0,0,0-1197.8,0-1197.8-1.2-229.3,10.8-461.2,35.8-689.2v-.3c20.3-188.4,57.3-376.2,109.9-558.3h0c43.5-151.3,105.9-296.9,185.3-432.7,70.5-119.5,158.8-226.9,262.4-319.2,120.4-104.6,255.5-189.9,401.8-253.4h.3c141.9-62.1,290.8-109.6,442.3-141.3h.4c134-28.5,271.3-48,407.9-58h.3c78.9-6,159.2-9,238.4-9s111.8-.2,125.2,0l.9,3595-.4,414.1h0c0-.1-4.3,448.9-4.3,448.9Z"/>
            <path class="cls-8" d="M3116.4,3139.6c1.3,235.4-11,471.4-36.7,705.5-21.2,196.9-59.7,392.1-114.6,582.4-46.8,162.6-113.9,319.2-199.3,465.2-78,132.1-176.3,251.7-291,353.8-131.2,114.1-279.5,207.8-439,277-150.9,65.9-308.7,116.2-469.9,150-140.7,29.9-283.6,50.2-427.1,60.6-103.2,7.8-206.9,10.7-310.4,8.8-27.5-.4-83.1-3-83.1-3l-26.6-1452-7.1-1570.2v-376.6c0,0,0-1197,0-1197-1.3-235.4,11-471.4,36.7-705.4,21.2-196.9,59.6-392.2,114.6-582.4,46.8-162.6,113.9-319.2,199.4-465.2,78-132.2,176.3-251.7,290.9-353.8,131.2-114.2,279.5-207.8,439-277,150.9-65.9,308.8-116.3,470-150,140.7-29.9,283.6-50.1,427-60.6,103.2-7.8,207-10.7,310.4-8.8,39.9.6,120.6,5.4,120.6,5.4l.9,3730.6-4.7,862.6Z"/>
          </g>
        </g>
      </g>
      <g class="cls-10">
        <g class="cls-1">
          <g class="cls-16">
            <rect class="cls-7" x="3169.5" y="-3029.7" width="345.8" height="8801.5"/>
            <rect class="cls-6" x="3240.4" y="-2958.9" width="204.1" height="8659.8"/>
            <rect class="cls-8" x="3197.9" y="-3001.4" width="289.1" height="8744.9"/>
          </g>
        </g>
      </g>
      <path class="cls-3" d="M3059.7,3140c1.2,232.6-11,467.8-36.3,698.9h0c-20.8,193.4-58.8,386.1-112.7,572.9-45.5,158.1-110.7,310.2-193.7,452.2-75.1,127.3-169.2,241.7-279.6,340-127,110.5-269.7,200.5-424.1,267.5h-.1c-147.2,64.4-301.6,113.6-458.9,146.5h-.1c-137.8,29.2-278.9,49.3-419.4,59.6h-.1c-81.1,6.1-247.9,9.2-249.4,9.2l-24.6-1400.1-7.1-1569.3v-376.2c0,0,0-1197.8,0-1197.8-1.2-229.3,10.8-461.2,35.8-689.2v-.3c20.3-188.4,57.3-376.2,109.9-558.3h0c43.5-151.3,105.9-296.9,185.3-432.7,70.5-119.5,158.8-226.9,262.4-319.2,120.4-104.6,255.5-189.9,401.8-253.4h.3c141.9-62.1,290.8-109.6,442.3-141.3h.4c134-28.5,271.3-48,407.9-58h.3c78.9-6,159.2-9,238.4-9s111.8-.2,125.2,0l.9,3595-.4,414.1h0c0-.1-4.3,448.9-4.3,448.9Z"/>
      <g class="cls-10">
        <path class="cls-11" d="M-2615.1-1430.8c-13.6,39.8-29,70.5-44.9,94-57.1,84.7-120.3,77.8-124.4,77.3-4.1.5-67.2,7.4-124.3-77.2-15.9-23.6-31.3-54.2-44.9-94-42.7-125.3-54-274.9,10.6-360.6,32.2-42.7,83.2-69.5,158.5-69.6h.4c226.5.3,233,242.5,169.1,430.2Z"/>
        <path class="cls-11" d="M-1804,.3c-14,0-28.6-1.9-43.4-6.5-33.2-10.3-67.3-33.8-98.1-77.7-5.3-7.5-10.4-15.6-15.5-24.4,0,0-89.1-17.9-184.7-62.4-97.2-45.3-200.9-118-224.2-227.4-17.3-81.1-29.9-157-38.9-220.3-11.7-82.2-17.3-143.1-19.3-166.2-.3-3.7-3.3-6.5-7-6.5h-1.1c-4,0-7.3,3.4-7,7.4l9.5,176.3,20.6,473.3c-72.2,27.6-128.3,68.4-158.3,116.5,36.1-40.3,91.6-73.7,159.2-96,7.3-2.4,14.8-4.7,22.4-6.9,53.1-15.1,112.7-23.5,175.7-23.5s57.5,1.8,84.8,5.2c69.1,29.4,130.5,45,153.9,50.4,46.9,76.4,101.7,102.7,146,109.3,12,22.3,18.5,46,18.5,70.7s-8.6,55.6-24.4,80.8c-56.4,90.3-204.7,154.7-378.8,154.7s-35.2-.7-52.3-2c10-62.3-21.6-186.5-133.6-128.4,2.2-.6,121.3-31.7,113.1,126.6-6.3,52.8-41.7,93.2-84.4,93.2h-825.3c-42.7,0-78.1-40.4-84.4-93.2,6.2-147.8,86.2-111.7,208.9-111.7s182.1-20.6,289.6-52.6c13.5-4,26.8-8.2,40.1-12.5,65-21.3,126.3-46.6,173.4-73.6C-2435.6-3.3-2176,.3-2176,.3c-290.7-49.3-383.3,62.7-606.4,134.4C-3005.4,63-3098-49-3388.7.3c0,0,259.5-3.6,392.9,72.9,47.1,27,108.4,52.2,173.4,73.6-234.5,66.3-236,24.3-385.3,33.1-83,4.9-98.8,92.3-95.1,145.7-16.6,1.2-33.6,1.8-50.8,1.8-174.1,0-322.4-64.4-378.8-154.7,0,0,0,0,0,0-15.8-25.2-24.4-52.4-24.4-80.8s6.5-48.4,18.5-70.7c44.3-6.6,99.1-32.8,146-109.3,23.8-5.5,85.1-21.1,153.9-50.4,0,0,0,0,0,0,27.3-3.4,55.7-5.2,84.7-5.2,62.5,0,121.8,8.3,174.6,23.2,7.6,2.1,15.1,4.4,22.4,6.8,68.1,22.3,123.9,55.8,160.2,96.3-30.2-48.3-86.7-89.2-159.3-116.8l20.5-473.2,9.5-176c.2-4-3-7.4-7-7.4s-3.5.7-4.8,1.9c-1.3,1.2-2.1,2.8-2.2,4.6-1.9,23.1-7.6,84-19.3,166.3-9,63.2-21.6,139.1-38.8,220.1-23.3,109.4-127,182.1-224.2,227.4h0c-94.2,43.9-182.2,61.9-184.6,62.4h0c-5,8.7-10.2,16.8-15.5,24.3-30.8,44-65,67.5-98.2,77.7-14.8,4.6-29.3,6.5-43.4,6.5-78.8-.3-139.8-63.3-116.2-77.1,42.7-24.9,61.6-54.5,61.6-54.5-2.4-46.8,16.6-90.7,61.6-90.1,26.9.4,98-2.3,100.1-2.4,0,0,129.8-87.1,213.3-160,75-65.5,78.4-401.2,78.3-469,0,0,0,0,0,0,0,0,0,0,0,0,0,0,0,0,0,0t0,0s0,0,0,0c-.2-3.9-.4-7.8-.4-11.7,0-111.9,102.6-210.5,258.4-268.3,54.1-20.1,114.7-35.3,179.6-44.4l18.6-159.4c57.1,84.7,120.3,77.8,124.3,77.2,4.1.5,67.2,7.4,124.4-77.3l18.6,159.3c64.9,9.1,125.4,24.2,179.6,44.3,156.3,57.8,259.2,156.5,259.2,268.6s0,.6,0,.9c0,.8,0,1.7,0,2.5,0,0,0,.1,0,.2,0,0,0,.1,0,.2-.3,41.3-.6,408.3,78.3,477.1,83.6,72.9,213.3,160,213.3,160,0,0,72.8,2.7,100.2,2.4,45-.6,63.9,43.3,61.6,90.1,0,0,19,29.6,61.6,54.5C-1664.1-63-1725.2.1-1804,.3Z"/>
      </g>
      <path class="cls-9" d="M3861,859.7s-235.8,186.9-460.5,142.4c-224.7-44.5-411.5-186.9-511.6-157.9-64.2,18.6-119.3,88.4-120,156-.9,88.3,129.2,98.3,139.8,10.6,5.8-48.4-29-116.7-171.1-206.7-324.8-205.8-740.7-160.9-929.8-102.3s-518.3,175.7-441.2,636.9c0,0,45.2,143.8,107.5,259.5,61.2,113.6-76.9,855.6-87.5,890.6-10.6,35-14.2,54.5-51.5,107.9-37.3,53.3-156.4,14.2-96-42.7,60.4-56.9,163.8-55.6,244.7-54.9,80.8.7,537.6,0,537.6,0,0,0,58.6,15.4,48.2-59.1-10.4-74.4,17.8-161.2,51.9-204.2,34.1-43,34.1-163.1-37.1-151.3-71.2,11.9,81,93.4,351.5,103.8,0,0,96.4,1.5,97.9-133.5,0,0-19.3-61.5,31.9-76.4,51.2-14.8,39.9-86,9.9-94.9-30-8.9-79.6-17.2-114.2-57.7-21.6-25.2,32.9,71.1,115.1,53.1,23.9-5.3,40.6-25.4,29.2-47.1-14.5-27.5-31.6-70.7-10.3-92.9,32.6-34.1,80.1-30.4,66-51.2-14.1-20.8-152.7,46-26.7,46s84.5-97.9,65.3-121.6c-19.3-23.7-145.3-162.4-137.9-271.4,7.4-109,7.4-279.5-85.9-439.1-80-136.8-258.1-362.5-611.1-325.4-352.9,37.1-694.3,375.2-574.8,799.3,116,411.7,325.1,460.6,220.5,780.9-24.1,74-101.1,144.5-152.3,203.1-88.2,100.9-217.4,208.2-469.3,149,0,0-241.7-145.3-23.7-247.7,218-102.3,32.8,312.1-106.8,385.6-51.9,27.3-191.3,59.3-336.6-16.3-145.3-75.6-342.6-57.8-388.5-14.8"/>
      <path class="cls-5" d="M-2097-7672s-235.8,186.9-460.5,142.4c-224.7-44.5-411.5-186.9-511.6-157.9-64.2,18.6-119.3,88.4-120,156-.9,88.3,129.2,98.3,139.8,10.6,5.8-48.4-29-116.7-171.1-206.7-324.8-205.8-740.7-160.9-929.8-102.3-44,13.6-518.3,175.7-441.2,636.9,0,0,45.2,143.8,107.5,259.5,61.2,113.6-76.9,855.6-87.5,890.6-10.6,35-14.2,54.5-51.5,107.9-37.3,53.3-156.4,14.2-96-42.7,60.4-56.9,163.8-55.6,244.7-54.9,80.8.7,537.6,0,537.6,0,0,0,58.6,15.4,48.2-59.1-10.4-74.4,17.8-161.2,51.9-204.2,34.1-43,34.1-163.1-37.1-151.3-71.2,11.9,81,93.4,351.5,103.8,0,0,96.4,1.5,97.9-133.5,0,0-19.3-61.5,31.9-76.4,51.2-14.8,39.9-86,9.9-94.9-30-8.9-79.6-17.2-114.2-57.7-21.6-25.2,32.9,71.1,115.1,53.1,23.9-5.3,40.6-25.4,29.2-47.1-14.5-27.5-31.6-70.7-10.3-92.9,32.6-34.1,80.1-30.4,66-51.2-14.1-20.8-152.7,46-26.7,46s84.5-97.9,65.3-121.6c-19.3-23.7-145.3-162.4-137.9-271.4,7.4-109,7.4-279.5-85.9-439.1-80-136.8-258.1-362.5-611.1-325.4-352.9,37.1-694.3,375.2-574.8,799.3,116,411.7,325.1,460.6,220.5,780.9-24.1,74-101.1,144.5-152.3,203.1-88.2,100.9-217.4,208.2-469.3,149,0,0-241.7-145.3-23.7-247.7,218-102.3,32.8,312.1-106.8,385.6-51.9,27.3-191.3,59.3-336.6-16.3-145.3-75.6-342.6-57.8-388.5-14.8"/>
      <line class="cls-5" x1="-3075.8" y1="-7420.3" x2="-3075.8" y2="-5580.3"/>
      <g>
        <g class="cls-17">
          <path class="cls-13" d="M2780.3,941.2c0,232.5-95.3,442.8-248.9,593.9-171.7,168.9-269.6,398.9-269.6,639.8v6h-629.4v-6c0-240.9-97.9-470.9-269.6-639.8-153.6-151.1-248.9-361.4-248.9-593.9,0-460.1,373-833.1,833.1-833.1s833.1,373,833.1,833.1Z"/>
          <rect class="cls-13" x="1632.5" y="2228.3" width="629.3" height="69.9" rx="18.7" ry="18.7"/>
          <rect class="cls-13" x="1632.5" y="2340.1" width="629.3" height="69.9" rx="18.7" ry="18.7"/>
        </g>
        <path class="cls-13" d="M612.2,2378.4c-67.3,0-134.5-16.6-195.3-48.2-143.6-74.7-334.9-54.9-375.9-16.6-4.4,4.2-11.4,3.9-15.5-.5-4.2-4.4-3.9-11.4.5-15.5,26-24.3,89-39.7,164.5-40,49.8-.2,146.7,6.3,236.7,53.1,61.5,32,130,47.8,197.9,45.5,57.5-1.9,104.1-16.3,128.5-29.2,36.2-19,79.9-66.2,118.5-126.2-30.9-20.9-112.1-82.7-108.5-151.9,2.2-42.2,34.9-78.4,97.3-107.7,27.5-12.9,49.7-18.5,67.9-17,18.6,1.5,32.6,10.7,40.5,26.6,10,20.2,10,50.7-.1,90.6-8.9,35-25.1,75.5-46.9,116.9-5.6,10.6-11.7,21.5-18.2,32.6,234.2,50.8,357-46.1,446.2-148.3,10.7-12.3,22.4-24.9,34.7-38.2,9.6-10.3,19.4-21,29.2-31.9,10.7-63.5,22.1-136.4,32.4-211,14.2-102.8,23.7-191,28.6-262.8-12.2-23.7-25.9-48.2-40.6-74.2-48.7-86.5-109.3-194.2-154.8-355.7-26.3-93.5-31.7-186.5-15.9-276.6,14.6-83.4,47-162.4,96.1-234.8,55.7-82.2,132.2-153.5,221.1-206.4,87.8-52.2,185.7-85.2,282.9-95.4,143.4-15.1,272.2,11.4,383.3,78.6,83,5.1,162.8,18,237.7,38.3,94.6,25.7,181.6,63.5,258.7,112.4,35.2,22.3,65.2,44.1,89.9,65.5,16-12.1,33.8-21.3,52.4-26.7,57.8-16.7,137.1,17.6,237.5,61,83,35.9,177,76.5,279.3,96.8,113.1,22.4,229.7-16.8,307.6-53.7,84.9-40.1,143.3-86.1,143.9-86.5,4.8-3.8,11.7-3,15.5,1.8,3.8,4.8,3,11.7-1.8,15.5-2.4,1.9-60.9,48-148.1,89.2-51.3,24.3-101.8,41.7-150.2,51.8-60.8,12.8-118.4,13.9-171.1,3.5-104.6-20.7-199.8-61.9-283.8-98.1-92.5-40-172.4-74.5-222.6-60-14.6,4.2-28.8,11.4-41.8,20.7,51.2,48.5,74.5,94.3,69.4,136.7-5.9,49.2-44.2,70.6-79.4,70.6-1.9,0-3.7,0-5.5-.2-20.3-1.3-39.2-9.4-53.1-22.9-15.7-15.2-23.9-35.8-23.7-59.6.5-45.5,23.7-92.2,58.5-125.4-23.4-19.9-51.7-40.4-84.7-61.3-139.8-88.6-297.4-129.7-445.7-143.5,76.8,55.3,143.8,131.4,199.4,226.4,41.9,71.7,69.6,153.3,82.1,242.5,11.5,81.8,8.5,154.9,5.3,202.9-2.7,40.3,13.9,90.3,49.4,148.5,29.2,47.8,63,87.8,79.3,107.1,2.9,3.4,5.2,6.2,6.8,8.2,6.1,7.5,15.2,22.9,20.5,41.3,6.2,21.7,5.6,41.5-1.9,57.3-12.9,27.2-44,41-92.3,41s-20.1-.5-28-1.5c-1.1,1-2.2,2.1-3.3,3.3-12.4,12.9-7.9,42.1,12.1,80.1,6.1,11.5,6.6,24,1.4,35.1-4.2,9-11.7,16.5-21.4,21.7,10.2,10.7,16.7,27.6,16.6,45.9,0,29-16.7,51.8-43.3,59.5-10.6,3.1-17.9,8.6-22.4,16.8-10.2,18.8-2.1,45.4-2.1,45.7l.5,1.6v1.7c-.6,50.7-14.1,89.3-40.1,114.7-30.7,29.9-67.4,29.7-69,29.7h-.3c-99.4-3.8-195.5-18.1-270.6-40-3.5-1-6.8-2-10.2-3.1.6,31.7-8,65.5-24.5,86.4-32.2,40.6-59.5,124.9-49.6,195.8,4,28.6-1,49.3-14.8,61.6-16.5,14.6-39.3,11.2-45.5,9.9-26.4,0-458.6.7-536.5,0h-1.3c-28.8-.3-60.2-.6-91.1,1.7-7.7,25.2-16.4,47.3-47.1,91.2-19.2,27.4-53.5,32.8-79.2,28.8-26.4-4.1-46.4-18-52-36.1-3.5-11.3-3.1-29.1,18.7-49.6,37.6-35.4,89.5-49.4,142.9-54.8.5-1.8,1.1-3.6,1.7-5.5,2.7-8.9,15.4-72.7,31-163-2.1,2.2-4.1,4.5-6.2,6.7-12.2,13.2-23.8,25.7-34.3,37.7-40,45.8-96.3,102.8-177.2,137.4-40.9,17.5-85.5,28-132.4,31.2-50.9,3.4-106.6-1.6-165.4-15-35.7,56-81.9,111.5-128,135.8-12.9,6.8-61.1,29.2-138.1,31.7-4.5.1-9,.2-13.4.2ZM1367.4,2204.2c-46.1,5.7-89.7,18.7-120.8,47.9-7.5,7-15.7,17.4-12.7,27.1,3,9.8,16.8,18.2,34.3,20.9,18.3,2.9,44.4-.6,57.8-19.7,25.3-36.1,34.5-55.8,41.3-76.2ZM922.4,1945.9c-13.3,0-30.8,5.1-52.4,15.2-54.5,25.6-83,55.5-84.7,88.9-2.9,57,69.7,112.5,98.2,132,6.6-11,13-22.4,19.1-34,43-81.8,61.8-157.2,46.7-187.5-4.9-9.8-13.9-14.7-27-14.7ZM2022.8,2178.2l1.4.4c.1,0,17,4.1,26.9-4.8,7.8-7,10.4-21.6,7.6-42.1-11.1-79.7,19.6-169,54.2-212.5,13.5-17.1,21.7-50.5,19.6-80.1-17.2-6.1-32.1-12.5-43.9-18.9-21.5-11.6-31.9-22.1-32.6-33.2-.4-6.9,2.4-19,26.6-23,25.1-4.2,45.9,5.4,58.6,27,5.3,9,9,19.9,11.1,31.7,7.8,2.6,16,5,24.5,7.5,72.4,20.5,164.5,33.8,259.3,37.5h0c4.4,0,84.6-1.7,86.6-121-2-7.6-8.6-36.9,4.2-60.8,7.3-13.6,19.3-22.9,35.7-27.6,24.7-7.2,27.4-29.3,27.5-38.4,0-16.6-7.8-32.5-17.6-35.4-2.5-.7-5.2-1.5-7.9-2.2-33,2.7-60.2-10.5-78-23-22.7-15.9-37.1-35.2-39.8-42-2.6-6.6.3-12.1,4.4-14.6,8.7-5.2,15.7,3,18.7,6.5,27.6,32.2,66.6,42.7,95.1,50.4.5.1,1,.3,1.5.4,2.6-.3,5.2-.8,7.8-1.3,10.6-2.3,19.3-8.3,22.7-15.6,2.3-4.9,2-10.2-.9-15.6-23.4-44.3-27.8-78.6-13.1-100.1-6.5-3.5-10.2-8.1-11.4-14-4-19.9,26.5-35.1,39.8-40.7,13.9-5.8,47.6-17.6,59.1-.6,4.2,6.2,5.4,12.2,3.7,18-3.1,10.2-13.6,14.6-26.9,20.1-2.3,1-4.7,1.9-7.1,3,35.9-.9,58.4-10.4,67-28.3,11.7-24.6-4.8-61.7-15.7-75.3-1.5-1.8-3.7-4.5-6.6-7.8-16.6-19.6-51.2-60.5-81.2-109.8-37.9-62.2-55.6-116.5-52.6-161.4,7.5-110.9,7-276.5-84.5-432.8-62-105.9-137.9-186.6-225.8-240.9-177.5-10.2-336.9,17.1-429.6,45.8-14.6,4.5-146,47.1-262,148.4-145.2,126.8-203,286.7-171.7,475.4,3.6,11.1,47.7,147.7,106.5,256.9,15.2,28.2,20.1,89.7,14.9,187.9-.4,7.6-.9,15.3-1.4,23.3,19.1,37.9,34.6,74.8,43.7,114.4,16.6,72.3,10.3,149-19.9,241.4-15.2,46.6-49.9,91.2-86.5,132.3-17,101-31.9,178.1-36.7,196.9,29-1.7,57.9-1.4,84.7-1.2h1.3c79.8.7,532.9,0,537.5,0h1.4ZM1494.1,1538.6c-5.4,64.7-14.1,140.4-25.9,226-8.4,60.6-17.6,120.8-26.6,175.9,25.7-31.4,47.8-64.1,58.6-97.2,43.8-134.1,31.7-218.8-6.1-304.7ZM2079.5,1787.2c2.6,2.9,8.9,8.3,24.1,15.9,7,3.5,15.1,7.1,24,10.6-1.4-4.2-3.2-8.1-5.3-11.7-8.1-13.8-19.9-19.1-36.1-16.4-3.1.5-5.3,1.1-6.7,1.6ZM1939.4,273.5c-24,0-48.4,1.3-73.3,3.9-192.6,20.2-379.6,132.2-488.1,292.4-69.6,102.7-139.6,271.7-77.2,493,44.8,159,104.7,265.4,152.8,350.9,8.2,14.6,16.2,28.8,23.8,42.7,3.7-84.2-.5-139.9-12.9-163-62.1-115.3-107.9-260-108.3-261.4l-.2-.7v-.8c-18.1-107.8-7.7-208.1,30.8-298.3,31.2-73.1,81-139.7,147.8-198.1,119.5-104.3,254.9-148.2,270-152.9,36.6-11.4,97.8-27.2,181.2-38.1,69.9-9.1,140.7-12.9,210.9-11.2-77.8-38.8-164-58.5-257.3-58.5ZM2594.3,1408.3c1.2.5,3.1,1.2,5.8,1.9,13.5-10.2,27.6-16,38.6-20.6,3.3-1.4,7.4-3.1,10.5-4.6-5.8.2-16.6,2.2-30.1,7.9-14,6-21.8,12-24.8,15.4ZM2652.9,1385.5s0,0,0,0c0,0,0,0,0,0ZM2833,579.5c-31.3,29.4-52.7,71.1-53.1,110.8-.4,39.1,27.9,58.5,56.2,60.3,27.4,1.8,57.1-13.3,61.7-51.1,4.3-35.5-17.9-76.1-64.7-120Z"/>
        <g>
          <path class="cls-13" d="M1891.8,2641.4c-.3-9.6,5.9-17.4,10.5-25.4,5.4-9.6,8.7-19.5,9.8-30.4,2.1-21.6-5.9-42.9-15.6-61.8-9.8-19.1-23.1-36.1-32.9-55.2-8.7-16.8-16.7-37.6-12.2-56.8,4.6-19.7,23.9-30.5,35.5-45.9,10.7-14.3,17.1-31.3,19.6-48.9,5.7-38.8-4.5-78.3-16.8-114.9-6.3-18.6-13.7-36.8-20.8-55.1-6.1-15.8-12.8-32.4-14.4-49.4-1.5-15.6,2.3-30.1,12.3-42.4,12.9-15.8,31.7-24,47.3-36.4,34.7-27.5,34.3-71.3,28.1-111.4-7.3-47.3-18.9-93.9-34.4-139.1-14.7-43-40.2-86.9-40.7-133.3-.5-45.5,31.5-81.7,47.4-122.2,16-40.9,18.6-87.2,7.9-129.7-4.3-17.3-10.8-33.5-23.4-46.6-8.6-8.9-19.5-14.9-28.8-22.8-3.4-2.8-5.8-5.3-6.7-8.2-1.3-4.4.9-10.4,2.7-15.5.5-1.3,3-4.5.4-1.4.7-.8,1.5-1.6,2.3-2.3,2.4-2.1-1.6,1,1.3-1.1s3.1-2.1,4.6-3.1c15.3-9.7,31.7-17.5,46.8-27.6,17.3-11.7,34-26,42.2-45.7,9.5-22.9,2.9-47.4-10.6-67.3-4.4-6.5-9.4-12.7-14.7-18.5-5.3-5.8-12-10.7-16.6-17-1.5-2.1-1.8-3.3-2.2-3.9s-.4,0,0-.4c1.8-1.6-.9,1.7.3-.6s.7-1.2,1.1-1.6c-1.5,1.6,2.3-2.3,3.2-3.1,6.7-6.4,14-11.9,19-19.9,6.6-10.6,7.4-23.4,3.6-35.2-10.5-32.6-35.5-57.9-40.1-92.7-3.6-27.5-4.6-56.4-1.3-84s1.5-10.2,2.9-15.2c.6-2.2,1.2-4.5,2.1-6.5-.8,1.7,3.5-4.7,1.3-2.2,10-11.5-6.8-28.4-16.8-16.8-7.3,8.4-10.1,19.5-11.8,30.3-2.3,14.2-3.1,28.7-3.1,43.1,0,25,0,53.5,7.9,77.6s18.8,38.1,28.6,56.7c3.5,6.7,8.1,14.3,8.9,22,.4,4.2-.3,6.6-2,9.7-7.9,13.8-31.7,22.5-26.8,44,3.1,13.8,16.2,22.7,25.2,32.5,9,9.9,17.5,21.2,21.3,34.2,5.2,17.9-2.1,32.7-15.5,45.6-13.9,13.5-31.6,23.1-48.7,32.6-13.4,7.5-28.2,14.3-34.4,29.1-5.3,12.7-7.3,26.9.3,39.2,6.2,9.9,16.8,16,26,22.7,30.3,22.3,35.5,63.6,34.3,98.9-.7,22-5.3,43.8-13.4,64.2-7.9,20-19.7,38.3-29.3,57.5-10.2,20.4-17.9,41.6-18.9,64.5-1,22.9,4.5,45.8,11.8,67.3,7.6,22.3,17.1,43.8,25.1,66,8.5,23.6,16,47.5,22.3,71.8,6,23.1,11.1,46.5,15,70.1,3.3,19.5,6.6,40.2,3.1,59.9s-16.3,34.1-33.9,45.5c-17.1,11-33.5,22.4-44.7,39.8-19.5,30.7-10.5,66.4,1.4,98.1,13.9,36.9,29.6,73.3,37.2,112.2,7,35.9,5.8,75.3-21.5,102.5-14.6,14.6-28.3,27.7-31.7,49.1-3.2,20.3,2.3,40.5,10.4,58.9,9,20.5,22.5,38.3,33.5,57.7s20,38.5,16.8,59.2c-3.1,19.9-20.6,33.7-20.1,54.8.4,15.3,24.2,15.4,23.8,0h0Z"/>
          <path class="cls-13" d="M1941.6,954.6l-44-117.5c-.2-.5-.8-.6-1.1-.2l-80.6,96.2,64.4-107.7c.3-.4,0-1-.5-1l-125.5-3.1,124.4-16.8c.5,0,.7-.6.4-1l-75.8-100,90.7,86.8c.4.3,1,.2,1.1-.3l30.9-121.6-11.3,125c0,.5.5.9.9.7l114.4-51.7-104.8,69.1c-.4.3-.4.9,0,1.1l111.7,57.2-119.3-38.9c-.5-.2-.9.3-.8.8l24.9,123Z"/>
        </g>
      </g>
      <g>
        <path class="cls-12" d="M6761.7,995.9h2134.6l251.4,542.1h-2390.4"/>
        <text class="cls-18" transform="translate(7084.7 1222)"><tspan x="0" y="0">#Wellbeing</tspan><tspan x="0" y="242" xml:space="preserve"> Village</tspan></text>
      </g>
    </g>
  </g>
</svg>