<?xml version="1.0" standalone="no"?>
<svg xmlns="http://www.w3.org/2000/svg" width="500" height="500"><defs><clipPath id="clip-path-dot-color"><rect x="28" y="148" width="12" height="12" transform="rotate(0,34,154)"/><rect x="28" y="160" width="12" height="12" transform="rotate(0,34,166)"/><rect x="28" y="172" width="12" height="12" transform="rotate(0,34,178)"/><rect x="28" y="196" width="12" height="12" transform="rotate(0,34,202)"/><rect x="28" y="220" width="12" height="12" transform="rotate(0,34,226)"/><rect x="28" y="244" width="12" height="12" transform="rotate(0,34,250)"/><rect x="28" y="256" width="12" height="12" transform="rotate(0,34,262)"/><rect x="28" y="292" width="12" height="12" transform="rotate(0,34,298)"/><rect x="28" y="304" width="12" height="12" transform="rotate(0,34,310)"/><rect x="28" y="328" width="12" height="12" transform="rotate(0,34,334)"/><rect x="28" y="340" width="12" height="12" transform="rotate(0,34,346)"/><rect x="28" y="352" width="12" height="12" transform="rotate(0,34,358)"/><rect x="28" y="364" width="12" height="12" transform="rotate(0,34,370)"/><rect x="40" y="136" width="12" height="12" transform="rotate(0,46,142)"/><rect x="40" y="148" width="12" height="12" transform="rotate(0,46,154)"/><rect x="40" y="160" width="12" height="12" transform="rotate(0,46,166)"/><rect x="40" y="172" width="12" height="12" transform="rotate(0,46,178)"/><rect x="40" y="196" width="12" height="12" transform="rotate(0,46,202)"/><rect x="40" y="208" width="12" height="12" transform="rotate(0,46,214)"/><rect x="40" y="220" width="12" height="12" transform="rotate(0,46,226)"/><rect x="40" y="244" width="12" height="12" transform="rotate(0,46,250)"/><rect x="40" y="256" width="12" height="12" transform="rotate(0,46,262)"/><rect x="40" y="280" width="12" height="12" transform="rotate(0,46,286)"/><rect x="40" y="316" width="12" height="12" transform="rotate(0,46,322)"/><rect x="40" y="328" width="12" height="12" transform="rotate(0,46,334)"/><rect x="40" y="340" width="12" height="12" transform="rotate(0,46,346)"/><rect x="52" y="124" width="12" height="12" transform="rotate(0,58,130)"/><rect x="52" y="172" width="12" height="12" transform="rotate(0,58,178)"/><rect x="52" y="196" width="12" height="12" transform="rotate(0,58,202)"/><rect x="52" y="208" width="12" height="12" transform="rotate(0,58,214)"/><rect x="52" y="244" width="12" height="12" transform="rotate(0,58,250)"/><rect x="52" y="256" width="12" height="12" transform="rotate(0,58,262)"/><rect x="52" y="268" width="12" height="12" transform="rotate(0,58,274)"/><rect x="52" y="280" width="12" height="12" transform="rotate(0,58,286)"/><rect x="52" y="304" width="12" height="12" transform="rotate(0,58,310)"/><rect x="52" y="340" width="12" height="12" transform="rotate(0,58,346)"/><rect x="52" y="352" width="12" height="12" transform="rotate(0,58,358)"/><rect x="64" y="196" width="12" height="12" transform="rotate(0,70,202)"/><rect x="64" y="220" width="12" height="12" transform="rotate(0,70,226)"/><rect x="64" y="328" width="12" height="12" transform="rotate(0,70,334)"/><rect x="64" y="340" width="12" height="12" transform="rotate(0,70,346)"/><rect x="64" y="364" width="12" height="12" transform="rotate(0,70,370)"/><rect x="76" y="124" width="12" height="12" transform="rotate(0,82,130)"/><rect x="76" y="136" width="12" height="12" transform="rotate(0,82,142)"/><rect x="76" y="160" width="12" height="12" transform="rotate(0,82,166)"/><rect x="76" y="196" width="12" height="12" transform="rotate(0,82,202)"/><rect x="76" y="208" width="12" height="12" transform="rotate(0,82,214)"/><rect x="76" y="244" width="12" height="12" transform="rotate(0,82,250)"/><rect x="76" y="256" width="12" height="12" transform="rotate(0,82,262)"/><rect x="76" y="268" width="12" height="12" transform="rotate(0,82,274)"/><rect x="76" y="304" width="12" height="12" transform="rotate(0,82,310)"/><rect x="76" y="328" width="12" height="12" transform="rotate(0,82,334)"/><rect x="76" y="352" width="12" height="12" transform="rotate(0,82,358)"/><rect x="88" y="124" width="12" height="12" transform="rotate(0,94,130)"/><rect x="88" y="136" width="12" height="12" transform="rotate(0,94,142)"/><rect x="88" y="172" width="12" height="12" transform="rotate(0,94,178)"/><rect x="88" y="196" width="12" height="12" transform="rotate(0,94,202)"/><rect x="88" y="208" width="12" height="12" transform="rotate(0,94,214)"/><rect x="88" y="220" width="12" height="12" transform="rotate(0,94,226)"/><rect x="88" y="256" width="12" height="12" transform="rotate(0,94,262)"/><rect x="88" y="292" width="12" height="12" transform="rotate(0,94,298)"/><rect x="88" y="328" width="12" height="12" transform="rotate(0,94,334)"/><rect x="88" y="364" width="12" height="12" transform="rotate(0,94,370)"/><rect x="100" y="124" width="12" height="12" transform="rotate(0,106,130)"/><rect x="100" y="148" width="12" height="12" transform="rotate(0,106,154)"/><rect x="100" y="172" width="12" height="12" transform="rotate(0,106,178)"/><rect x="100" y="196" width="12" height="12" transform="rotate(0,106,202)"/><rect x="100" y="220" width="12" height="12" transform="rotate(0,106,226)"/><rect x="100" y="244" width="12" height="12" transform="rotate(0,106,250)"/><rect x="100" y="268" width="12" height="12" transform="rotate(0,106,274)"/><rect x="100" y="292" width="12" height="12" transform="rotate(0,106,298)"/><rect x="100" y="316" width="12" height="12" transform="rotate(0,106,322)"/><rect x="100" y="340" width="12" height="12" transform="rotate(0,106,346)"/><rect x="100" y="364" width="12" height="12" transform="rotate(0,106,370)"/><rect x="112" y="148" width="12" height="12" transform="rotate(0,118,154)"/><rect x="112" y="160" width="12" height="12" transform="rotate(0,118,166)"/><rect x="112" y="172" width="12" height="12" transform="rotate(0,118,178)"/><rect x="112" y="220" width="12" height="12" transform="rotate(0,118,226)"/><rect x="112" y="232" width="12" height="12" transform="rotate(0,118,238)"/><rect x="112" y="256" width="12" height="12" transform="rotate(0,118,262)"/><rect x="112" y="268" width="12" height="12" transform="rotate(0,118,274)"/><rect x="112" y="280" width="12" height="12" transform="rotate(0,118,286)"/><rect x="112" y="292" width="12" height="12" transform="rotate(0,118,298)"/><rect x="112" y="316" width="12" height="12" transform="rotate(0,118,322)"/><rect x="112" y="340" width="12" height="12" transform="rotate(0,118,346)"/><rect x="124" y="40" width="12" height="12" transform="rotate(0,130,46)"/><rect x="124" y="76" width="12" height="12" transform="rotate(0,130,82)"/><rect x="124" y="100" width="12" height="12" transform="rotate(0,130,106)"/><rect x="124" y="124" width="12" height="12" transform="rotate(0,130,130)"/><rect x="124" y="136" width="12" height="12" transform="rotate(0,130,142)"/><rect x="124" y="172" width="12" height="12" transform="rotate(0,130,178)"/><rect x="124" y="196" width="12" height="12" transform="rotate(0,130,202)"/><rect x="124" y="244" width="12" height="12" transform="rotate(0,130,250)"/><rect x="124" y="256" width="12" height="12" transform="rotate(0,130,262)"/><rect x="124" y="268" width="12" height="12" transform="rotate(0,130,274)"/><rect x="124" y="280" width="12" height="12" transform="rotate(0,130,286)"/><rect x="124" y="292" width="12" height="12" transform="rotate(0,130,298)"/><rect x="124" y="304" width="12" height="12" transform="rotate(0,130,310)"/><rect x="124" y="316" width="12" height="12" transform="rotate(0,130,322)"/><rect x="124" y="352" width="12" height="12" transform="rotate(0,130,358)"/><rect x="124" y="364" width="12" height="12" transform="rotate(0,130,370)"/><rect x="124" y="376" width="12" height="12" transform="rotate(0,130,382)"/><rect x="124" y="400" width="12" height="12" transform="rotate(0,130,406)"/><rect x="124" y="412" width="12" height="12" transform="rotate(0,130,418)"/><rect x="124" y="436" width="12" height="12" transform="rotate(0,130,442)"/><rect x="136" y="28" width="12" height="12" transform="rotate(0,142,34)"/><rect x="136" y="52" width="12" height="12" transform="rotate(0,142,58)"/><rect x="136" y="64" width="12" height="12" transform="rotate(0,142,70)"/><rect x="136" y="76" width="12" height="12" transform="rotate(0,142,82)"/><rect x="136" y="112" width="12" height="12" transform="rotate(0,142,118)"/><rect x="136" y="136" width="12" height="12" transform="rotate(0,142,142)"/><rect x="136" y="160" width="12" height="12" transform="rotate(0,142,166)"/><rect x="136" y="172" width="12" height="12" transform="rotate(0,142,178)"/><rect x="136" y="196" width="12" height="12" transform="rotate(0,142,202)"/><rect x="136" y="232" width="12" height="12" transform="rotate(0,142,238)"/><rect x="136" y="256" width="12" height="12" transform="rotate(0,142,262)"/><rect x="136" y="280" width="12" height="12" transform="rotate(0,142,286)"/><rect x="136" y="304" width="12" height="12" transform="rotate(0,142,310)"/><rect x="136" y="340" width="12" height="12" transform="rotate(0,142,346)"/><rect x="136" y="352" width="12" height="12" transform="rotate(0,142,358)"/><rect x="136" y="364" width="12" height="12" transform="rotate(0,142,370)"/><rect x="136" y="412" width="12" height="12" transform="rotate(0,142,418)"/><rect x="148" y="28" width="12" height="12" transform="rotate(0,154,34)"/><rect x="148" y="52" width="12" height="12" transform="rotate(0,154,58)"/><rect x="148" y="64" width="12" height="12" transform="rotate(0,154,70)"/><rect x="148" y="88" width="12" height="12" transform="rotate(0,154,94)"/><rect x="148" y="100" width="12" height="12" transform="rotate(0,154,106)"/><rect x="148" y="112" width="12" height="12" transform="rotate(0,154,118)"/><rect x="148" y="124" width="12" height="12" transform="rotate(0,154,130)"/><rect x="148" y="136" width="12" height="12" transform="rotate(0,154,142)"/><rect x="148" y="184" width="12" height="12" transform="rotate(0,154,190)"/><rect x="148" y="280" width="12" height="12" transform="rotate(0,154,286)"/><rect x="148" y="304" width="12" height="12" transform="rotate(0,154,310)"/><rect x="148" y="328" width="12" height="12" transform="rotate(0,154,334)"/><rect x="148" y="340" width="12" height="12" transform="rotate(0,154,346)"/><rect x="148" y="352" width="12" height="12" transform="rotate(0,154,358)"/><rect x="148" y="364" width="12" height="12" transform="rotate(0,154,370)"/><rect x="148" y="376" width="12" height="12" transform="rotate(0,154,382)"/><rect x="148" y="400" width="12" height="12" transform="rotate(0,154,406)"/><rect x="148" y="412" width="12" height="12" transform="rotate(0,154,418)"/><rect x="148" y="424" width="12" height="12" transform="rotate(0,154,430)"/><rect x="160" y="28" width="12" height="12" transform="rotate(0,166,34)"/><rect x="160" y="52" width="12" height="12" transform="rotate(0,166,58)"/><rect x="160" y="64" width="12" height="12" transform="rotate(0,166,70)"/><rect x="160" y="208" width="12" height="12" transform="rotate(0,166,214)"/><rect x="160" y="256" width="12" height="12" transform="rotate(0,166,262)"/><rect x="160" y="268" width="12" height="12" transform="rotate(0,166,274)"/><rect x="160" y="280" width="12" height="12" transform="rotate(0,166,286)"/><rect x="160" y="292" width="12" height="12" transform="rotate(0,166,298)"/><rect x="160" y="316" width="12" height="12" transform="rotate(0,166,322)"/><rect x="160" y="340" width="12" height="12" transform="rotate(0,166,346)"/><rect x="160" y="364" width="12" height="12" transform="rotate(0,166,370)"/><rect x="160" y="376" width="12" height="12" transform="rotate(0,166,382)"/><rect x="160" y="400" width="12" height="12" transform="rotate(0,166,406)"/><rect x="160" y="436" width="12" height="12" transform="rotate(0,166,442)"/><rect x="160" y="460" width="12" height="12" transform="rotate(0,166,466)"/><rect x="172" y="28" width="12" height="12" transform="rotate(0,178,34)"/><rect x="172" y="64" width="12" height="12" transform="rotate(0,178,70)"/><rect x="172" y="100" width="12" height="12" transform="rotate(0,178,106)"/><rect x="172" y="136" width="12" height="12" transform="rotate(0,178,142)"/><rect x="172" y="148" width="12" height="12" transform="rotate(0,178,154)"/><rect x="172" y="160" width="12" height="12" transform="rotate(0,178,166)"/><rect x="172" y="172" width="12" height="12" transform="rotate(0,178,178)"/><rect x="172" y="184" width="12" height="12" transform="rotate(0,178,190)"/><rect x="172" y="196" width="12" height="12" transform="rotate(0,178,202)"/><rect x="172" y="208" width="12" height="12" transform="rotate(0,178,214)"/><rect x="172" y="256" width="12" height="12" transform="rotate(0,178,262)"/><rect x="172" y="268" width="12" height="12" transform="rotate(0,178,274)"/><rect x="172" y="280" width="12" height="12" transform="rotate(0,178,286)"/><rect x="172" y="292" width="12" height="12" transform="rotate(0,178,298)"/><rect x="172" y="304" width="12" height="12" transform="rotate(0,178,310)"/><rect x="172" y="376" width="12" height="12" transform="rotate(0,178,382)"/><rect x="172" y="388" width="12" height="12" transform="rotate(0,178,394)"/><rect x="172" y="400" width="12" height="12" transform="rotate(0,178,406)"/><rect x="172" y="436" width="12" height="12" transform="rotate(0,178,442)"/><rect x="172" y="448" width="12" height="12" transform="rotate(0,178,454)"/><rect x="184" y="28" width="12" height="12" transform="rotate(0,190,34)"/><rect x="184" y="52" width="12" height="12" transform="rotate(0,190,58)"/><rect x="184" y="64" width="12" height="12" transform="rotate(0,190,70)"/><rect x="184" y="76" width="12" height="12" transform="rotate(0,190,82)"/><rect x="184" y="148" width="12" height="12" transform="rotate(0,190,154)"/><rect x="184" y="160" width="12" height="12" transform="rotate(0,190,166)"/><rect x="184" y="172" width="12" height="12" transform="rotate(0,190,178)"/><rect x="184" y="232" width="12" height="12" transform="rotate(0,190,238)"/><rect x="184" y="244" width="12" height="12" transform="rotate(0,190,250)"/><rect x="184" y="256" width="12" height="12" transform="rotate(0,190,262)"/><rect x="184" y="304" width="12" height="12" transform="rotate(0,190,310)"/><rect x="184" y="328" width="12" height="12" transform="rotate(0,190,334)"/><rect x="184" y="352" width="12" height="12" transform="rotate(0,190,358)"/><rect x="184" y="364" width="12" height="12" transform="rotate(0,190,370)"/><rect x="184" y="376" width="12" height="12" transform="rotate(0,190,382)"/><rect x="184" y="412" width="12" height="12" transform="rotate(0,190,418)"/><rect x="184" y="436" width="12" height="12" transform="rotate(0,190,442)"/><rect x="184" y="448" width="12" height="12" transform="rotate(0,190,454)"/><rect x="196" y="64" width="12" height="12" transform="rotate(0,202,70)"/><rect x="196" y="100" width="12" height="12" transform="rotate(0,202,106)"/><rect x="196" y="124" width="12" height="12" transform="rotate(0,202,130)"/><rect x="196" y="136" width="12" height="12" transform="rotate(0,202,142)"/><rect x="196" y="148" width="12" height="12" transform="rotate(0,202,154)"/><rect x="196" y="160" width="12" height="12" transform="rotate(0,202,166)"/><rect x="196" y="172" width="12" height="12" transform="rotate(0,202,178)"/><rect x="196" y="196" width="12" height="12" transform="rotate(0,202,202)"/><rect x="196" y="208" width="12" height="12" transform="rotate(0,202,214)"/><rect x="196" y="280" width="12" height="12" transform="rotate(0,202,286)"/><rect x="196" y="304" width="12" height="12" transform="rotate(0,202,310)"/><rect x="196" y="316" width="12" height="12" transform="rotate(0,202,322)"/><rect x="196" y="328" width="12" height="12" transform="rotate(0,202,334)"/><rect x="196" y="340" width="12" height="12" transform="rotate(0,202,346)"/><rect x="196" y="352" width="12" height="12" transform="rotate(0,202,358)"/><rect x="196" y="376" width="12" height="12" transform="rotate(0,202,382)"/><rect x="196" y="388" width="12" height="12" transform="rotate(0,202,394)"/><rect x="196" y="400" width="12" height="12" transform="rotate(0,202,406)"/><rect x="196" y="424" width="12" height="12" transform="rotate(0,202,430)"/><rect x="196" y="436" width="12" height="12" transform="rotate(0,202,442)"/><rect x="208" y="40" width="12" height="12" transform="rotate(0,214,46)"/><rect x="208" y="52" width="12" height="12" transform="rotate(0,214,58)"/><rect x="208" y="64" width="12" height="12" transform="rotate(0,214,70)"/><rect x="208" y="88" width="12" height="12" transform="rotate(0,214,94)"/><rect x="208" y="136" width="12" height="12" transform="rotate(0,214,142)"/><rect x="208" y="172" width="12" height="12" transform="rotate(0,214,178)"/><rect x="208" y="196" width="12" height="12" transform="rotate(0,214,202)"/><rect x="208" y="208" width="12" height="12" transform="rotate(0,214,214)"/><rect x="208" y="244" width="12" height="12" transform="rotate(0,214,250)"/><rect x="208" y="256" width="12" height="12" transform="rotate(0,214,262)"/><rect x="208" y="280" width="12" height="12" transform="rotate(0,214,286)"/><rect x="208" y="292" width="12" height="12" transform="rotate(0,214,298)"/><rect x="208" y="304" width="12" height="12" transform="rotate(0,214,310)"/><rect x="208" y="364" width="12" height="12" transform="rotate(0,214,370)"/><rect x="208" y="400" width="12" height="12" transform="rotate(0,214,406)"/><rect x="208" y="412" width="12" height="12" transform="rotate(0,214,418)"/><rect x="208" y="436" width="12" height="12" transform="rotate(0,214,442)"/><rect x="220" y="28" width="12" height="12" transform="rotate(0,226,34)"/><rect x="220" y="64" width="12" height="12" transform="rotate(0,226,70)"/><rect x="220" y="76" width="12" height="12" transform="rotate(0,226,82)"/><rect x="220" y="100" width="12" height="12" transform="rotate(0,226,106)"/><rect x="220" y="112" width="12" height="12" transform="rotate(0,226,118)"/><rect x="220" y="124" width="12" height="12" transform="rotate(0,226,130)"/><rect x="220" y="148" width="12" height="12" transform="rotate(0,226,154)"/><rect x="220" y="160" width="12" height="12" transform="rotate(0,226,166)"/><rect x="220" y="172" width="12" height="12" transform="rotate(0,226,178)"/><rect x="220" y="244" width="12" height="12" transform="rotate(0,226,250)"/><rect x="220" y="268" width="12" height="12" transform="rotate(0,226,274)"/><rect x="220" y="280" width="12" height="12" transform="rotate(0,226,286)"/><rect x="220" y="292" width="12" height="12" transform="rotate(0,226,298)"/><rect x="220" y="316" width="12" height="12" transform="rotate(0,226,322)"/><rect x="220" y="340" width="12" height="12" transform="rotate(0,226,346)"/><rect x="220" y="388" width="12" height="12" transform="rotate(0,226,394)"/><rect x="220" y="400" width="12" height="12" transform="rotate(0,226,406)"/><rect x="220" y="424" width="12" height="12" transform="rotate(0,226,430)"/><rect x="220" y="436" width="12" height="12" transform="rotate(0,226,442)"/><rect x="220" y="448" width="12" height="12" transform="rotate(0,226,454)"/><rect x="220" y="460" width="12" height="12" transform="rotate(0,226,466)"/><rect x="232" y="28" width="12" height="12" transform="rotate(0,238,34)"/><rect x="232" y="64" width="12" height="12" transform="rotate(0,238,70)"/><rect x="232" y="88" width="12" height="12" transform="rotate(0,238,94)"/><rect x="232" y="124" width="12" height="12" transform="rotate(0,238,130)"/><rect x="232" y="148" width="12" height="12" transform="rotate(0,238,154)"/><rect x="232" y="160" width="12" height="12" transform="rotate(0,238,166)"/><rect x="232" y="208" width="12" height="12" transform="rotate(0,238,214)"/><rect x="232" y="220" width="12" height="12" transform="rotate(0,238,226)"/><rect x="232" y="244" width="12" height="12" transform="rotate(0,238,250)"/><rect x="232" y="256" width="12" height="12" transform="rotate(0,238,262)"/><rect x="232" y="304" width="12" height="12" transform="rotate(0,238,310)"/><rect x="232" y="328" width="12" height="12" transform="rotate(0,238,334)"/><rect x="232" y="352" width="12" height="12" transform="rotate(0,238,358)"/><rect x="232" y="364" width="12" height="12" transform="rotate(0,238,370)"/><rect x="232" y="412" width="12" height="12" transform="rotate(0,238,418)"/><rect x="244" y="28" width="12" height="12" transform="rotate(0,250,34)"/><rect x="244" y="52" width="12" height="12" transform="rotate(0,250,58)"/><rect x="244" y="76" width="12" height="12" transform="rotate(0,250,82)"/><rect x="244" y="100" width="12" height="12" transform="rotate(0,250,106)"/><rect x="244" y="112" width="12" height="12" transform="rotate(0,250,118)"/><rect x="244" y="124" width="12" height="12" transform="rotate(0,250,130)"/><rect x="244" y="136" width="12" height="12" transform="rotate(0,250,142)"/><rect x="244" y="172" width="12" height="12" transform="rotate(0,250,178)"/><rect x="244" y="196" width="12" height="12" transform="rotate(0,250,202)"/><rect x="244" y="208" width="12" height="12" transform="rotate(0,250,214)"/><rect x="244" y="232" width="12" height="12" transform="rotate(0,250,238)"/><rect x="244" y="292" width="12" height="12" transform="rotate(0,250,298)"/><rect x="244" y="304" width="12" height="12" transform="rotate(0,250,310)"/><rect x="244" y="328" width="12" height="12" transform="rotate(0,250,334)"/><rect x="244" y="352" width="12" height="12" transform="rotate(0,250,358)"/><rect x="244" y="388" width="12" height="12" transform="rotate(0,250,394)"/><rect x="244" y="424" width="12" height="12" transform="rotate(0,250,430)"/><rect x="256" y="28" width="12" height="12" transform="rotate(0,262,34)"/><rect x="256" y="40" width="12" height="12" transform="rotate(0,262,46)"/><rect x="256" y="52" width="12" height="12" transform="rotate(0,262,58)"/><rect x="256" y="64" width="12" height="12" transform="rotate(0,262,70)"/><rect x="256" y="76" width="12" height="12" transform="rotate(0,262,82)"/><rect x="256" y="112" width="12" height="12" transform="rotate(0,262,118)"/><rect x="256" y="124" width="12" height="12" transform="rotate(0,262,130)"/><rect x="256" y="160" width="12" height="12" transform="rotate(0,262,166)"/><rect x="256" y="172" width="12" height="12" transform="rotate(0,262,178)"/><rect x="256" y="184" width="12" height="12" transform="rotate(0,262,190)"/><rect x="256" y="208" width="12" height="12" transform="rotate(0,262,214)"/><rect x="256" y="244" width="12" height="12" transform="rotate(0,262,250)"/><rect x="256" y="268" width="12" height="12" transform="rotate(0,262,274)"/><rect x="256" y="280" width="12" height="12" transform="rotate(0,262,286)"/><rect x="256" y="316" width="12" height="12" transform="rotate(0,262,322)"/><rect x="256" y="364" width="12" height="12" transform="rotate(0,262,370)"/><rect x="256" y="376" width="12" height="12" transform="rotate(0,262,382)"/><rect x="256" y="400" width="12" height="12" transform="rotate(0,262,406)"/><rect x="256" y="436" width="12" height="12" transform="rotate(0,262,442)"/><rect x="256" y="448" width="12" height="12" transform="rotate(0,262,454)"/><rect x="268" y="28" width="12" height="12" transform="rotate(0,274,34)"/><rect x="268" y="64" width="12" height="12" transform="rotate(0,274,70)"/><rect x="268" y="100" width="12" height="12" transform="rotate(0,274,106)"/><rect x="268" y="124" width="12" height="12" transform="rotate(0,274,130)"/><rect x="268" y="148" width="12" height="12" transform="rotate(0,274,154)"/><rect x="268" y="160" width="12" height="12" transform="rotate(0,274,166)"/><rect x="268" y="196" width="12" height="12" transform="rotate(0,274,202)"/><rect x="268" y="208" width="12" height="12" transform="rotate(0,274,214)"/><rect x="268" y="220" width="12" height="12" transform="rotate(0,274,226)"/><rect x="268" y="232" width="12" height="12" transform="rotate(0,274,238)"/><rect x="268" y="280" width="12" height="12" transform="rotate(0,274,286)"/><rect x="268" y="292" width="12" height="12" transform="rotate(0,274,298)"/><rect x="268" y="304" width="12" height="12" transform="rotate(0,274,310)"/><rect x="268" y="316" width="12" height="12" transform="rotate(0,274,322)"/><rect x="268" y="388" width="12" height="12" transform="rotate(0,274,394)"/><rect x="268" y="436" width="12" height="12" transform="rotate(0,274,442)"/><rect x="268" y="448" width="12" height="12" transform="rotate(0,274,454)"/><rect x="280" y="40" width="12" height="12" transform="rotate(0,286,46)"/><rect x="280" y="52" width="12" height="12" transform="rotate(0,286,58)"/><rect x="280" y="88" width="12" height="12" transform="rotate(0,286,94)"/><rect x="280" y="148" width="12" height="12" transform="rotate(0,286,154)"/><rect x="280" y="172" width="12" height="12" transform="rotate(0,286,178)"/><rect x="280" y="196" width="12" height="12" transform="rotate(0,286,202)"/><rect x="280" y="220" width="12" height="12" transform="rotate(0,286,226)"/><rect x="280" y="256" width="12" height="12" transform="rotate(0,286,262)"/><rect x="280" y="268" width="12" height="12" transform="rotate(0,286,274)"/><rect x="280" y="304" width="12" height="12" transform="rotate(0,286,310)"/><rect x="280" y="352" width="12" height="12" transform="rotate(0,286,358)"/><rect x="280" y="412" width="12" height="12" transform="rotate(0,286,418)"/><rect x="280" y="436" width="12" height="12" transform="rotate(0,286,442)"/><rect x="280" y="448" width="12" height="12" transform="rotate(0,286,454)"/><rect x="292" y="28" width="12" height="12" transform="rotate(0,298,34)"/><rect x="292" y="40" width="12" height="12" transform="rotate(0,298,46)"/><rect x="292" y="52" width="12" height="12" transform="rotate(0,298,58)"/><rect x="292" y="76" width="12" height="12" transform="rotate(0,298,82)"/><rect x="292" y="100" width="12" height="12" transform="rotate(0,298,106)"/><rect x="292" y="124" width="12" height="12" transform="rotate(0,298,130)"/><rect x="292" y="184" width="12" height="12" transform="rotate(0,298,190)"/><rect x="292" y="256" width="12" height="12" transform="rotate(0,298,262)"/><rect x="292" y="280" width="12" height="12" transform="rotate(0,298,286)"/><rect x="292" y="304" width="12" height="12" transform="rotate(0,298,310)"/><rect x="292" y="316" width="12" height="12" transform="rotate(0,298,322)"/><rect x="292" y="352" width="12" height="12" transform="rotate(0,298,358)"/><rect x="292" y="364" width="12" height="12" transform="rotate(0,298,370)"/><rect x="292" y="424" width="12" height="12" transform="rotate(0,298,430)"/><rect x="292" y="436" width="12" height="12" transform="rotate(0,298,442)"/><rect x="304" y="28" width="12" height="12" transform="rotate(0,310,34)"/><rect x="304" y="40" width="12" height="12" transform="rotate(0,310,46)"/><rect x="304" y="76" width="12" height="12" transform="rotate(0,310,82)"/><rect x="304" y="88" width="12" height="12" transform="rotate(0,310,94)"/><rect x="304" y="148" width="12" height="12" transform="rotate(0,310,154)"/><rect x="304" y="160" width="12" height="12" transform="rotate(0,310,166)"/><rect x="304" y="184" width="12" height="12" transform="rotate(0,310,190)"/><rect x="304" y="196" width="12" height="12" transform="rotate(0,310,202)"/><rect x="304" y="220" width="12" height="12" transform="rotate(0,310,226)"/><rect x="304" y="244" width="12" height="12" transform="rotate(0,310,250)"/><rect x="304" y="268" width="12" height="12" transform="rotate(0,310,274)"/><rect x="304" y="280" width="12" height="12" transform="rotate(0,310,286)"/><rect x="304" y="304" width="12" height="12" transform="rotate(0,310,310)"/><rect x="304" y="340" width="12" height="12" transform="rotate(0,310,346)"/><rect x="304" y="364" width="12" height="12" transform="rotate(0,310,370)"/><rect x="304" y="400" width="12" height="12" transform="rotate(0,310,406)"/><rect x="304" y="436" width="12" height="12" transform="rotate(0,310,442)"/><rect x="304" y="448" width="12" height="12" transform="rotate(0,310,454)"/><rect x="316" y="40" width="12" height="12" transform="rotate(0,322,46)"/><rect x="316" y="52" width="12" height="12" transform="rotate(0,322,58)"/><rect x="316" y="100" width="12" height="12" transform="rotate(0,322,106)"/><rect x="316" y="112" width="12" height="12" transform="rotate(0,322,118)"/><rect x="316" y="172" width="12" height="12" transform="rotate(0,322,178)"/><rect x="316" y="184" width="12" height="12" transform="rotate(0,322,190)"/><rect x="316" y="232" width="12" height="12" transform="rotate(0,322,238)"/><rect x="316" y="244" width="12" height="12" transform="rotate(0,322,250)"/><rect x="316" y="280" width="12" height="12" transform="rotate(0,322,286)"/><rect x="316" y="292" width="12" height="12" transform="rotate(0,322,298)"/><rect x="316" y="304" width="12" height="12" transform="rotate(0,322,310)"/><rect x="316" y="316" width="12" height="12" transform="rotate(0,322,322)"/><rect x="316" y="352" width="12" height="12" transform="rotate(0,322,358)"/><rect x="316" y="364" width="12" height="12" transform="rotate(0,322,370)"/><rect x="316" y="376" width="12" height="12" transform="rotate(0,322,382)"/><rect x="316" y="388" width="12" height="12" transform="rotate(0,322,394)"/><rect x="316" y="400" width="12" height="12" transform="rotate(0,322,406)"/><rect x="316" y="424" width="12" height="12" transform="rotate(0,322,430)"/><rect x="316" y="436" width="12" height="12" transform="rotate(0,322,442)"/><rect x="316" y="448" width="12" height="12" transform="rotate(0,322,454)"/><rect x="316" y="460" width="12" height="12" transform="rotate(0,322,466)"/><rect x="328" y="28" width="12" height="12" transform="rotate(0,334,34)"/><rect x="328" y="52" width="12" height="12" transform="rotate(0,334,58)"/><rect x="328" y="124" width="12" height="12" transform="rotate(0,334,130)"/><rect x="328" y="148" width="12" height="12" transform="rotate(0,334,154)"/><rect x="328" y="172" width="12" height="12" transform="rotate(0,334,178)"/><rect x="328" y="184" width="12" height="12" transform="rotate(0,334,190)"/><rect x="328" y="196" width="12" height="12" transform="rotate(0,334,202)"/><rect x="328" y="208" width="12" height="12" transform="rotate(0,334,214)"/><rect x="328" y="220" width="12" height="12" transform="rotate(0,334,226)"/><rect x="328" y="232" width="12" height="12" transform="rotate(0,334,238)"/><rect x="328" y="292" width="12" height="12" transform="rotate(0,334,298)"/><rect x="328" y="304" width="12" height="12" transform="rotate(0,334,310)"/><rect x="328" y="316" width="12" height="12" transform="rotate(0,334,322)"/><rect x="328" y="328" width="12" height="12" transform="rotate(0,334,334)"/><rect x="328" y="352" width="12" height="12" transform="rotate(0,334,358)"/><rect x="328" y="364" width="12" height="12" transform="rotate(0,334,370)"/><rect x="328" y="388" width="12" height="12" transform="rotate(0,334,394)"/><rect x="328" y="412" width="12" height="12" transform="rotate(0,334,418)"/><rect x="340" y="52" width="12" height="12" transform="rotate(0,346,58)"/><rect x="340" y="64" width="12" height="12" transform="rotate(0,346,70)"/><rect x="340" y="100" width="12" height="12" transform="rotate(0,346,106)"/><rect x="340" y="124" width="12" height="12" transform="rotate(0,346,130)"/><rect x="340" y="148" width="12" height="12" transform="rotate(0,346,154)"/><rect x="340" y="172" width="12" height="12" transform="rotate(0,346,178)"/><rect x="340" y="208" width="12" height="12" transform="rotate(0,346,214)"/><rect x="340" y="220" width="12" height="12" transform="rotate(0,346,226)"/><rect x="340" y="280" width="12" height="12" transform="rotate(0,346,286)"/><rect x="340" y="292" width="12" height="12" transform="rotate(0,346,298)"/><rect x="340" y="304" width="12" height="12" transform="rotate(0,346,310)"/><rect x="340" y="328" width="12" height="12" transform="rotate(0,346,334)"/><rect x="340" y="352" width="12" height="12" transform="rotate(0,346,358)"/><rect x="340" y="364" width="12" height="12" transform="rotate(0,346,370)"/><rect x="340" y="376" width="12" height="12" transform="rotate(0,346,382)"/><rect x="340" y="412" width="12" height="12" transform="rotate(0,346,418)"/><rect x="340" y="436" width="12" height="12" transform="rotate(0,346,442)"/><rect x="340" y="448" width="12" height="12" transform="rotate(0,346,454)"/><rect x="352" y="64" width="12" height="12" transform="rotate(0,358,70)"/><rect x="352" y="112" width="12" height="12" transform="rotate(0,358,118)"/><rect x="352" y="124" width="12" height="12" transform="rotate(0,358,130)"/><rect x="352" y="136" width="12" height="12" transform="rotate(0,358,142)"/><rect x="352" y="160" width="12" height="12" transform="rotate(0,358,166)"/><rect x="352" y="184" width="12" height="12" transform="rotate(0,358,190)"/><rect x="352" y="280" width="12" height="12" transform="rotate(0,358,286)"/><rect x="352" y="304" width="12" height="12" transform="rotate(0,358,310)"/><rect x="352" y="316" width="12" height="12" transform="rotate(0,358,322)"/><rect x="352" y="340" width="12" height="12" transform="rotate(0,358,346)"/><rect x="352" y="388" width="12" height="12" transform="rotate(0,358,394)"/><rect x="352" y="400" width="12" height="12" transform="rotate(0,358,406)"/><rect x="352" y="412" width="12" height="12" transform="rotate(0,358,418)"/><rect x="352" y="436" width="12" height="12" transform="rotate(0,358,442)"/><rect x="352" y="448" width="12" height="12" transform="rotate(0,358,454)"/><rect x="352" y="460" width="12" height="12" transform="rotate(0,358,466)"/><rect x="364" y="28" width="12" height="12" transform="rotate(0,370,34)"/><rect x="364" y="40" width="12" height="12" transform="rotate(0,370,46)"/><rect x="364" y="52" width="12" height="12" transform="rotate(0,370,58)"/><rect x="364" y="64" width="12" height="12" transform="rotate(0,370,70)"/><rect x="364" y="76" width="12" height="12" transform="rotate(0,370,82)"/><rect x="364" y="88" width="12" height="12" transform="rotate(0,370,94)"/><rect x="364" y="100" width="12" height="12" transform="rotate(0,370,106)"/><rect x="364" y="112" width="12" height="12" transform="rotate(0,370,118)"/><rect x="364" y="136" width="12" height="12" transform="rotate(0,370,142)"/><rect x="364" y="208" width="12" height="12" transform="rotate(0,370,214)"/><rect x="364" y="220" width="12" height="12" transform="rotate(0,370,226)"/><rect x="364" y="244" width="12" height="12" transform="rotate(0,370,250)"/><rect x="364" y="292" width="12" height="12" transform="rotate(0,370,298)"/><rect x="364" y="316" width="12" height="12" transform="rotate(0,370,322)"/><rect x="364" y="364" width="12" height="12" transform="rotate(0,370,370)"/><rect x="364" y="376" width="12" height="12" transform="rotate(0,370,382)"/><rect x="364" y="388" width="12" height="12" transform="rotate(0,370,394)"/><rect x="364" y="400" width="12" height="12" transform="rotate(0,370,406)"/><rect x="364" y="412" width="12" height="12" transform="rotate(0,370,418)"/><rect x="364" y="436" width="12" height="12" transform="rotate(0,370,442)"/><rect x="364" y="448" width="12" height="12" transform="rotate(0,370,454)"/><rect x="364" y="460" width="12" height="12" transform="rotate(0,370,466)"/><rect x="376" y="124" width="12" height="12" transform="rotate(0,382,130)"/><rect x="376" y="136" width="12" height="12" transform="rotate(0,382,142)"/><rect x="376" y="172" width="12" height="12" transform="rotate(0,382,178)"/><rect x="376" y="196" width="12" height="12" transform="rotate(0,382,202)"/><rect x="376" y="232" width="12" height="12" transform="rotate(0,382,238)"/><rect x="376" y="268" width="12" height="12" transform="rotate(0,382,274)"/><rect x="376" y="280" width="12" height="12" transform="rotate(0,382,286)"/><rect x="376" y="292" width="12" height="12" transform="rotate(0,382,298)"/><rect x="376" y="304" width="12" height="12" transform="rotate(0,382,310)"/><rect x="376" y="328" width="12" height="12" transform="rotate(0,382,334)"/><rect x="376" y="340" width="12" height="12" transform="rotate(0,382,346)"/><rect x="376" y="364" width="12" height="12" transform="rotate(0,382,370)"/><rect x="376" y="412" width="12" height="12" transform="rotate(0,382,418)"/><rect x="376" y="424" width="12" height="12" transform="rotate(0,382,430)"/><rect x="388" y="136" width="12" height="12" transform="rotate(0,394,142)"/><rect x="388" y="172" width="12" height="12" transform="rotate(0,394,178)"/><rect x="388" y="184" width="12" height="12" transform="rotate(0,394,190)"/><rect x="388" y="220" width="12" height="12" transform="rotate(0,394,226)"/><rect x="388" y="232" width="12" height="12" transform="rotate(0,394,238)"/><rect x="388" y="244" width="12" height="12" transform="rotate(0,394,250)"/><rect x="388" y="280" width="12" height="12" transform="rotate(0,394,286)"/><rect x="388" y="304" width="12" height="12" transform="rotate(0,394,310)"/><rect x="388" y="316" width="12" height="12" transform="rotate(0,394,322)"/><rect x="388" y="340" width="12" height="12" transform="rotate(0,394,346)"/><rect x="388" y="352" width="12" height="12" transform="rotate(0,394,358)"/><rect x="388" y="364" width="12" height="12" transform="rotate(0,394,370)"/><rect x="388" y="388" width="12" height="12" transform="rotate(0,394,394)"/><rect x="388" y="412" width="12" height="12" transform="rotate(0,394,418)"/><rect x="388" y="424" width="12" height="12" transform="rotate(0,394,430)"/><rect x="388" y="436" width="12" height="12" transform="rotate(0,394,442)"/><rect x="400" y="136" width="12" height="12" transform="rotate(0,406,142)"/><rect x="400" y="160" width="12" height="12" transform="rotate(0,406,166)"/><rect x="400" y="196" width="12" height="12" transform="rotate(0,406,202)"/><rect x="400" y="244" width="12" height="12" transform="rotate(0,406,250)"/><rect x="400" y="256" width="12" height="12" transform="rotate(0,406,262)"/><rect x="400" y="280" width="12" height="12" transform="rotate(0,406,286)"/><rect x="400" y="304" width="12" height="12" transform="rotate(0,406,310)"/><rect x="400" y="316" width="12" height="12" transform="rotate(0,406,322)"/><rect x="400" y="364" width="12" height="12" transform="rotate(0,406,370)"/><rect x="400" y="412" width="12" height="12" transform="rotate(0,406,418)"/><rect x="400" y="436" width="12" height="12" transform="rotate(0,406,442)"/><rect x="400" y="448" width="12" height="12" transform="rotate(0,406,454)"/><rect x="412" y="124" width="12" height="12" transform="rotate(0,418,130)"/><rect x="412" y="160" width="12" height="12" transform="rotate(0,418,166)"/><rect x="412" y="172" width="12" height="12" transform="rotate(0,418,178)"/><rect x="412" y="196" width="12" height="12" transform="rotate(0,418,202)"/><rect x="412" y="220" width="12" height="12" transform="rotate(0,418,226)"/><rect x="412" y="244" width="12" height="12" transform="rotate(0,418,250)"/><rect x="412" y="256" width="12" height="12" transform="rotate(0,418,262)"/><rect x="412" y="268" width="12" height="12" transform="rotate(0,418,274)"/><rect x="412" y="280" width="12" height="12" transform="rotate(0,418,286)"/><rect x="412" y="292" width="12" height="12" transform="rotate(0,418,298)"/><rect x="412" y="304" width="12" height="12" transform="rotate(0,418,310)"/><rect x="412" y="316" width="12" height="12" transform="rotate(0,418,322)"/><rect x="412" y="364" width="12" height="12" transform="rotate(0,418,370)"/><rect x="412" y="376" width="12" height="12" transform="rotate(0,418,382)"/><rect x="412" y="388" width="12" height="12" transform="rotate(0,418,394)"/><rect x="412" y="400" width="12" height="12" transform="rotate(0,418,406)"/><rect x="412" y="412" width="12" height="12" transform="rotate(0,418,418)"/><rect x="412" y="424" width="12" height="12" transform="rotate(0,418,430)"/><rect x="412" y="436" width="12" height="12" transform="rotate(0,418,442)"/><rect x="424" y="136" width="12" height="12" transform="rotate(0,430,142)"/><rect x="424" y="160" width="12" height="12" transform="rotate(0,430,166)"/><rect x="424" y="184" width="12" height="12" transform="rotate(0,430,190)"/><rect x="424" y="232" width="12" height="12" transform="rotate(0,430,238)"/><rect x="424" y="244" width="12" height="12" transform="rotate(0,430,250)"/><rect x="424" y="256" width="12" height="12" transform="rotate(0,430,262)"/><rect x="424" y="268" width="12" height="12" transform="rotate(0,430,274)"/><rect x="424" y="304" width="12" height="12" transform="rotate(0,430,310)"/><rect x="424" y="316" width="12" height="12" transform="rotate(0,430,322)"/><rect x="424" y="328" width="12" height="12" transform="rotate(0,430,334)"/><rect x="424" y="340" width="12" height="12" transform="rotate(0,430,346)"/><rect x="424" y="352" width="12" height="12" transform="rotate(0,430,358)"/><rect x="424" y="364" width="12" height="12" transform="rotate(0,430,370)"/><rect x="424" y="388" width="12" height="12" transform="rotate(0,430,394)"/><rect x="424" y="400" width="12" height="12" transform="rotate(0,430,406)"/><rect x="424" y="448" width="12" height="12" transform="rotate(0,430,454)"/><rect x="436" y="136" width="12" height="12" transform="rotate(0,442,142)"/><rect x="436" y="148" width="12" height="12" transform="rotate(0,442,154)"/><rect x="436" y="208" width="12" height="12" transform="rotate(0,442,214)"/><rect x="436" y="292" width="12" height="12" transform="rotate(0,442,298)"/><rect x="436" y="304" width="12" height="12" transform="rotate(0,442,310)"/><rect x="436" y="328" width="12" height="12" transform="rotate(0,442,334)"/><rect x="436" y="388" width="12" height="12" transform="rotate(0,442,394)"/><rect x="436" y="400" width="12" height="12" transform="rotate(0,442,406)"/><rect x="436" y="436" width="12" height="12" transform="rotate(0,442,442)"/><rect x="436" y="448" width="12" height="12" transform="rotate(0,442,454)"/><rect x="448" y="124" width="12" height="12" transform="rotate(0,454,130)"/><rect x="448" y="160" width="12" height="12" transform="rotate(0,454,166)"/><rect x="448" y="220" width="12" height="12" transform="rotate(0,454,226)"/><rect x="448" y="268" width="12" height="12" transform="rotate(0,454,274)"/><rect x="448" y="280" width="12" height="12" transform="rotate(0,454,286)"/><rect x="448" y="304" width="12" height="12" transform="rotate(0,454,310)"/><rect x="448" y="316" width="12" height="12" transform="rotate(0,454,322)"/><rect x="448" y="352" width="12" height="12" transform="rotate(0,454,358)"/><rect x="448" y="388" width="12" height="12" transform="rotate(0,454,394)"/><rect x="448" y="436" width="12" height="12" transform="rotate(0,454,442)"/><rect x="448" y="448" width="12" height="12" transform="rotate(0,454,454)"/><rect x="460" y="136" width="12" height="12" transform="rotate(0,466,142)"/><rect x="460" y="172" width="12" height="12" transform="rotate(0,466,178)"/><rect x="460" y="184" width="12" height="12" transform="rotate(0,466,190)"/><rect x="460" y="196" width="12" height="12" transform="rotate(0,466,202)"/><rect x="460" y="220" width="12" height="12" transform="rotate(0,466,226)"/><rect x="460" y="280" width="12" height="12" transform="rotate(0,466,286)"/><rect x="460" y="292" width="12" height="12" transform="rotate(0,466,298)"/><rect x="460" y="316" width="12" height="12" transform="rotate(0,466,322)"/><rect x="460" y="352" width="12" height="12" transform="rotate(0,466,358)"/><rect x="460" y="412" width="12" height="12" transform="rotate(0,466,418)"/><rect x="460" y="424" width="12" height="12" transform="rotate(0,466,430)"/><rect x="460" y="436" width="12" height="12" transform="rotate(0,466,442)"/><rect x="460" y="448" width="12" height="12" transform="rotate(0,466,454)"/><rect x="460" y="460" width="12" height="12" transform="rotate(0,466,466)"/><path clip-rule="evenodd" d="M 28 28v 84h 84v -84zM 40 40h 60v 60h -60z" transform="rotate(0,70,70)"/><rect x="52" y="52" width="36" height="36" transform="rotate(0,70,70)"/><path clip-rule="evenodd" d="M 388 28v 84h 84v -84zM 400 40h 60v 60h -60z" transform="rotate(90,430,70)"/><rect x="412" y="52" width="36" height="36" transform="rotate(90,430,70)"/><path clip-rule="evenodd" d="M 28 388v 84h 84v -84zM 40 400h 60v 60h -60z" transform="rotate(-90,70,430)"/><rect x="52" y="412" width="36" height="36" transform="rotate(-90,70,430)"/></clipPath></defs><rect x="0" y="0" height="500" width="500" clip-path="url('#clip-path-background-color')" fill="#fff"/><rect x="0" y="0" height="500" width="500" clip-path="url('#clip-path-dot-color')" fill="#000000"/></svg>